<?xml version="1.0" standalone="no"?>
<!DOCTYPE svg PUBLIC "-//W3C//DTD SVG 1.1//EN" "http://www.w3.org/Graphics/SVG/1.1/DTD/svg11.dtd" >
<svg>
<metadata>
Created by FontForge 20090622 at Wed Jun 15 13:35:24 2016
 By deploy user
Copyright (c) 2012 by Glenjan. All rights reserved.
</metadata>
<defs>
<font id="Room-Black" horiz-adv-x="591" >
  <font-face 
    font-family="Room"
    font-weight="900"
    font-stretch="normal"
    units-per-em="1000"
    panose-1="2 0 5 6 0 0 0 2 0 4"
    ascent="820"
    descent="-180"
    x-height="500"
    cap-height="600"
    bbox="-78 -264 1018 875"
    underline-thickness="50"
    underline-position="-50"
    unicode-range="U+0020-U+2265"
  />
<missing-glyph horiz-adv-x="300" 
 />
    <glyph glyph-name=".notdef" horiz-adv-x="300" 
 />
    <glyph glyph-name=".null" horiz-adv-x="0" 
 />
    <glyph glyph-name="nonmarkingreturn" horiz-adv-x="333" 
 />
    <glyph glyph-name="space" unicode=" " horiz-adv-x="300" 
 />
    <glyph glyph-name="space" unicode="&#xa0;" horiz-adv-x="300" 
 />
    <glyph glyph-name="exclam" unicode="!" horiz-adv-x="208" 
d="M50 634h106v-152l-3 -313h-98l-5 313v152zM34 65q0 31 19 50.5t50 19.5q32 0 51.5 -19.5t19.5 -50.5q0 -32 -19.5 -51.5t-51.5 -19.5q-31 0 -50 19.5t-19 51.5z" />
    <glyph glyph-name="quotedbl" unicode="&#x22;" horiz-adv-x="280" 
d="M41 427l-14 173h103l-15 -173h-74zM165 427l-13 173h102l-14 -173h-75z" />
    <glyph glyph-name="numbersign" unicode="#" horiz-adv-x="488" 
d="M118 61l6 89h-84v76h89l6 62h-95v77h98l8 92l75 -3l-7 -89h68l7 92l77 -3l-8 -89h90v-77h-94l-6 -62h100v-76h-104l-7 -92l-75 3l6 89h-67l-8 -92zM210 288l-6 -62h68l6 62h-68z" />
    <glyph glyph-name="dollar" unicode="$" horiz-adv-x="520" 
d="M43 363q0 53 44 95q37 36 111 48v60h116v-61q73 -7 157 -47l-47 -94q-84 38 -161 38q-56 0 -84 -16q-14 -9 -14 -21q0 -15 10 -22q10 -10 44 -16l95 -16q91 -15 138 -59q38 -36 38 -97q0 -62 -43 -105q-44 -42 -133 -55v-61h-116v59q-81 7 -164 51l47 97q85 -41 165 -41
q64 0 100 17q24 15 24 34t-16 28q-19 11 -58 18l-108 19q-71 12 -109 53q-36 37 -36 94z" />
    <glyph glyph-name="uni0025" unicode="%" horiz-adv-x="691" 
d="M142 28l333 488l74 -48l-338 -486zM524 -9q-62 0 -104 42t-42 104q0 63 43 106q43 40 103 40q73 0 115 -51q32 -40 32 -95q0 -56 -35 -97q-43 -49 -112 -49zM585 139q0 26 -17 43q-18 18 -44 18t-43 -17q-19 -16 -19 -44q0 -29 18 -46q18 -18 44 -18q28 0 46 20
q15 17 15 44zM166 217q-62 0 -104 42t-42 104q0 63 43 106q43 40 103 40q73 0 115 -51q32 -40 32 -95q0 -56 -35 -97q-43 -49 -112 -49zM227 365q0 27 -17 44q-15 17 -44 17q-26 0 -43 -17q-19 -16 -19 -44q0 -29 18 -46q18 -18 44 -18q28 0 46 20q15 16 15 44z" />
    <glyph glyph-name="ampersand" unicode="&#x26;" horiz-adv-x="590" 
d="M463 492l-99 -43q-23 61 -77 61q-34 0 -52 -24q-14 -20 -14 -45q0 -30 21 -53l188 -193q12 23 17 53l97 -27q-12 -70 -39 -108l55 -58l-78 -70l-49 52q-63 -48 -164 -48q-97 0 -161 50q-78 60 -78 162q0 67 30 116q15 23 59 60q-15 35 -15 67q0 64 44 111q50 56 139 56
q129 0 176 -119zM271 91q50 0 87 22l-179 188q-20 -19 -29 -45q-6 -18 -6 -54q0 -46 35 -78q36 -33 92 -33z" />
    <glyph glyph-name="quotesingle" unicode="'" horiz-adv-x="163" 
d="M41 427l-14 173h109l-14 -173h-81z" />
    <glyph glyph-name="parenleft" unicode="(" horiz-adv-x="229" 
d="M221 565q-36 -57 -55.5 -139.5t-19.5 -155.5t19 -151t56 -134l-87 -51q-102 151 -102 336q0 196 102 347z" />
    <glyph glyph-name="parenright" unicode=")" horiz-adv-x="229" 
d="M8 -14q36 58 56 140t20 155q0 74 -19 152t-57 134l87 50q102 -151 102 -336q0 -196 -102 -347z" />
    <glyph glyph-name="asterisk" unicode="*" horiz-adv-x="273" 
d="M175 583l-6 -57l50 23l25 -1l17 -58l-20 -12l-48 -11l30 -41l6 -23l-40 -31l-22 6l-29 49l-30 -48l-23 -7l-40 30l1 24l37 41l-54 13l-16 16l17 54l24 1l51 -24l-3 55l9 24h55z" />
    <glyph glyph-name="plus" unicode="+" horiz-adv-x="346" 
d="M20 319h104v105h96v-105h106v-96h-106v-105h-96v105h-104v96z" />
    <glyph glyph-name="comma" unicode="," horiz-adv-x="219" 
d="M35 67q0 31 20.5 51.5t53.5 20.5q35 0 55 -20.5t20 -51.5q0 -23 -6 -36l-54 -130l-67 19l17 80q-39 21 -39 67z" />
    <glyph glyph-name="hyphen" unicode="-" horiz-adv-x="375" 
d="M33 310h309v-96h-309v96z" />
    <glyph glyph-name="period" unicode="." horiz-adv-x="219" 
d="M35 67q0 32 20 52t54 20q35 0 55 -19.5t20 -52.5q0 -31 -20 -51.5t-55 -20.5q-33 0 -53.5 20.5t-20.5 51.5z" />
    <glyph glyph-name="slash" unicode="/" horiz-adv-x="316" 
d="M-13 -9l240 638l92 -34l-240 -637z" />
    <glyph glyph-name="zero" unicode="0" horiz-adv-x="674" 
d="M643 300q0 -145 -92 -231q-83 -80 -214 -80t-214 80q-92 86 -92 231t92 231q83 80 214 80t214 -80q92 -86 92 -231zM147 300q0 -94 48 -149q52 -61 142 -61t142 61q48 55 48 149t-48 149q-52 61 -142 61t-142 -61q-48 -55 -48 -149z" />
    <glyph glyph-name="one" unicode="1" horiz-adv-x="295" 
d="M52 437l-40 85l167 78h66v-600h-111v469z" />
    <glyph glyph-name="two" unicode="2" horiz-adv-x="542" 
d="M55 0v94l252 197q43 33 66 69q21 31 21 62q0 30 -19 56q-34 33 -104 33q-96 0 -161 -85l-75 68q89 117 236 117q115 0 180 -59q56 -50 56 -134q0 -65 -42 -119q-41 -52 -96 -95l-131 -104h265v-100h-448z" />
    <glyph glyph-name="three" unicode="3" horiz-adv-x="553" 
d="M270 89q73 0 117 39q25 26 25 67t-24 59q-25 20 -73 20h-173v99h159q41 0 61 24q14 17 14 45q0 34 -25 52q-27 19 -91 19q-83 0 -148 -62l-66 68q91 92 224 92q105 0 164 -53q48 -44 49 -116q0 -32 -14 -58q-8 -18 -32 -37v-8q43 -22 64 -60q22 -37 22 -84
q0 -90 -62 -145q-73 -61 -191 -61q-78 0 -136.5 25t-108.5 81l66 70q81 -76 179 -76z" />
    <glyph glyph-name="four" unicode="4" horiz-adv-x="575" 
d="M25 86v79l372 435h91v-413h61v-95l-61 -5v-87h-113v86h-350zM375 187v227l-195 -227h195z" />
    <glyph glyph-name="five" unicode="5" horiz-adv-x="547" 
d="M263 89q70 0 111 38q33 31 33 79q0 45 -29 74q-38 38 -101 38q-81 0 -141 -32h-73v314h410v-101h-304v-105q47 22 109 22q112 0 175 -59q64 -57 64 -151q0 -98 -61 -153q-70 -64 -193 -64q-155 0 -238 104l68 76q41 -43 79.5 -61.5t90.5 -18.5z" />
    <glyph glyph-name="six" unicode="6" horiz-adv-x="562" 
d="M287 413q124 0 191 -70q54 -54 54 -137q0 -90 -61 -151q-66 -66 -185 -66q-130 0 -199 95q-57 82 -57 208q0 154 83 243q70 76 181 76q119 0 209 -74l-61 -76q-39 29 -69 38.5t-78 9.5q-66 0 -104 -44q-25 -27 -38 -76q59 24 134 24zM286 89q62 0 97 29q38 30 38 88
q0 50 -31 75q-35 32 -103 32q-85 0 -144 -29v-5q0 -84 35 -136q39 -54 108 -54z" />
    <glyph glyph-name="seven" unicode="7" horiz-adv-x="518" 
d="M40 500v100h463v-75l-269 -525h-126l259 500h-327z" />
    <glyph glyph-name="eight" unicode="8" horiz-adv-x="581" 
d="M289 -11q-133 0 -202 59q-58 51 -58 138q0 49 27 91q22 33 66 58q-21 17 -32 40q-15 30 -15 69q0 80 64 126q57 41 153 41q100 0 158 -52q52 -45 52 -112q0 -32 -11 -56t-34 -44q43 -22 68 -62q27 -43 27 -94q0 -90 -66 -146q-71 -56 -197 -56zM289 512q-62 0 -83 -21
q-20 -18 -20 -48q0 -35 24 -46q23 -14 79 -14q45 0 70 -4q15 12 23 27q7 13 7 38q0 30 -20 47q-24 21 -80 21zM289 281q-53 0 -88 7q-26 -11 -41 -33q-18 -22 -18 -64q0 -51 44 -77q43 -25 103 -25q77 0 119 38q30 26 30 64q0 41 -27 62q-38 28 -122 28z" />
    <glyph glyph-name="nine" unicode="9" horiz-adv-x="562" 
d="M274 187q-123 0 -191 69q-53 58 -53 138q0 91 60 151q66 66 185 66q131 0 200 -95q57 -82 57 -208q0 -150 -67 -233q-71 -86 -195 -86q-64 0 -113 14t-98 51l54 81q57 -44 156 -44q65 0 102 39q32 32 38 81q-59 -24 -135 -24zM275 511q-61 0 -96 -29q-38 -29 -38 -88
q0 -50 31 -75q35 -32 102 -32q86 0 145 29v5q0 84 -35 136q-39 54 -109 54z" />
    <glyph glyph-name="colon" unicode=":" horiz-adv-x="170" 
d="M35 67q0 32 20 52t54 20q35 0 55 -19.5t20 -52.5q0 -31 -20 -51.5t-55 -20.5q-33 0 -53.5 20.5t-20.5 51.5zM35 353q0 32 20 52t54 20q35 0 55 -19.5t20 -52.5q0 -31 -20 -51.5t-55 -20.5q-33 0 -53.5 20.5t-20.5 51.5z" />
    <glyph glyph-name="semicolon" unicode=";" horiz-adv-x="170" 
d="M35 67q0 31 20.5 51.5t53.5 20.5q35 0 55 -20.5t20 -51.5q0 -23 -6 -36l-54 -130l-67 19l17 80q-39 21 -39 67zM35 353q0 32 20 52t54 20q35 0 55 -19.5t20 -52.5q0 -31 -20 -51.5t-55 -20.5q-33 0 -53.5 20.5t-20.5 51.5z" />
    <glyph glyph-name="less" unicode="&#x3c;" horiz-adv-x="301" 
d="M227 418l44 -64l-129 -105l129 -107l-44 -64l-207 144v52z" />
    <glyph glyph-name="equal" unicode="=" horiz-adv-x="355" 
d="M33 374h288v-91h-288v91zM33 228h288v-91h-288v91z" />
    <glyph glyph-name="greater" unicode="&#x3e;" horiz-adv-x="301" 
d="M61 78l-44 64l128 105l-128 107l44 64l206 -144v-52z" />
    <glyph glyph-name="question" unicode="?" horiz-adv-x="497" 
d="M273 180l1 -30h-98v49q0 45 23 77q23 31 71 54l40 18q36 15 51 40q10 16 10 38q0 38 -25 58q-33 27 -93 27q-59 0 -93 -18.5t-68 -67.5l-82 55q43 76 101.5 103.5t140.5 27.5q107 0 174 -55q55 -46 55 -128q0 -35 -11 -67q-18 -46 -59 -67l-104 -53q-17 -10 -25 -23
q-9 -17 -9 -38zM155 65q0 30 20 50t50 20q31 0 50.5 -20t19.5 -50t-20 -50.5t-50 -20.5t-50 20.5t-20 50.5z" />
    <glyph glyph-name="at" unicode="@" horiz-adv-x="676" 
d="M516 88q-43 0 -75 29q-51 -35 -103 -35q-71 0 -118 45q-52 50 -52 124q0 66 47 113q50 50 122 50q53 0 90 -25l15 22l54 -9v-201q0 -14 5 -26q8 -11 17 -11q18 0 27 9q17 17 17 78q0 90 -48 147q-60 70 -173 70q-101 0 -164 -63q-59 -59 -59 -154q0 -89 54 -150
q66 -69 169 -69q92 0 170 30l26 -66q-94 -43 -196 -43q-144 0 -229 87q-80 80 -80 211q0 122 80 202q91 93 229 93q147 0 233 -95q71 -82 72 -200q0 -87 -50 -137q-29 -26 -80 -26zM341 161q39 0 71 25q-1 7 -1 28v106q-32 19 -71 19q-35 0 -61 -23q-28 -25 -28 -64
q0 -36 23 -63q26 -28 67 -28z" />
    <glyph glyph-name="A" unicode="A" horiz-adv-x="704" 
d="M291 600h122l266 -600h-129l-49 107h-301l-48 -107h-127zM344 477l-98 -261h210l-103 261h-9z" />
    <glyph glyph-name="B" unicode="B" horiz-adv-x="614" 
d="M347 0h-297v600h290q104 0 156 -47q44 -41 44 -110q0 -31 -13 -58q-13 -29 -40 -48v-6q42 -20 63 -55q24 -39 24 -89q0 -79 -56 -132q-58 -55 -171 -55zM457 188q0 33 -17 53q-26 28 -76 28h-196v-164h185q53 0 79 22q25 19 25 61zM423 434q0 29 -18 44q-17 17 -61 17
h-176v-122h190q28 0 48 17q17 15 17 44z" />
    <glyph glyph-name="C" unicode="C" horiz-adv-x="622" 
d="M148 301q0 -89 54 -143q60 -60 143 -60q93 0 176 76l71 -79q-56 -57 -113 -81.5t-134 -24.5q-138 0 -226 86q-90 88 -90 226q0 130 88 220q90 90 228 90q77 0 133.5 -23.5t113.5 -78.5l-71 -81q-81 75 -176 75q-80 0 -138 -56q-59 -59 -59 -146z" />
    <glyph glyph-name="D" unicode="D" horiz-adv-x="641" 
d="M50 600h241q147 0 235 -93q80 -82 80 -207q0 -131 -90 -219q-84 -81 -225 -81h-241v600zM287 491h-120v-383h120q96 0 148 52t52 140q0 87 -50 137q-54 54 -150 54z" />
    <glyph glyph-name="E" unicode="E" horiz-adv-x="574" 
d="M50 0v600h470v-110h-349v-122h312v-109h-312v-150h363v-109h-484z" />
    <glyph glyph-name="F" unicode="F" horiz-adv-x="539" 
d="M49 600h460v-111h-339v-133h301v-111h-301v-245h-121v600z" />
    <glyph glyph-name="G" unicode="G" horiz-adv-x="650" 
d="M598 353v-346l-81 -12l-13 34q-65 -40 -154 -40q-160 0 -245 97q-74 82 -74 215q0 138 92 225q88 85 229 85q149 0 243 -105l-78 -78q-39 40 -77 57.5t-88 17.5q-93 0 -147 -60q-50 -55 -50 -142q0 -94 57 -149q56 -53 138 -53q76 0 129 36v107l-151 9v102h270z" />
    <glyph glyph-name="H" unicode="H" horiz-adv-x="631" 
d="M463 600h118v-600h-118v265h-293v-265h-120v600h120v-228h293v228z" />
    <glyph glyph-name="I" unicode="I" horiz-adv-x="217" 
d="M167 600v-600h-117v600h117z" />
    <glyph glyph-name="J" unicode="J" horiz-adv-x="541" 
d="M376 600h120v-340q0 -130 -71 -200q-73 -71 -194 -71q-129 0 -216 93l71 82q62 -62 140 -62q74 0 111 37q39 39 39 110v351z" />
    <glyph glyph-name="K" unicode="K" horiz-adv-x="608" 
d="M50 600h120v-226h110l155 226h140l-192 -275l205 -325h-138l-168 267h-112v-267h-120v600z" />
    <glyph glyph-name="L" unicode="L" horiz-adv-x="542" 
d="M517 107v-107h-467v600h120v-493h347z" />
    <glyph glyph-name="M" unicode="M" horiz-adv-x="750" 
d="M50 600h125l203 -285l197 285h125v-600h-123v408h-4l-177 -255h-46l-178 256h-4v-409h-118v600z" />
    <glyph glyph-name="N" unicode="N" horiz-adv-x="657" 
d="M491 600h116v-600h-108l-331 406v-406h-118v600h108l333 -408v408z" />
    <glyph glyph-name="O" unicode="O" horiz-adv-x="693" 
d="M346 611q135 0 225 -88q92 -90 92 -223q0 -130 -86 -218q-90 -93 -231 -93q-145 0 -234 97q-39 40 -61 97t-22 117q0 125 84 214q91 97 233 97zM148 300q0 -81 54 -140q59 -62 144 -62q88 0 143 61q53 58 53 141q0 89 -52 146q-55 57 -144 57t-144 -60q-54 -57 -54 -143z
" />
    <glyph glyph-name="P" unicode="P" horiz-adv-x="599" 
d="M569 378q0 -90 -67 -155q-67 -64 -162 -64h-169v-159h-122v600h291q110 0 178 -81q51 -64 51 -141zM339 268q50 0 80 35q29 32 29 75q0 48 -26 79q-27 33 -91 33h-160v-222h168z" />
    <glyph glyph-name="Q" unicode="Q" horiz-adv-x="694" 
d="M346 611q135 0 225 -88q92 -90 92 -223q0 -68 -27 -130t-94 -119q6 -3 20 -13t25.5 -16.5t23.5 -11.5q48 -26 120 -32l5 -89q-29 -10 -64 -10q-78 0 -158 53q-66 47 -95 65q-37 -8 -73 -8q-145 0 -234 97q-39 40 -61 97t-22 117q0 125 84 214q91 97 233 97zM148 300
q0 -81 54 -140q59 -62 144 -62q88 0 143 61q53 58 53 141q0 89 -52 146q-55 57 -144 57t-144 -60q-54 -57 -54 -143z" />
    <glyph glyph-name="R" unicode="R" horiz-adv-x="605" 
d="M575 378q0 -66 -34 -119q-32 -50 -85 -75l113 -184h-138l-95 159h-166v-159h-121v600h286q109 0 174 -65q66 -66 66 -157zM170 490v-222h163q63 0 91 33q30 31 30 77q0 49 -28 77q-27 35 -94 35h-162z" />
    <glyph glyph-name="S" unicode="S" 
d="M210 270q-89 17 -130 58q-42 42 -42 107q0 80 63 127q66 49 190 49q69 0 124.5 -13.5t122.5 -50.5l-48 -94q-100 50 -191 50q-90 0 -121 -25q-19 -15 -19 -40q0 -23 18 -35q20 -13 59 -19l119 -21q115 -20 165 -72q42 -45 42 -111q0 -93 -71 -140q-78 -51 -214 -51
q-78 0 -129.5 12t-118.5 44l37 99q108 -45 209 -45q99 0 146 33q20 15 20 45q0 22 -20 42q-21 16 -82 29z" />
    <glyph glyph-name="T" unicode="T" horiz-adv-x="598" 
d="M24 492v108h549v-108h-216v-492h-117v492h-216z" />
    <glyph glyph-name="U" unicode="U" horiz-adv-x="628" 
d="M578 263q0 -124 -81 -202q-74 -71 -183 -71q-115 0 -189 74q-76 78 -76 199v337h121v-343q0 -74 42 -114q40 -43 102 -43q59 0 103 44q40 38 40 113v343h121v-337z" />
    <glyph glyph-name="V" unicode="V" horiz-adv-x="682" 
d="M417 0h-155l-238 600h129l187 -481h5l185 481h125z" />
    <glyph glyph-name="W" unicode="W" horiz-adv-x="952" 
d="M363 0h-162l-176 600h129l127 -480h4l108 480h162l116 -480h4l123 480h128l-177 -600h-163l-114 454h-4z" />
    <glyph glyph-name="X" unicode="X" horiz-adv-x="667" 
d="M185 600l147 -211l139 211h141l-202 -289l227 -311h-151l-160 231l-159 -231h-140l221 310l-214 290h151z" />
    <glyph glyph-name="Y" unicode="Y" horiz-adv-x="679" 
d="M399 0h-118v145l-259 455h138l175 -329h10l178 329h131l-255 -456v-144z" />
    <glyph glyph-name="Z" unicode="Z" horiz-adv-x="593" 
d="M553 111v-111h-514v94l341 400l-108 -2h-223v108h500v-84l-346 -408l100 3h250z" />
    <glyph glyph-name="bracketleft" unicode="[" horiz-adv-x="239" 
d="M158 530v-506h69v-101h-177v707h177v-100h-69z" />
    <glyph glyph-name="backslash" unicode="\" horiz-adv-x="316" 
d="M79 658l250 -667l-92 -33l-250 666z" />
    <glyph glyph-name="bracketright" unicode="]" horiz-adv-x="239" 
d="M81 24v506h-69v100h177v-707h-177v101h69z" />
    <glyph glyph-name="asciicircum" unicode="^" horiz-adv-x="394" 
d="M374 422l-66 -57l-112 107l-106 -107l-70 60l157 173h44z" />
    <glyph glyph-name="underscore" unicode="_" horiz-adv-x="327" 
d="M0 -26h327v-90h-327v90z" />
    <glyph glyph-name="grave" unicode="`" horiz-adv-x="272" 
d="M151 762l71 -177l-81 -38l-91 164z" />
    <glyph glyph-name="a" unicode="a" horiz-adv-x="611" 
d="M247 500h117l222 -500h-131l-37 86h-228l-37 -86h-128zM300 362l-64 -168h134l-63 168h-7z" />
    <glyph glyph-name="b" unicode="b" horiz-adv-x="533" 
d="M308 0h-258v500h249q88 0 133 -47q36 -36 36 -87q0 -28 -12 -51q-10 -22 -35 -36v-4q34 -15 53 -46t19 -69q0 -68 -43 -111q-49 -49 -142 -49zM374 157q0 21 -12 33q-13 16 -45 16h-147v-101h144q30 0 46 16q14 14 14 36zM348 353q0 17 -12 29t-38 12h-128v-82h128
q25 0 38 11q12 11 12 30z" />
    <glyph glyph-name="c" unicode="c" horiz-adv-x="552" 
d="M156 251q0 -66 41 -107q42 -45 108 -45q72 0 140 62l74 -78q-51 -49 -100 -70.5t-114 -21.5q-136 0 -213 91q-58 71 -58 169q0 116 86 192q78 66 185 66q64 0 114 -21t100 -71l-76 -77q-34 35 -65.5 48t-72.5 13q-71 0 -109 -41q-40 -43 -40 -109z" />
    <glyph glyph-name="d" unicode="d" horiz-adv-x="554" 
d="M50 500h204q122 0 194 -72q71 -71 71 -178q0 -108 -71 -179q-73 -71 -194 -71h-204v500zM250 392h-80v-285h80q75 0 113 43q36 36 36 100q0 63 -37 102q-38 40 -112 40z" />
    <glyph glyph-name="e" unicode="e" horiz-adv-x="502" 
d="M50 0v500h403v-108h-283v-86h253v-107h-253v-92h292v-107h-412z" />
    <glyph glyph-name="f" unicode="f" horiz-adv-x="472" 
d="M50 500h392v-108h-272v-98h242v-108h-242v-186h-120v500z" />
    <glyph glyph-name="g" unicode="g" horiz-adv-x="567" 
d="M511 300v-290l-70 -16l-23 30q-46 -33 -122 -33q-112 0 -185 70q-76 73 -76 190q0 113 77 185q76 73 191 73q126 0 213 -93l-78 -77q-35 36 -65 49t-70 13q-65 0 -104 -42q-43 -40 -43 -108t42 -110q40 -42 103 -42q48 0 90 25v71l-119 5v100h239z" />
    <glyph glyph-name="h" unicode="h" horiz-adv-x="552" 
d="M382 500h120v-500h-120v211h-212v-211h-120v500h120v-181h212v181z" />
    <glyph glyph-name="i" unicode="i" horiz-adv-x="222" 
d="M50 500h122v-500h-122v500z" />
    <glyph glyph-name="j" unicode="j" horiz-adv-x="473" 
d="M307 500h121v-281q0 -112 -63 -172q-61 -56 -162 -56q-118 0 -188 87l74 75q49 -52 115 -52q48 0 77 33q26 31 26 79v287z" />
    <glyph glyph-name="k" unicode="k" horiz-adv-x="547" 
d="M50 500h120v-185h73l130 185h143l-170 -235l179 -265h-146l-132 206h-77v-206h-120v500z" />
    <glyph glyph-name="l" unicode="l" horiz-adv-x="469" 
d="M172 107h272v-107h-394v500h122v-393z" />
    <glyph glyph-name="m" unicode="m" horiz-adv-x="645" 
d="M50 500h118l155 -230l154 230h118v-500h-120v301h-4l-124 -189h-50l-126 189h-4v-301h-117v500z" />
    <glyph glyph-name="n" unicode="n" horiz-adv-x="575" 
d="M408 500h117v-500h-107l-250 302v-302h-118v500h107l251 -301v301z" />
    <glyph glyph-name="o" unicode="o" 
d="M296 509q116 0 192 -78q73 -73 73 -181q0 -114 -78 -187q-75 -72 -187 -72q-117 0 -191 74q-76 76 -76 185q0 111 82 188q76 71 185 71zM150 250q0 -69 42 -108q41 -44 104 -44q60 0 101 41q43 38 43 111q0 71 -43 112q-43 40 -101 40q-64 0 -105 -44q-41 -39 -41 -108z
" />
    <glyph glyph-name="p" unicode="p" horiz-adv-x="519" 
d="M489 313q0 -83 -56 -134q-55 -52 -143 -52h-120v-127h-120v500h240q92 0 151 -62q48 -53 48 -125zM290 234q38 0 60 25q19 22 19 54q0 31 -15 50q-21 30 -69 30h-115v-159h120z" />
    <glyph glyph-name="q" unicode="q" horiz-adv-x="592" 
d="M296 509q116 0 192 -78q73 -73 73 -181q0 -60 -26 -115q-27 -54 -67 -86l19.5 -17.5t21 -18t17.5 -10.5q29 -11 88 -15l7 -88q-32 -12 -65 -12q-70 0 -127 43q-12 9 -34.5 31t-41.5 35q-27 -6 -57 -6q-117 0 -191 74q-76 76 -76 185q0 111 82 188q76 71 185 71zM150 250
q0 -69 42 -108q41 -44 104 -44q60 0 101 41q43 38 43 111q0 71 -43 112q-43 40 -101 40q-64 0 -105 -44q-41 -39 -41 -108z" />
    <glyph glyph-name="r" unicode="r" horiz-adv-x="524" 
d="M494 314q0 -52 -24 -93q-23 -39 -68 -65l87 -156h-138l-65 127h-116v-127h-120v500h245q105 0 161 -72q38 -49 38 -114zM170 393v-159h115q48 0 70 28q18 22 18 52q0 32 -19 54q-25 25 -68 25h-116z" />
    <glyph glyph-name="s" unicode="s" horiz-adv-x="520" 
d="M43 363q0 68 56 107q59 39 161 39q108 0 211 -50l-43 -96q-86 39 -165 39q-57 0 -80 -11q-18 -11 -18 -27q0 -14 10 -21q13 -12 44 -16l95 -16q101 -20 140 -58q36 -41 36 -96q0 -66 -44 -108q-62 -58 -199 -58q-64 0 -111 11.5t-102 41.5l46 97q86 -41 166 -41
q64 0 100 17q25 15 25 38q0 15 -17 24q-19 11 -58 18l-108 19q-74 13 -109 50q-36 38 -36 97z" />
    <glyph glyph-name="t" unicode="t" horiz-adv-x="513" 
d="M25 393v107h463v-107h-172v-393h-120v393h-171z" />
    <glyph glyph-name="u" unicode="u" horiz-adv-x="547" 
d="M497 216q0 -102 -68 -165q-62 -59 -154 -59q-99 0 -161 64q-64 66 -64 160v284h120v-289q0 -51 29 -80q28 -31 76 -31q45 0 74 30q28 31 28 81v289h120v-284z" />
    <glyph glyph-name="v" unicode="v" horiz-adv-x="592" 
d="M361 0h-132l-204 500h132l135 -377h10l134 377h131z" />
    <glyph glyph-name="w" unicode="w" horiz-adv-x="850" 
d="M326 0h-140l-156 500h129l98 -361h4l99 361h130l101 -362h5l96 362h128l-155 -500h-142l-98 326h-4z" />
    <glyph glyph-name="x" unicode="x" horiz-adv-x="575" 
d="M178 500l109 -169l106 169h141l-165 -240l181 -260h-147l-118 183l-122 -183h-138l177 256l-168 244h144z" />
    <glyph glyph-name="y" unicode="y" horiz-adv-x="592" 
d="M356 0h-120v121l-211 379h136l135 -260h6l131 260h134l-211 -380v-120z" />
    <glyph glyph-name="z" unicode="z" horiz-adv-x="514" 
d="M474 107v-107h-434v89l257 310l-64 -4h-189v105h419v-84l-260 -312l56 3h215z" />
    <glyph glyph-name="braceleft" unicode="{" horiz-adv-x="243" 
d="M194 531q-17 0 -17 -17v-167q0 -51 -33 -69v-5q33 -17 33 -68v-167q0 -17 17 -17h45v-98h-46q-128 0 -128 123v147q0 32 -27 32h-22v104h22q12 0 19.5 9t7.5 22v147q0 123 128 123h46v-99h-45z" />
    <glyph glyph-name="bar" unicode="|" horiz-adv-x="191" 
d="M50 650h91v-800h-91v800z" />
    <glyph glyph-name="braceright" unicode="}" horiz-adv-x="243" 
d="M49 22q16 0 16 18v170q0 50 34 69v6q-34 18 -34 67v163q0 17 -16 17h-45v98h45q129 0 129 -123v-143q0 -32 26 -32h23v-104h-23q-12 0 -19 -9t-7 -22v-151q0 -123 -129 -123h-45v99h45z" />
    <glyph glyph-name="asciitilde" unicode="~" horiz-adv-x="426" 
d="M214 212q-39 14 -70 14q-38 0 -65 -23l-47 57q49 55 112 55q38 0 70 -14t69 -14q36 0 66 24l45 -59q-47 -53 -111 -53q-34 0 -69 13z" />
    <glyph glyph-name="exclamdown" unicode="&#xa1;" horiz-adv-x="176" 
d="M126 -29h-106v152l3 313h98l5 -313v-152zM142 540q0 -31 -19 -50.5t-50 -19.5q-32 0 -51.5 19.5t-19.5 50.5q0 32 19.5 51.5t51.5 19.5q31 0 50 -19.5t19 -51.5z" />
    <glyph glyph-name="cent" unicode="&#xa2;" horiz-adv-x="552" 
d="M362 566v-62q84 -13 155 -87l-75 -78q-62 62 -139 62q-61 0 -104 -40q-43 -43 -43 -110t41 -108q41 -44 106 -44q74 0 139 62l75 -78q-37 -38 -72 -57.5t-83 -28.5v-63h-116v63q-85 18 -133 66q-78 78 -78 188q0 107 76 183q49 52 135 69v63h116z" />
    <glyph glyph-name="currency" unicode="&#xa4;" horiz-adv-x="452" 
d="M224 86q-49 0 -78 16l-43 -42l-73 78l38 39q-17 36 -17 73q0 40 15 73l-36 42l73 72l42 -37q37 15 79 15t79 -15l41 37l78 -72l-42 -42q18 -38 18 -73q0 -40 -18 -74l39 -41l-75 -75l-42 42q-33 -16 -78 -16zM312 250q0 35 -24 59q-24 25 -64 25q-42 0 -63 -27
q-23 -21 -23 -57q0 -34 24 -62q23 -23 62 -23q34 0 64 24q24 24 24 61z" />
    <glyph glyph-name="yen" unicode="&#xa5;" 
d="M468 161h-343v75h51l-153 264h136l134 -252h4l139 252h132l-154 -264h54v-75zM125 142h343v-74h-112v-68h-121v68h-110v74z" />
    <glyph glyph-name="brokenbar" unicode="&#xa6;" horiz-adv-x="191" 
d="M50 650h91v-367h-91v367zM50 217h91v-367h-91v367z" />
    <glyph glyph-name="section" unicode="&#xa7;" horiz-adv-x="486" 
d="M419 558l-53 -88q-55 33 -123 33q-45 0 -59 -12q-11 -8 -11 -21q0 -14 12 -24q18 -12 49 -17l78 -15q74 -14 113 -62q31 -40 31 -90q0 -45 -22 -82q-11 -21 -30 -37q20 -32 20 -68q0 -68 -40 -105q-45 -45 -145 -45q-68 0 -110.5 12t-90.5 41l45 92q44 -23 75.5 -30.5
t80.5 -7.5q35 0 54 9q16 7 16 25q0 15 -10 22q-10 9 -37 14l-102 22q-63 13 -98 57q-31 39 -32 93q0 37 13 63q13 27 39 48q-25 30 -25 86q0 55 38 91q50 49 148 49q90 0 176 -53zM199 319q-4 1 -13.5 3t-17 4l-11.5 3q-17 -17 -17 -43q0 -22 13 -35q11 -11 38 -18l72 -17
q37 -8 54 -14q9 8 16 22q6 14 6 31q0 21 -14 32q-16 14 -63 22z" />
    <glyph glyph-name="dieresis" unicode="&#xa8;" horiz-adv-x="430" 
d="M246 611q0 28 19 47.5t48 19.5q28 0 47.5 -19.5t19.5 -47.5t-19.5 -47.5t-47.5 -19.5q-29 0 -48 19.5t-19 47.5zM50 611q0 28 19.5 47.5t47.5 19.5t47.5 -19.5t19.5 -47.5t-19.5 -47.5t-47.5 -19.5t-47.5 19.5t-19.5 47.5z" />
    <glyph glyph-name="copyright" unicode="&#xa9;" horiz-adv-x="589" 
d="M153 250q0 60 45 102q44 40 100 40q55 0 108 -44l-42 -59q-34 25 -66 25q-23 0 -46 -17q-17 -14 -17 -47q0 -24 12 -41q19 -24 51 -24q38 0 69 27l38 -60q-50 -44 -107 -44q-62 0 -103 41q-42 39 -42 101zM469 250q0 69 -44 120q-45 54 -131 54q-73 0 -121 -48
q-51 -51 -51 -126q0 -72 42 -120q45 -56 130 -56q86 0 135 59q40 52 40 117zM294 -11q-117 0 -193 83q-65 71 -65 178q0 110 72 182q77 77 186 77q114 0 190 -79q69 -72 69 -180t-64 -177q-75 -84 -195 -84z" />
    <glyph glyph-name="ordfeminine" unicode="&#xaa;" horiz-adv-x="371" 
d="M251 590l18 17l36 -11v-177q0 -25 19 -62l-48 -30q-18 12 -25 28q-40 -25 -78 -25q-72 0 -115 49q-31 35 -31 91q0 61 43 104q41 37 102 37q48 0 79 -21zM234 531q-22 13 -62 13q-42 0 -60 -26q-14 -20 -14 -48q0 -33 22 -52q22 -21 57 -21q28 0 57 19v115z" />
    <glyph glyph-name="guillemotleft" unicode="&#xab;" horiz-adv-x="412" 
d="M20 240v41l144 147l57 -46l-98 -120l98 -123l-57 -46zM323 93l-143 146v44l143 145l59 -46l-99 -120l99 -123z" />
    <glyph glyph-name="logicalnot" unicode="&#xac;" horiz-adv-x="343" 
d="M240 186l-10 88h-210v87h303v-175h-83z" />
    <glyph glyph-name="uni00AD" unicode="&#xad;" horiz-adv-x="327" 
d="M33 310h309v-96h-309v96z" />
    <glyph glyph-name="registered" unicode="&#xae;" horiz-adv-x="400" 
d="M199 261q-79 0 -128 49q-51 53 -51 130q0 80 54 131q51 48 125 48q87 0 139 -62q42 -48 42 -117q0 -75 -48 -123q-53 -56 -133 -56zM316 440q0 48 -31 82q-30 36 -86 36q-48 0 -80 -29q-36 -31 -36 -89q0 -55 31 -86t85 -31q59 0 85 32q32 32 32 85zM248 414l31 -60h-60
l-19 51h-18v-51h-56v176h81q38 0 59 -24q13 -16 13 -41q0 -18 -9 -33q-6 -11 -22 -18zM182 477v-24h28q5 0 9 4q3 3 3 8t-3 8q-4 4 -9 4h-28z" />
    <glyph glyph-name="overscore" unicode="&#xaf;" horiz-adv-x="387" 
d="M50 639h287v-84h-287v84z" />
    <glyph glyph-name="degree" unicode="&#xb0;" horiz-adv-x="332" 
d="M166 325q-63 0 -104 41q-40 40 -40 103q0 61 42 103q41 39 101 39q61 0 104 -40q41 -41 41 -102q0 -62 -41 -103t-103 -41zM236 469q0 31 -17 50q-21 23 -54 23q-28 0 -51 -21q-20 -20 -20 -52q0 -31 20 -51q21 -23 52 -23t52 23q18 20 18 51z" />
    <glyph glyph-name="plusminus" unicode="&#xb1;" horiz-adv-x="346" 
d="M20 409h104v105h96v-105h106v-98h-106v-104h-96v104h-104v98zM20 177h306v-94h-306v94z" />
    <glyph glyph-name="twosuperior" unicode="&#xb2;" horiz-adv-x="292" 
d="M40 323v59l119 79q16 10 26 26q8 13 8 28t-12 24q-17 11 -38 11q-42 0 -76 -36l-44 37q47 62 120 62q54 0 89 -32q29 -27 29 -68q0 -29 -16 -54q-16 -24 -46 -45l-47 -30h107v-61h-219z" />
    <glyph glyph-name="threesuperior" unicode="&#xb3;" horiz-adv-x="311" 
d="M150 382q41 0 53 14q10 10 10 24q0 11 -7 18q-10 10 -33 10h-80v57h79q9 0 17 5q7 7 7 17q0 13 -9 21q-10 10 -38 10q-40 0 -77 -28l-34 44q46 46 113 46q57 0 84 -26q27 -25 27 -62q0 -28 -21 -44q40 -24 40 -68q0 -39 -26 -67q-35 -36 -105 -36q-69 0 -125 52l43 47
q38 -34 82 -34z" />
    <glyph glyph-name="acute" unicode="&#xb4;" horiz-adv-x="277" 
d="M50 585l71 177l101 -51l-91 -164z" />
    <glyph glyph-name="mu" unicode="&#xb5;" horiz-adv-x="596" 
d="M545 6l-86 -12l-17 43q-64 -46 -157 -46q-32 0 -61 7q-30 6 -55 24h-4l9 -155h-122v633h120v-228q0 -74 26 -118q33 -56 93 -56q75 0 133 52v350h121v-494z" />
    <glyph glyph-name="paragraph" unicode="&#xb6;" horiz-adv-x="524" 
d="M210 500h266l3 -62l-64 -12v-368l-15 -155l-30 -35l-39 19v532h-63v-403l-14 -148l-34 -32l-37 18v339q-59 6 -98 46q-40 44 -40 110q0 77 51 116q43 35 114 35z" />
    <glyph glyph-name="middot" unicode="&#xb7;" horiz-adv-x="176" 
d="M35 323q0 32 20 52t54 20q35 0 55 -19.5t20 -52.5q0 -31 -20 -51.5t-55 -20.5q-33 0 -53.5 20.5t-20.5 51.5z" />
    <glyph glyph-name="cedilla" unicode="&#xb8;" horiz-adv-x="252" 
d="M57 11h81l-2 -48q34 0 52 -22q14 -17 14 -40q0 -44 -30 -76q-40 -40 -101 -57l-21 53q35 14 49 31q10 16 10 30q0 10 -9 16q-8 6 -19 6h-24v107z" />
    <glyph glyph-name="onesuperior" unicode="&#xb9;" horiz-adv-x="178" 
d="M36 510l-21 47l83 43h40v-278h-66v200z" />
    <glyph glyph-name="ordmasculine" unicode="&#xba;" horiz-adv-x="298" 
d="M149 344q-56 0 -94 36t-38 94q0 54 41 95q35 35 91 35q69 0 105 -49q26 -35 26 -81q0 -54 -36 -92q-38 -38 -95 -38zM205 474q0 23 -13 39q-16 19 -43 19t-42 -17t-15 -41q0 -28 16 -41q15 -17 41 -17q23 0 41 18q15 15 15 40z" />
    <glyph glyph-name="guillemotright" unicode="&#xbb;" horiz-adv-x="412" 
d="M392 281v-41l-144 -147l-57 46l98 120l-98 123l57 46zM89 428l143 -145v-44l-143 -146l-59 46l98 120l-98 123z" />
    <glyph glyph-name="questiondown" unicode="&#xbf;" horiz-adv-x="502" 
d="M209 425l-1 30h98v-49q0 -45 -23 -77q-23 -31 -71 -54l-40 -18q-36 -15 -51 -40q-10 -16 -10 -38q0 -38 25 -58q33 -27 93 -27q59 0 93 18.5t68 67.5l82 -55q-43 -76 -101.5 -103.5t-140.5 -27.5q-107 0 -174 55q-55 46 -55 128q0 35 11 67q18 46 59 67l104 53
q17 10 25 23q9 17 9 38zM327 540q0 -30 -20 -50t-50 -20q-31 0 -50.5 20t-19.5 50t20 50.5t50 20.5t50 -20.5t20 -50.5z" />
    <glyph glyph-name="Agrave" unicode="&#xc0;" horiz-adv-x="704" 
d="M291 600h122l266 -600h-129l-49 107h-301l-48 -107h-127zM344 477l-98 -261h210l-103 261h-9zM300 875l87 -198l-79 -38l-102 189z" />
    <glyph glyph-name="Aacute" unicode="&#xc1;" horiz-adv-x="704" 
d="M291 600h122l266 -600h-129l-49 107h-301l-48 -107h-127zM344 477l-98 -261h210l-103 261h-9zM318 677l87 198l94 -47l-102 -189z" />
    <glyph glyph-name="Acircumflex" unicode="&#xc2;" horiz-adv-x="704" 
d="M291 600h122l266 -600h-129l-49 107h-301l-48 -107h-127zM344 477l-98 -261h210l-103 261h-9zM242 631l-54 58l139 138h47l139 -138l-54 -58l-108 89z" />
    <glyph glyph-name="Atilde" unicode="&#xc3;" horiz-adv-x="704" 
d="M291 600h122l266 -600h-129l-49 107h-301l-48 -107h-127zM344 477l-98 -261h210l-103 261h-9zM423 644q-37 0 -69 13q-37 15 -73 15q-38 0 -68 -24l-49 61q53 58 116 58q35 0 69 -14q41 -16 73 -16q34 0 68 24l48 -62q-51 -55 -115 -55z" />
    <glyph glyph-name="Adieresis" unicode="&#xc4;" horiz-adv-x="704" 
d="M291 600h122l266 -600h-129l-49 107h-301l-48 -107h-127zM344 477l-98 -261h210l-103 261h-9zM384 714q0 30 19.5 50t49.5 20t51 -20.5t21 -49.5t-21 -50t-51 -21t-49.5 20.5t-19.5 50.5zM177 714q0 29 21 49.5t50 20.5t50 -20.5t21 -49.5t-21 -50t-50 -21t-50 21t-21 50
z" />
    <glyph glyph-name="Aring" unicode="&#xc5;" horiz-adv-x="704" 
d="M291 600h122l266 -600h-129l-49 107h-301l-48 -107h-127zM344 477l-98 -261h210l-103 261h-9zM351 618q-44 0 -77 31q-34 34 -34 80q0 43 30 76q32 35 81 35q52 0 85 -38q27 -32 27 -73q0 -45 -35 -80q-33 -31 -77 -31zM351 679q20 0 36 14q15 15 15 36q0 19 -15 34
q-13 16 -36 16q-24 0 -37 -16q-14 -12 -14 -34q0 -19 15 -36q16 -14 36 -14z" />
    <glyph glyph-name="AE" unicode="&#xc6;" horiz-adv-x="992" 
d="M478 0v135h-232l-84 -135h-137l385 600h528v-109h-343v-122h305v-107h-305v-154h357v-108h-474zM468 490l-153 -246h163v246h-10z" />
    <glyph glyph-name="Ccedilla" unicode="&#xc7;" horiz-adv-x="622" 
d="M148 301q0 -88 54 -142q61 -61 143 -61q97 0 177 74l71 -79q-50 -50 -101.5 -74t-116.5 -29l-1 -25q29 -1 49 -21q21 -21 21 -55q0 -41 -30 -73q-38 -41 -122 -66l-22 58q39 16 62 39q16 16 16 38q0 11 -8 17t-19 6h-32v85q-103 19 -169 85q-91 86 -91 223q0 131 88 221
q89 89 228 89q77 0 135 -23.5t113 -77.5l-71 -81q-78 74 -177 74q-81 0 -139 -56q-58 -58 -58 -146z" />
    <glyph glyph-name="Egrave" unicode="&#xc8;" horiz-adv-x="574" 
d="M50 0v600h470v-110h-349v-122h312v-109h-312v-150h363v-109h-484zM247 875l87 -198l-79 -38l-102 189z" />
    <glyph glyph-name="Eacute" unicode="&#xc9;" horiz-adv-x="574" 
d="M50 0v600h470v-110h-349v-122h312v-109h-312v-150h363v-109h-484zM251 677l87 198l94 -47l-102 -189z" />
    <glyph glyph-name="Ecircumflex" unicode="&#xca;" horiz-adv-x="574" 
d="M50 0v600h470v-110h-349v-122h312v-109h-312v-150h363v-109h-484zM174 631l-54 58l139 138h47l139 -138l-54 -58l-108 89z" />
    <glyph glyph-name="Edieresis" unicode="&#xcb;" horiz-adv-x="574" 
d="M50 0v600h470v-110h-349v-122h312v-109h-312v-150h363v-109h-484zM319 714q0 30 19.5 50t49.5 20t51 -20.5t21 -49.5t-21 -50t-51 -21t-49.5 20.5t-19.5 50.5zM112 714q0 29 21 49.5t50 20.5t50 -20.5t21 -49.5t-21 -50t-50 -21t-50 21t-21 50z" />
    <glyph glyph-name="Igrave" unicode="&#xcc;" horiz-adv-x="217" 
d="M167 600v-600h-117v600h117zM78 875l87 -198l-79 -38l-102 189z" />
    <glyph glyph-name="Iacute" unicode="&#xcd;" horiz-adv-x="217" 
d="M167 600v-600h-117v600h117zM57 677l87 198l94 -47l-102 -189z" />
    <glyph glyph-name="Icircumflex" unicode="&#xce;" horiz-adv-x="217" 
d="M167 600v-600h-117v600h117zM1 631l-54 58l139 138h47l139 -138l-54 -58l-108 89z" />
    <glyph glyph-name="Idieresis" unicode="&#xcf;" horiz-adv-x="217" 
d="M167 600v-600h-117v600h117zM142 714q0 30 19.5 50t49.5 20t51 -20.5t21 -49.5t-21 -50t-51 -21t-49.5 20.5t-19.5 50.5zM-65 714q0 29 21 49.5t50 20.5t50 -20.5t21 -49.5t-21 -50t-50 -21t-50 21t-21 50z" />
    <glyph glyph-name="Eth" unicode="&#xd0;" horiz-adv-x="641" 
d="M2 347h48v253h251q137 0 225 -93q80 -82 80 -207q0 -131 -90 -219q-84 -81 -215 -81h-251v254h-48v93zM297 491h-130v-144h190v-93h-190v-146h130q86 0 138 52t52 140q0 87 -50 137q-54 54 -140 54z" />
    <glyph glyph-name="Ntilde" unicode="&#xd1;" horiz-adv-x="657" 
d="M491 600h116v-600h-108l-331 406v-406h-118v600h108l333 -408v408zM399 644q-37 0 -69 13q-37 15 -73 15q-38 0 -68 -24l-49 61q53 58 116 58q35 0 69 -14q41 -16 73 -16q34 0 68 24l48 -62q-51 -55 -115 -55z" />
    <glyph glyph-name="Ograve" unicode="&#xd2;" horiz-adv-x="693" 
d="M346 611q135 0 225 -88q92 -90 92 -223q0 -130 -86 -218q-90 -93 -231 -93q-145 0 -234 97q-39 40 -61 97t-22 117q0 125 84 214q91 97 233 97zM148 300q0 -81 54 -140q59 -62 144 -62q88 0 143 61q53 58 53 141q0 89 -52 146q-55 57 -144 57t-144 -60q-54 -57 -54 -143z
M290 875l87 -198l-79 -38l-102 189z" />
    <glyph glyph-name="Oacute" unicode="&#xd3;" horiz-adv-x="693" 
d="M346 611q135 0 225 -88q92 -90 92 -223q0 -130 -86 -218q-90 -93 -231 -93q-145 0 -234 97q-39 40 -61 97t-22 117q0 125 84 214q91 97 233 97zM148 300q0 -81 54 -140q59 -62 144 -62q88 0 143 61q53 58 53 141q0 89 -52 146q-55 57 -144 57t-144 -60q-54 -57 -54 -143z
M317 677l87 198l94 -47l-102 -189z" />
    <glyph glyph-name="Ocircumflex" unicode="&#xd4;" horiz-adv-x="693" 
d="M346 611q135 0 225 -88q92 -90 92 -223q0 -130 -86 -218q-90 -93 -231 -93q-145 0 -234 97q-39 40 -61 97t-22 117q0 125 84 214q91 97 233 97zM148 300q0 -81 54 -140q59 -62 144 -62q88 0 143 61q53 58 53 141q0 89 -52 146q-55 57 -144 57t-144 -60q-54 -57 -54 -143z
M237 631l-54 58l139 138h47l139 -138l-54 -58l-108 89z" />
    <glyph glyph-name="Otilde" unicode="&#xd5;" horiz-adv-x="693" 
d="M346 611q135 0 225 -88q92 -90 92 -223q0 -130 -86 -218q-90 -93 -231 -93q-145 0 -234 97q-39 40 -61 97t-22 117q0 125 84 214q91 97 233 97zM148 300q0 -81 54 -140q59 -62 144 -62q88 0 143 61q53 58 53 141q0 89 -52 146q-55 57 -144 57t-144 -60q-54 -57 -54 -143z
M418 644q-37 0 -69 13q-37 15 -73 15q-38 0 -68 -24l-49 61q53 58 116 58q35 0 69 -14q41 -16 73 -16q33 0 68 24l48 -62q-51 -55 -115 -55z" />
    <glyph glyph-name="Odieresis" unicode="&#xd6;" horiz-adv-x="693" 
d="M346 611q135 0 225 -88q92 -90 92 -223q0 -130 -86 -218q-90 -93 -231 -93q-145 0 -234 97q-39 40 -61 97t-22 117q0 125 84 214q91 97 233 97zM148 300q0 -81 54 -140q59 -62 144 -62q88 0 143 61q53 58 53 141q0 89 -52 146q-55 57 -144 57t-144 -60q-54 -57 -54 -143z
M378 714q0 30 19.5 50t49.5 20t51 -20.5t21 -49.5t-21 -50t-51 -21t-49.5 20.5t-19.5 50.5zM171 714q0 29 21 49.5t50 20.5t50 -20.5t21 -49.5t-21 -50t-50 -21t-50 21t-21 50z" />
    <glyph glyph-name="multiply" unicode="&#xd7;" horiz-adv-x="312" 
d="M24 185l77 77l-78 79l55 54l78 -79l78 80l55 -55l-79 -79l78 -78l-55 -55l-77 79l-78 -78z" />
    <glyph glyph-name="Oslash" unicode="&#xd8;" horiz-adv-x="693" 
d="M346 611q73 0 130 -25l30 42l87 -60l-28 -40q50 -50 74 -107q24 -62 24 -121q0 -130 -86 -218q-90 -93 -231 -93q-71 0 -135 27l-31 -44l-88 62l29 42q-34 33 -61 88q-31 70 -31 136q0 125 84 214q91 97 233 97zM542 300q0 36 -11 74q-10 31 -31 60l-224 -323
q37 -13 70 -13q88 0 143 61q53 58 53 141zM148 300q0 -72 42 -126l222 319q-29 10 -66 10q-89 0 -144 -60q-54 -57 -54 -143z" />
    <glyph glyph-name="Ugrave" unicode="&#xd9;" horiz-adv-x="628" 
d="M578 263q0 -124 -81 -202q-74 -71 -183 -71q-115 0 -189 74q-76 78 -76 199v337h121v-343q0 -74 42 -114q40 -43 102 -43q59 0 103 44q40 38 40 113v343h121v-337zM288 875l87 -198l-79 -38l-102 189z" />
    <glyph glyph-name="Uacute" unicode="&#xda;" horiz-adv-x="628" 
d="M578 263q0 -124 -81 -202q-74 -71 -183 -71q-115 0 -189 74q-76 78 -76 199v337h121v-343q0 -74 42 -114q40 -43 102 -43q59 0 103 44q40 38 40 113v343h121v-337zM264 677l87 198l94 -47l-102 -189z" />
    <glyph glyph-name="Ucircumflex" unicode="&#xdb;" horiz-adv-x="628" 
d="M578 263q0 -124 -81 -202q-74 -71 -183 -71q-115 0 -189 74q-76 78 -76 199v337h121v-343q0 -74 42 -114q40 -43 102 -43q59 0 103 44q40 38 40 113v343h121v-337zM204 631l-54 58l139 138h47l139 -138l-54 -58l-108 89z" />
    <glyph glyph-name="Udieresis" unicode="&#xdc;" horiz-adv-x="628" 
d="M578 263q0 -124 -81 -202q-74 -71 -183 -71q-115 0 -189 74q-76 78 -76 199v337h121v-343q0 -74 42 -114q40 -43 102 -43q59 0 103 44q40 38 40 113v343h121v-337zM346 714q0 30 19.5 50t49.5 20t51 -20.5t21 -49.5t-21 -50t-51 -21t-49.5 20.5t-19.5 50.5zM139 714
q0 29 21 49.5t50 20.5t50 -20.5t21 -49.5t-21 -50t-50 -21t-50 21t-21 50z" />
    <glyph glyph-name="Yacute" unicode="&#xdd;" horiz-adv-x="679" 
d="M399 0h-118v145l-259 455h138l175 -329h10l178 329h131l-255 -456v-144zM301 677l87 198l94 -47l-102 -189z" />
    <glyph glyph-name="Thorn" unicode="&#xde;" horiz-adv-x="589" 
d="M559 304q0 -88 -66 -154q-67 -64 -161 -64h-163v-86h-119v600h119v-74h163q108 0 176 -81q51 -64 51 -141zM335 193q48 0 78 35q27 38 27 76q0 46 -27 78q-30 36 -86 36h-158v-225h166z" />
    <glyph glyph-name="germandbls" unicode="&#xdf;" horiz-adv-x="609" 
d="M50 0v452q0 81 48 129q51 51 145 51q93 0 141 -52q37 -40 37 -104q0 -39 -12 -72q-66 -9 -85 -18q-21 -10 -21 -27q0 -13 16 -22q16 -7 35 -12l53 -12q93 -20 134 -65q34 -37 34 -100q0 -55 -41 -98q-55 -59 -167 -59q-99 0 -183 32l32 102q64 -25 150 -25q47 0 70 20
q16 13 16 31q0 19 -11 28q-10 10 -53 19l-63 13q-69 16 -101 46q-43 43 -43 93q0 55 40 93q26 26 85 47q-4 16 -17 26q-13 9 -44 11q-42 0 -61 -19q-17 -20 -17 -54v-454h-117z" />
    <glyph glyph-name="agrave" unicode="&#xe0;" horiz-adv-x="611" 
d="M247 500h117l222 -500h-131l-37 86h-228l-37 -86h-128zM300 362l-64 -168h134l-63 168h-7zM272 762l71 -177l-81 -38l-91 164z" />
    <glyph glyph-name="aacute" unicode="&#xe1;" horiz-adv-x="611" 
d="M247 500h117l222 -500h-131l-37 86h-228l-37 -86h-128zM300 362l-64 -168h134l-63 168h-7zM281 585l71 177l101 -51l-91 -164z" />
    <glyph glyph-name="acircumflex" unicode="&#xe2;" horiz-adv-x="611" 
d="M247 500h117l222 -500h-131l-37 86h-228l-37 -86h-128zM300 362l-64 -168h134l-63 168h-7zM458 597l-55 -61l-97 81l-96 -81l-57 61l130 129h46z" />
    <glyph glyph-name="atilde" unicode="&#xe3;" horiz-adv-x="611" 
d="M247 500h117l222 -500h-131l-37 86h-228l-37 -86h-128zM300 362l-64 -168h134l-63 168h-7zM375 557q-32 0 -68 12q-37 15 -71 15q-40 0 -66 -21l-48 58q48 54 112 54q34 0 68 -14q34 -15 71 -15q39 0 67 23l46 -60q-46 -52 -111 -52z" />
    <glyph glyph-name="adieresis" unicode="&#xe4;" horiz-adv-x="611" 
d="M247 500h117l222 -500h-131l-37 86h-228l-37 -86h-128zM300 362l-64 -168h134l-63 168h-7zM336 611q0 28 19 47.5t48 19.5q28 0 47.5 -19.5t19.5 -47.5t-19.5 -47.5t-47.5 -19.5q-29 0 -48 19.5t-19 47.5zM140 611q0 28 19.5 47.5t47.5 19.5t47.5 -19.5t19.5 -47.5
t-19.5 -47.5t-47.5 -19.5t-47.5 19.5t-19.5 47.5z" />
    <glyph glyph-name="aring" unicode="&#xe5;" horiz-adv-x="611" 
d="M247 500h117l222 -500h-131l-37 86h-228l-37 -86h-128zM300 362l-64 -168h134l-63 168h-7zM306 532q-44 0 -73 29q-31 28 -31 74q0 42 31 73t73 31q43 0 75 -35q27 -28 27 -69q0 -46 -32 -75q-28 -28 -70 -28zM306 602q12 0 23 10q10 10 10 23q0 14 -10 24q-10 8 -23 8
q-14 0 -23 -9q-10 -9 -10 -23q0 -12 11 -23q10 -10 22 -10z" />
    <glyph glyph-name="ae" unicode="&#xe6;" horiz-adv-x="860" 
d="M418 0v89h-199l-52 -89h-142l302 500h483v-108h-272v-76h241v-108h-241v-101h282v-107h-402zM389 393l-108 -197h137v197h-29z" />
    <glyph glyph-name="ccedilla" unicode="&#xe7;" horiz-adv-x="552" 
d="M156 251q0 -66 41 -107q42 -45 108 -45q72 0 140 62l74 -78q-91 -91 -203 -92l-1 -22q34 0 52 -22q14 -17 14 -40q0 -44 -30 -76q-40 -40 -101 -57l-21 53q35 14 49 31q10 16 10 30q0 10 -9 16q-7 6 -19 6h-24v88q-90 18 -144 84q-58 71 -58 169q0 116 86 192
q78 66 185 66q64 0 114 -21t100 -71l-76 -77q-34 35 -65.5 48t-72.5 13q-71 0 -109 -41q-40 -43 -40 -109z" />
    <glyph glyph-name="egrave" unicode="&#xe8;" horiz-adv-x="502" 
d="M50 0v500h403v-108h-283v-86h253v-107h-253v-92h292v-107h-412zM252 762l71 -177l-81 -38l-91 164z" />
    <glyph glyph-name="eacute" unicode="&#xe9;" horiz-adv-x="502" 
d="M50 0v500h403v-108h-283v-86h253v-107h-253v-92h292v-107h-412zM195 585l71 177l101 -51l-91 -164z" />
    <glyph glyph-name="ecircumflex" unicode="&#xea;" horiz-adv-x="502" 
d="M50 0v500h403v-108h-283v-86h253v-107h-253v-92h292v-107h-412zM401 597l-55 -61l-97 81l-96 -81l-57 61l130 129h46z" />
    <glyph glyph-name="edieresis" unicode="&#xeb;" horiz-adv-x="502" 
d="M50 0v500h403v-108h-283v-86h253v-107h-253v-92h292v-107h-412zM283 611q0 28 19 47.5t48 19.5q28 0 47.5 -19.5t19.5 -47.5t-19.5 -47.5t-47.5 -19.5q-29 0 -48 19.5t-19 47.5zM87 611q0 28 19.5 47.5t47.5 19.5t47.5 -19.5t19.5 -47.5t-19.5 -47.5t-47.5 -19.5
t-47.5 19.5t-19.5 47.5z" />
    <glyph glyph-name="igrave" unicode="&#xec;" horiz-adv-x="222" 
d="M50 500h122v-500h-122v500zM103 762l71 -177l-81 -38l-91 164z" />
    <glyph glyph-name="iacute" unicode="&#xed;" horiz-adv-x="222" 
d="M50 500h122v-500h-122v500zM55 585l71 177l101 -51l-91 -164z" />
    <glyph glyph-name="icircumflex" unicode="&#xee;" horiz-adv-x="222" 
d="M50 500h122v-500h-122v500zM265 597l-55 -61l-97 81l-96 -81l-57 61l130 129h46z" />
    <glyph glyph-name="idieresis" unicode="&#xef;" horiz-adv-x="222" 
d="M50 500h122v-500h-122v500zM144 611q0 28 19 47.5t48 19.5q28 0 47.5 -19.5t19.5 -47.5t-19.5 -47.5t-47.5 -19.5q-29 0 -48 19.5t-19 47.5zM-52 611q0 28 19.5 47.5t47.5 19.5t47.5 -19.5t19.5 -47.5t-19.5 -47.5t-47.5 -19.5t-47.5 19.5t-19.5 47.5z" />
    <glyph glyph-name="eth" unicode="&#xf0;" horiz-adv-x="554" 
d="M7 210v88h43v202h214q112 0 184 -72q71 -71 71 -178q0 -108 -71 -179q-73 -71 -184 -71h-214v210h-43zM260 392h-90v-94h124v-88h-124v-103h90q65 0 103 43q36 36 36 100q0 63 -37 102q-38 40 -102 40z" />
    <glyph glyph-name="ntilde" unicode="&#xf1;" horiz-adv-x="575" 
d="M408 500h117v-500h-107l-250 302v-302h-118v500h107l251 -301v301zM355 557q-32 0 -68 12q-37 15 -71 15q-40 0 -66 -21l-48 58q48 54 112 54q34 0 68 -14q34 -15 71 -15q39 0 67 23l46 -60q-46 -52 -111 -52z" />
    <glyph glyph-name="ograve" unicode="&#xf2;" 
d="M296 509q116 0 192 -78q73 -73 73 -181q0 -114 -78 -187q-75 -72 -187 -72q-117 0 -191 74q-76 76 -76 185q0 111 82 188q76 71 185 71zM150 250q0 -69 42 -108q41 -44 104 -44q60 0 101 41q43 38 43 111q0 71 -43 112q-43 40 -101 40q-64 0 -105 -44q-41 -39 -41 -108z
M254 762l71 -177l-81 -38l-91 164z" />
    <glyph glyph-name="oacute" unicode="&#xf3;" 
d="M296 509q116 0 192 -78q73 -73 73 -181q0 -114 -78 -187q-75 -72 -187 -72q-117 0 -191 74q-76 76 -76 185q0 111 82 188q76 71 185 71zM150 250q0 -69 42 -108q41 -44 104 -44q60 0 101 41q43 38 43 111q0 71 -43 112q-43 40 -101 40q-64 0 -105 -44q-41 -39 -41 -108z
M262 585l71 177l101 -51l-91 -164z" />
    <glyph glyph-name="ocircumflex" unicode="&#xf4;" 
d="M296 509q116 0 192 -78q73 -73 73 -181q0 -114 -78 -187q-75 -72 -187 -72q-117 0 -191 74q-76 76 -76 185q0 111 82 188q76 71 185 71zM150 250q0 -69 42 -108q41 -44 104 -44q60 0 101 41q43 38 43 111q0 71 -43 112q-43 40 -101 40q-64 0 -105 -44q-41 -39 -41 -108z
M448 597l-55 -61l-97 81l-96 -81l-57 61l130 129h46z" />
    <glyph glyph-name="otilde" unicode="&#xf5;" 
d="M296 509q116 0 192 -78q73 -73 73 -181q0 -114 -78 -187q-75 -72 -187 -72q-117 0 -191 74q-76 76 -76 185q0 111 82 188q76 71 185 71zM150 250q0 -69 42 -108q41 -44 104 -44q60 0 101 41q43 38 43 111q0 71 -43 112q-43 40 -101 40q-64 0 -105 -44q-41 -39 -41 -108z
M366 557q-32 0 -68 12q-37 15 -71 15q-40 0 -66 -21l-48 58q48 54 112 54q34 0 68 -14q34 -15 71 -15q39 0 67 23l46 -60q-46 -52 -111 -52z" />
    <glyph glyph-name="odieresis" unicode="&#xf6;" 
d="M296 509q116 0 192 -78q73 -73 73 -181q0 -114 -78 -187q-75 -72 -187 -72q-117 0 -191 74q-76 76 -76 185q0 111 82 188q76 71 185 71zM150 250q0 -69 42 -108q41 -44 104 -44q60 0 101 41q43 38 43 111q0 71 -43 112q-43 40 -101 40q-64 0 -105 -44q-41 -39 -41 -108z
M326 611q0 28 19 47.5t48 19.5q28 0 47.5 -19.5t19.5 -47.5t-19.5 -47.5t-47.5 -19.5q-29 0 -48 19.5t-19 47.5zM130 611q0 28 19.5 47.5t47.5 19.5t47.5 -19.5t19.5 -47.5t-19.5 -47.5t-47.5 -19.5t-47.5 19.5t-19.5 47.5z" />
    <glyph glyph-name="divide" unicode="&#xf7;" horiz-adv-x="340" 
d="M17 305h309v-96h-309v96zM94 403q0 32 20 52t54 20q35 0 55 -19.5t20 -52.5q0 -31 -20.5 -51.5t-54.5 -20.5q-33 0 -53.5 20.5t-20.5 51.5zM94 102q0 32 20 52t54 20q35 0 55 -19.5t20 -52.5q0 -32 -20.5 -52t-54.5 -20q-33 0 -53.5 20.5t-20.5 51.5z" />
    <glyph glyph-name="oslash" unicode="&#xf8;" 
d="M296 509q76 0 134 -34l30 35l69 -56l-30 -35q36 -41 52 -91q10 -34 10 -78q0 -114 -78 -187q-75 -72 -187 -72q-73 0 -132 32l-29 -35l-70 58l26 32q-29 35 -44 76q-17 48 -17 96q0 113 81 189q75 70 185 70zM150 250q0 -24 5 -43q6 -27 12 -38l190 220q-31 13 -61 13
q-64 0 -105 -44q-41 -39 -41 -108zM437 288q-4 22 -12 40l-189 -218q33 -12 60 -12q60 0 101 41q43 38 43 111q0 25 -3 38z" />
    <glyph glyph-name="ugrave" unicode="&#xf9;" horiz-adv-x="547" 
d="M497 216q0 -102 -68 -165q-62 -59 -154 -59q-99 0 -161 64q-64 66 -64 160v284h120v-289q0 -51 29 -80q28 -31 76 -31q45 0 74 30q28 31 28 81v289h120v-284zM253 762l71 -177l-81 -38l-91 164z" />
    <glyph glyph-name="uacute" unicode="&#xfa;" horiz-adv-x="547" 
d="M497 216q0 -102 -68 -165q-62 -59 -154 -59q-99 0 -161 64q-64 66 -64 160v284h120v-289q0 -51 29 -80q28 -31 76 -31q45 0 74 30q28 31 28 81v289h120v-284zM225 585l71 177l101 -51l-91 -164z" />
    <glyph glyph-name="ucircumflex" unicode="&#xfb;" horiz-adv-x="547" 
d="M497 216q0 -102 -68 -165q-62 -59 -154 -59q-99 0 -161 64q-64 66 -64 160v284h120v-289q0 -51 29 -80q28 -31 76 -31q45 0 74 30q28 31 28 81v289h120v-284zM426 597l-55 -61l-97 81l-96 -81l-57 61l130 129h46z" />
    <glyph glyph-name="udieresis" unicode="&#xfc;" horiz-adv-x="547" 
d="M497 216q0 -102 -68 -165q-62 -59 -154 -59q-99 0 -161 64q-64 66 -64 160v284h120v-289q0 -51 29 -80q28 -31 76 -31q45 0 74 30q28 31 28 81v289h120v-284zM305 611q0 28 19 47.5t48 19.5q28 0 47.5 -19.5t19.5 -47.5t-19.5 -47.5t-47.5 -19.5q-29 0 -48 19.5t-19 47.5
zM109 611q0 28 19.5 47.5t47.5 19.5t47.5 -19.5t19.5 -47.5t-19.5 -47.5t-47.5 -19.5t-47.5 19.5t-19.5 47.5z" />
    <glyph glyph-name="yacute" unicode="&#xfd;" horiz-adv-x="592" 
d="M356 0h-120v121l-211 379h136l135 -260h6l131 260h134l-211 -380v-120zM258 585l71 177l101 -51l-91 -164z" />
    <glyph glyph-name="thorn" unicode="&#xfe;" horiz-adv-x="514" 
d="M484 256q0 -73 -51 -126q-58 -61 -153 -61h-110v-69h-120v500h120v-56h110q92 0 152 -60q52 -52 52 -128zM283 176q43 0 61 24q20 23 20 56q0 32 -18 54q-23 25 -69 25h-107v-159h113z" />
    <glyph glyph-name="ydieresis" unicode="&#xff;" horiz-adv-x="592" 
d="M356 0h-120v121l-211 379h136l135 -260h6l131 260h134l-211 -380v-120zM327 611q0 28 19 47.5t48 19.5q28 0 47.5 -19.5t19.5 -47.5t-19.5 -47.5t-47.5 -19.5q-29 0 -48 19.5t-19 47.5zM131 611q0 28 19.5 47.5t47.5 19.5t47.5 -19.5t19.5 -47.5t-19.5 -47.5t-47.5 -19.5
t-47.5 19.5t-19.5 47.5z" />
    <glyph glyph-name="Amacron" unicode="&#x100;" horiz-adv-x="704" 
d="M291 600h122l266 -600h-129l-49 107h-301l-48 -107h-127zM344 477l-98 -261h210l-103 261h-9zM185 740h332v-90h-332v90z" />
    <glyph glyph-name="amacron" unicode="&#x101;" horiz-adv-x="611" 
d="M247 500h117l222 -500h-131l-37 86h-228l-37 -86h-128zM300 362l-64 -168h134l-63 168h-7zM161 639h287v-84h-287v84z" />
    <glyph glyph-name="Abreve" unicode="&#x102;" horiz-adv-x="704" 
d="M291 600h122l266 -600h-129l-49 107h-301l-48 -107h-127zM344 477l-98 -261h210l-103 261h-9zM425 785l81 -42q-15 -38 -58 -70q-42 -31 -98 -31q-54 0 -94 31q-44 30 -59 70l81 42q12 -20 25 -32q19 -19 48 -19q27 0 47 16q16 12 27 35z" />
    <glyph glyph-name="abreve" unicode="&#x103;" horiz-adv-x="611" 
d="M247 500h117l222 -500h-131l-37 86h-228l-37 -86h-128zM300 362l-64 -168h134l-63 168h-7zM303 542q-55 0 -94 28q-41 29 -59 71l85 42q9 -16 20 -28q19 -19 50 -19q30 0 49 19q11 11 21 28l84 -42q-16 -41 -56 -69q-43 -30 -100 -30z" />
    <glyph glyph-name="Aogonek" unicode="&#x104;" horiz-adv-x="704" 
d="M291 600h122l266 -600q-19 0 -26 -16q-7 -12 -7 -37q0 -26 19 -54q25 -33 49 -47l-30 -48q-58 17 -87 41q-45 35 -45 88q0 35 14 54l-62 126h-307l-48 -107h-124zM344 477l-101 -261h216l-106 261h-9z" />
    <glyph glyph-name="aogonek" unicode="&#x105;" horiz-adv-x="611" 
d="M247 500h117l222 -500q-19 -4 -30 -20q-9 -12 -9 -25q0 -28 17 -45q16 -18 47 -31l-24 -50q-66 15 -93 43q-26 28 -26 63q0 39 33 65h-46l-37 86h-228l-37 -86h-128zM301 362l-65 -168h134l-64 168h-5z" />
    <glyph glyph-name="Cacute" unicode="&#x106;" horiz-adv-x="622" 
d="M148 301q0 -89 54 -143q60 -60 143 -60q93 0 176 76l71 -79q-56 -57 -113 -81.5t-134 -24.5q-138 0 -226 86q-90 88 -90 226q0 130 88 220q90 90 228 90q77 0 133.5 -23.5t113.5 -78.5l-71 -81q-81 75 -176 75q-80 0 -138 -56q-59 -59 -59 -146zM313 677l87 198l94 -47
l-102 -189z" />
    <glyph glyph-name="cacute" unicode="&#x107;" horiz-adv-x="552" 
d="M156 251q0 -66 41 -107q42 -45 108 -45q72 0 140 62l74 -78q-51 -49 -100 -70.5t-114 -21.5q-136 0 -213 91q-58 71 -58 169q0 116 86 192q78 66 185 66q64 0 114 -21t100 -71l-76 -77q-34 35 -65.5 48t-72.5 13q-71 0 -109 -41q-40 -43 -40 -109zM260 585l71 177
l101 -51l-91 -164z" />
    <glyph glyph-name="Ccircumflex" unicode="&#x108;" horiz-adv-x="622" 
d="M148 301q0 -89 54 -143q60 -60 143 -60q93 0 176 76l71 -79q-56 -57 -113 -81.5t-134 -24.5q-138 0 -226 86q-90 88 -90 226q0 130 88 220q90 90 228 90q77 0 133.5 -23.5t113.5 -78.5l-71 -81q-81 75 -176 75q-80 0 -138 -56q-59 -59 -59 -146zM236 631l-54 58l139 138
h47l139 -138l-54 -58l-108 89z" />
    <glyph glyph-name="ccircumflex" unicode="&#x109;" horiz-adv-x="552" 
d="M156 251q0 -66 41 -107q42 -45 108 -45q72 0 140 62l74 -78q-51 -49 -100 -70.5t-114 -21.5q-136 0 -213 91q-58 71 -58 169q0 116 86 192q78 66 185 66q64 0 114 -21t100 -71l-76 -77q-34 35 -65.5 48t-72.5 13q-71 0 -109 -41q-40 -43 -40 -109zM457 597l-55 -61
l-97 81l-96 -81l-57 61l130 129h46z" />
    <glyph glyph-name="Cdotaccent" unicode="&#x10a;" horiz-adv-x="622" 
d="M148 301q0 -89 54 -143q60 -60 143 -60q93 0 176 76l71 -79q-56 -57 -113 -81.5t-134 -24.5q-138 0 -226 86q-90 88 -90 226q0 130 88 220q90 90 228 90q77 0 133.5 -23.5t113.5 -78.5l-71 -81q-81 75 -176 75q-80 0 -138 -56q-59 -59 -59 -146zM272 715q0 32 22 53
t53 21t51.5 -20.5t20.5 -53.5q0 -32 -20.5 -51.5t-51.5 -19.5q-32 0 -53.5 19.5t-21.5 51.5z" />
    <glyph glyph-name="cdotaccent" unicode="&#x10b;" horiz-adv-x="552" 
d="M156 251q0 -66 41 -107q42 -45 108 -45q72 0 140 62l74 -78q-51 -49 -100 -70.5t-114 -21.5q-136 0 -213 91q-58 71 -58 169q0 116 86 192q78 66 185 66q64 0 114 -21t100 -71l-76 -77q-34 35 -65.5 48t-72.5 13q-71 0 -109 -41q-40 -43 -40 -109zM238 627q0 29 20 49
t48 20q29 0 49 -20t20 -49q0 -28 -20 -48t-49 -20q-28 0 -48 20t-20 48z" />
    <glyph glyph-name="Ccaron" unicode="&#x10c;" horiz-adv-x="622" 
d="M148 301q0 -89 54 -143q60 -60 143 -60q93 0 176 76l71 -79q-56 -57 -113 -81.5t-134 -24.5q-138 0 -226 86q-90 88 -90 226q0 130 88 220q90 90 228 90q77 0 133.5 -23.5t113.5 -78.5l-71 -81q-81 75 -176 75q-80 0 -138 -56q-59 -59 -59 -146zM185 777l55 58l108 -89
l108 89l54 -58l-139 -139h-47z" />
    <glyph glyph-name="ccaron" unicode="&#x10d;" horiz-adv-x="552" 
d="M156 251q0 -66 41 -107q42 -45 108 -45q72 0 140 62l74 -78q-51 -49 -100 -70.5t-114 -21.5q-136 0 -213 91q-58 71 -58 169q0 116 86 192q78 66 185 66q64 0 114 -21t100 -71l-76 -77q-34 35 -65.5 48t-72.5 13q-71 0 -109 -41q-40 -43 -40 -109zM146 666l55 60l97 -80
l95 80l58 -60l-130 -130h-47z" />
    <glyph glyph-name="Dcaron" unicode="&#x10e;" horiz-adv-x="641" 
d="M50 600h241q147 0 235 -93q80 -82 80 -207q0 -131 -90 -219q-84 -81 -225 -81h-241v600zM287 491h-120v-383h120q96 0 148 52t52 140q0 87 -50 137q-54 54 -150 54zM126 777l55 58l108 -89l108 89l54 -58l-139 -139h-47z" />
    <glyph glyph-name="dcaron" unicode="&#x10f;" horiz-adv-x="554" 
d="M50 500h204q122 0 194 -72q71 -71 71 -178q0 -108 -71 -179q-73 -71 -194 -71h-204v500zM250 392h-80v-285h80q75 0 113 43q36 36 36 100q0 63 -37 102q-38 40 -112 40zM106 666l55 60l97 -80l95 80l58 -60l-130 -130h-47z" />
    <glyph glyph-name="Dcroat" unicode="&#x110;" horiz-adv-x="641" 
d="M2 347h48v253h251q137 0 225 -93q80 -82 80 -207q0 -131 -90 -219q-84 -81 -215 -81h-251v254h-48v93zM297 491h-130v-144h190v-93h-190v-146h130q86 0 138 52t52 140q0 87 -50 137q-54 54 -140 54z" />
    <glyph glyph-name="dslash" unicode="&#x111;" horiz-adv-x="554" 
d="M7 210v88h43v202h214q112 0 184 -72q71 -71 71 -178q0 -108 -71 -179q-73 -71 -184 -71h-214v210h-43zM260 392h-90v-94h124v-88h-124v-103h90q65 0 103 43q36 36 36 100q0 63 -37 102q-38 40 -102 40z" />
    <glyph glyph-name="Emacron" unicode="&#x112;" horiz-adv-x="574" 
d="M50 0v600h470v-110h-349v-122h312v-109h-312v-150h363v-109h-484zM121 740h332v-90h-332v90z" />
    <glyph glyph-name="emacron" unicode="&#x113;" horiz-adv-x="502" 
d="M50 0v500h403v-108h-283v-86h253v-107h-253v-92h292v-107h-412zM108 639h287v-84h-287v84z" />
    <glyph glyph-name="Ebreve" unicode="&#x114;" horiz-adv-x="574" 
d="M50 0v600h470v-110h-349v-122h312v-109h-312v-150h363v-109h-484zM359 785l81 -42q-15 -38 -58 -70q-42 -31 -98 -31q-54 0 -94 31q-44 30 -59 70l81 42q12 -20 25 -32q19 -19 48 -19q27 0 47 16q16 12 27 35z" />
    <glyph glyph-name="ebreve" unicode="&#x115;" horiz-adv-x="502" 
d="M50 0v500h403v-108h-283v-86h253v-107h-253v-92h292v-107h-412zM268 542q-55 0 -94 28q-41 29 -59 71l85 42q9 -16 20 -28q19 -19 50 -19q30 0 49 19q11 11 21 28l84 -42q-16 -41 -56 -69q-43 -30 -100 -30z" />
    <glyph glyph-name="Edotaccent" unicode="&#x116;" horiz-adv-x="574" 
d="M50 0v600h470v-110h-349v-122h312v-109h-312v-150h363v-109h-484zM219 712q0 29 20 49t48 20q29 0 49 -20t20 -49q0 -28 -20 -48t-49 -20q-28 0 -48 20t-20 48z" />
    <glyph glyph-name="edotaccent" unicode="&#x117;" horiz-adv-x="502" 
d="M50 0v500h403v-108h-283v-86h253v-107h-253v-92h292v-107h-412zM180 622q0 29 20 49t48 20q29 0 49 -20t20 -49q0 -28 -20 -48t-49 -20q-28 0 -48 20t-20 48z" />
    <glyph glyph-name="Eogonek" unicode="&#x118;" horiz-adv-x="574" 
d="M50 0v600h470v-110h-349v-122h312v-109h-312v-150h363v-109q-17 0 -31 -18q-13 -19 -13 -43q0 -25 18 -50q17 -26 45 -43l-30 -53q-58 20 -86 48q-36 36 -36 87q0 44 40 72h-391z" />
    <glyph glyph-name="eogonek" unicode="&#x119;" horiz-adv-x="502" 
d="M50 0v500h403v-108h-283v-86h253v-107h-253v-92h292v-107q-21 -1 -32 -11q-13 -10 -15 -34q0 -22 14 -39q17 -23 47 -37l-26 -50q-58 13 -85 42q-29 26 -29 69q0 39 33 60h-319z" />
    <glyph glyph-name="Ecaron" unicode="&#x11a;" horiz-adv-x="574" 
d="M50 0v600h470v-110h-349v-122h312v-109h-312v-150h363v-109h-484zM122 777l55 58l108 -89l108 89l54 -58l-139 -139h-47z" />
    <glyph glyph-name="ecaron" unicode="&#x11b;" horiz-adv-x="502" 
d="M50 0v500h403v-108h-283v-86h253v-107h-253v-92h292v-107h-412zM117 666l55 60l97 -80l95 80l58 -60l-130 -130h-47z" />
    <glyph glyph-name="Gcircumflex" unicode="&#x11c;" horiz-adv-x="650" 
d="M598 353v-346l-81 -12l-13 34q-65 -40 -154 -40q-160 0 -245 97q-74 82 -74 215q0 138 92 225q88 85 229 85q149 0 243 -105l-78 -78q-39 40 -77 57.5t-88 17.5q-93 0 -147 -60q-50 -55 -50 -142q0 -94 57 -149q56 -53 138 -53q76 0 129 36v107l-151 9v102h270zM249 631
l-54 58l139 138h47l139 -138l-54 -58l-108 89z" />
    <glyph glyph-name="gcircumflex" unicode="&#x11d;" horiz-adv-x="567" 
d="M511 300v-290l-70 -16l-23 30q-46 -33 -122 -33q-112 0 -185 70q-76 73 -76 190q0 113 77 185q76 73 191 73q126 0 213 -93l-78 -77q-35 36 -65 49t-70 13q-65 0 -104 -42q-43 -40 -43 -108t42 -110q40 -42 103 -42q48 0 90 25v71l-119 5v100h239zM455 597l-55 -61
l-97 81l-96 -81l-57 61l130 129h46z" />
    <glyph glyph-name="Gbreve" unicode="&#x11e;" horiz-adv-x="650" 
d="M598 353v-346l-81 -12l-13 34q-65 -40 -154 -40q-160 0 -245 97q-74 82 -74 215q0 138 92 225q88 85 229 85q149 0 243 -105l-78 -78q-39 40 -77 57.5t-88 17.5q-93 0 -147 -60q-50 -55 -50 -142q0 -94 57 -149q56 -53 138 -53q76 0 129 36v107l-151 9v102h270zM426 785
l81 -42q-15 -38 -58 -70q-42 -31 -98 -31q-54 0 -94 31q-44 30 -59 70l81 42q12 -20 25 -32q19 -19 48 -19q27 0 47 16q16 12 27 35z" />
    <glyph glyph-name="gbreve" unicode="&#x11f;" horiz-adv-x="567" 
d="M511 300v-290l-70 -16l-23 30q-46 -33 -122 -33q-112 0 -185 70q-76 73 -76 190q0 113 77 185q76 73 191 73q126 0 213 -93l-78 -77q-35 36 -65 49t-70 13q-65 0 -104 -42q-43 -40 -43 -108t42 -110q40 -42 103 -42q48 0 90 25v71l-119 5v100h239zM303 542q-55 0 -94 28
q-41 29 -59 71l85 42q9 -16 20 -28q19 -19 50 -19q30 0 49 19q11 11 21 28l84 -42q-16 -41 -56 -69q-43 -30 -100 -30z" />
    <glyph glyph-name="Gdotaccent" unicode="&#x120;" horiz-adv-x="650" 
d="M598 353v-346l-81 -12l-13 34q-65 -40 -154 -40q-160 0 -245 97q-74 82 -74 215q0 138 92 225q88 85 229 85q149 0 243 -105l-78 -78q-39 40 -77 57.5t-88 17.5q-93 0 -147 -60q-50 -55 -50 -142q0 -94 57 -149q56 -53 138 -53q76 0 129 36v107l-151 9v102h270zM283 722
q0 32 22 53t53 21q30 0 51 -21t21 -53t-20.5 -51.5t-51.5 -19.5q-32 0 -53.5 19.5t-21.5 51.5z" />
    <glyph glyph-name="gdotaccent" unicode="&#x121;" horiz-adv-x="567" 
d="M511 300v-290l-70 -16l-23 30q-46 -33 -122 -33q-112 0 -185 70q-76 73 -76 190q0 113 77 185q76 73 191 73q126 0 213 -93l-78 -77q-35 36 -65 49t-70 13q-65 0 -104 -42q-43 -40 -43 -108t42 -110q40 -42 103 -42q48 0 90 25v71l-119 5v100h239zM232 623q0 29 20 49
t48 20q29 0 49 -20t20 -49q0 -28 -20 -48t-49 -20q-28 0 -48 20t-20 48z" />
    <glyph glyph-name="Gcommaaccent" unicode="&#x122;" horiz-adv-x="650" 
d="M598 353v-346l-81 -12l-13 34q-65 -40 -154 -40q-160 0 -245 97q-74 82 -74 215q0 138 92 225q88 85 229 85q149 0 243 -105l-78 -78q-39 40 -77 57.5t-88 17.5q-93 0 -147 -60q-50 -55 -50 -142q0 -94 57 -149q56 -53 138 -53q76 0 129 36v107l-151 9v102h270zM351 -38
q31 0 49 -18t18 -45q0 -13 -8 -37l-35 -108l-49 6l4 78q-43 13 -43 61q0 27 17 45t47 18z" />
    <glyph glyph-name="gcommaaccent" unicode="&#x123;" horiz-adv-x="567" 
d="M511 300v-290l-70 -16l-23 30q-46 -33 -122 -33q-112 0 -185 70q-76 73 -76 190q0 113 77 185q76 73 191 73q126 0 213 -93l-78 -77q-35 36 -65 49t-70 13q-65 0 -104 -42q-43 -40 -43 -108t42 -110q40 -42 103 -42q48 0 90 25v71l-119 5v100h239zM306 -29q28 0 44.5 -16
t16.5 -41q0 -12 -6 -28l-40 -103l-58 16l11 62q-28 15 -28 53q0 25 16 41t44 16z" />
    <glyph glyph-name="Hcircumflex" unicode="&#x124;" horiz-adv-x="631" 
d="M463 600h118v-600h-118v265h-293v-265h-120v600h120v-228h293v228zM206 631l-54 58l139 138h47l139 -138l-54 -58l-108 89z" />
    <glyph glyph-name="hcircumflex" unicode="&#x125;" horiz-adv-x="552" 
d="M382 500h120v-500h-120v211h-212v-211h-120v500h120v-181h212v181zM428 597l-55 -61l-97 81l-96 -81l-57 61l130 129h46z" />
    <glyph glyph-name="Hbar" unicode="&#x126;" horiz-adv-x="631" 
d="M465 600h116v-75h32v-91h-32v-434h-116v265h-298v-265h-117v434h-31v91h31v75h117v-75h298v75zM167 371h298v63h-298v-63z" />
    <glyph glyph-name="hbar" unicode="&#x127;" horiz-adv-x="552" 
d="M382 500h120v-52h39v-83h-39v-365h-120v211h-212v-211h-120v365h-39v83h39v52h120v-52h212v52zM170 319h212v46h-212v-46z" />
    <glyph glyph-name="Itilde" unicode="&#x128;" horiz-adv-x="217" 
d="M167 600v-600h-117v600h117zM181 644q-37 0 -69 13q-37 15 -73 15q-38 0 -68 -24l-49 61q53 58 116 58q35 0 69 -14q41 -16 73 -16q34 0 68 24l48 -62q-51 -55 -115 -55z" />
    <glyph glyph-name="itilde" unicode="&#x129;" horiz-adv-x="222" 
d="M50 500h122v-500h-122v500zM183 557q-32 0 -68 12q-37 15 -71 15q-40 0 -66 -21l-48 58q48 54 112 54q34 0 68 -14q34 -15 71 -15q39 0 67 23l46 -60q-46 -52 -111 -52z" />
    <glyph glyph-name="imacron" unicode="&#x12b;" horiz-adv-x="222" 
d="M50 500h122v-500h-122v500zM-31 639h287v-84h-287v84z" />
    <glyph glyph-name="Ibreve" unicode="&#x12c;" horiz-adv-x="217" 
d="M167 600v-600h-117v600h117zM183 785l81 -42q-15 -38 -58 -70q-42 -31 -98 -31q-54 0 -94 31q-44 30 -59 70l81 42q12 -20 25 -32q19 -19 48 -19q27 0 47 16q16 12 27 35z" />
    <glyph glyph-name="Iogonek" unicode="&#x12e;" horiz-adv-x="217" 
d="M167 600v-600q-19 -3 -27 -17q-7 -13 -7 -33q0 -32 21 -61q17 -26 44 -43l-29 -48q-57 19 -88 51q-30 32 -30 78t33 73h-34v600h117z" />
    <glyph glyph-name="iogonek" unicode="&#x12f;" horiz-adv-x="222" 
d="M50 500h122v-500q-20 -2 -32 -12q-13 -10 -13 -33q0 -27 19 -48q12 -13 42 -28l-26 -50q-58 13 -85 42q-29 26 -29 69q0 39 29 60h-27v500z" />
    <glyph glyph-name="Idot" unicode="&#x130;" horiz-adv-x="217" 
d="M167 600v-600h-117v600h117zM36 722q0 32 22 53t53 21t51.5 -21t20.5 -53t-20.5 -51.5t-51.5 -19.5q-32 0 -53.5 19.5t-21.5 51.5z" />
    <glyph glyph-name="Jcircumflex" unicode="&#x134;" horiz-adv-x="541" 
d="M376 600h120v-340q0 -130 -71 -200q-73 -71 -194 -71q-129 0 -216 93l71 82q62 -62 140 -62q74 0 111 37q39 39 39 110v351zM348 631l-54 58l139 138h47l139 -138l-54 -58l-108 89z" />
    <glyph glyph-name="jcircumflex" unicode="&#x135;" horiz-adv-x="473" 
d="M307 500h121v-281q0 -112 -63 -172q-61 -56 -162 -56q-118 0 -188 87l74 75q49 -52 115 -52q48 0 77 33q26 31 26 79v287zM516 597l-55 -61l-97 81l-96 -81l-57 61l130 129h46z" />
    <glyph glyph-name="Kcommaaccent" unicode="&#x136;" horiz-adv-x="608" 
d="M50 600h120v-226h110l155 226h140l-192 -275l205 -325h-138l-168 267h-112v-267h-120v600zM277 15q31 0 49 -18t18 -45q0 -13 -8 -37l-35 -108l-49 6l4 78q-43 13 -43 61q0 27 17 45t47 18z" />
    <glyph glyph-name="kcommaaccent" unicode="&#x137;" horiz-adv-x="547" 
d="M50 500h120v-185h73l130 185h143l-170 -235l179 -265h-146l-132 206h-77v-206h-120v500zM274 20q31 0 48 -17t17 -45q0 -13 -5 -30l-46 -110l-51 13l16 68q-21 4 -32 20t-11 39q0 27 18 44.5t46 17.5z" />
    <glyph glyph-name="kgreenlandic" unicode="&#x138;" horiz-adv-x="547" 
d="M50 500h120v-185h73l130 185h143l-170 -235l179 -265h-146l-132 206h-77v-206h-120v500z" />
    <glyph glyph-name="Lacute" unicode="&#x139;" horiz-adv-x="542" 
d="M517 107v-107h-467v600h120v-493h347zM72 677l87 198l94 -47l-102 -189z" />
    <glyph glyph-name="lacute" unicode="&#x13a;" horiz-adv-x="469" 
d="M172 107h272v-107h-394v500h122v-393zM72 585l71 177l101 -51l-91 -164z" />
    <glyph glyph-name="Lcommaaccent" unicode="&#x13b;" horiz-adv-x="542" 
d="M517 107v-107h-467v600h120v-493h347zM287 -43q31 0 49 -18t18 -45q0 -13 -8 -37l-35 -108l-49 6l4 78q-43 13 -43 61q0 27 17 45t47 18z" />
    <glyph glyph-name="lcommaaccent" unicode="&#x13c;" horiz-adv-x="469" 
d="M172 107h272v-107h-394v500h122v-393zM248 -22q31 0 48 -17t17 -45q0 -13 -5 -30l-46 -110l-51 13l16 68q-21 4 -32 20t-11 39q0 27 18 44.5t46 17.5z" />
    <glyph glyph-name="Lcaron" unicode="&#x13d;" horiz-adv-x="542" 
d="M517 107v-107h-467v600h120v-493h347zM-56 777l55 58l108 -89l108 89l54 -58l-139 -139h-47z" />
    <glyph glyph-name="lcaron" unicode="&#x13e;" horiz-adv-x="412" 
d="M172 107h272v-107h-394v500h122v-393zM-41 666l55 60l97 -80l95 80l58 -60l-130 -130h-47z" />
    <glyph glyph-name="Ldot" unicode="&#x13f;" horiz-adv-x="542" 
d="M517 107v-107h-467v600h120v-493h347zM245 321q0 32 22 53t53 21q30 0 51 -20.5t21 -53.5q0 -32 -20.5 -51.5t-51.5 -19.5q-32 0 -53.5 19.5t-21.5 51.5z" />
    <glyph glyph-name="ldot" unicode="&#x140;" horiz-adv-x="469" 
d="M172 107h272v-107h-394v500h122v-393zM246 304q0 29 20 49t48 20q29 0 49 -20t20 -49q0 -28 -20 -48t-49 -20q-28 0 -48 20t-20 48z" />
    <glyph glyph-name="Lslash" unicode="&#x141;" horiz-adv-x="542" 
d="M16 251l-29 97l63 17v235h117v-203l96 28l29 -97l-125 -35v-187h350v-106h-467v260z" />
    <glyph glyph-name="lslash" unicode="&#x142;" horiz-adv-x="469" 
d="M20 183l-31 75l61 25v217h122v-167l60 24l30 -76l-90 -35v-139h272v-107h-394v195z" />
    <glyph glyph-name="Nacute" unicode="&#x143;" horiz-adv-x="657" 
d="M491 600h116v-600h-108l-331 406v-406h-118v600h108l333 -408v408zM286 677l87 198l94 -47l-102 -189z" />
    <glyph glyph-name="nacute" unicode="&#x144;" horiz-adv-x="575" 
d="M408 500h117v-500h-107l-250 302v-302h-118v500h107l251 -301v301zM245 585l71 177l101 -51l-91 -164z" />
    <glyph glyph-name="Ncommaaccent" unicode="&#x145;" horiz-adv-x="657" 
d="M491 600h116v-600h-108l-331 406v-406h-118v600h108l333 -408v408zM301 36q31 0 49 -18t18 -45q0 -13 -8 -37l-35 -108l-49 6l4 78q-43 13 -43 61q0 27 17 45t47 18z" />
    <glyph glyph-name="ncommaaccent" unicode="&#x146;" horiz-adv-x="575" 
d="M408 500h117v-500h-107l-250 302v-302h-118v500h107l251 -301v301zM284 34q31 0 48 -17t17 -45q0 -13 -5 -30l-46 -110l-51 13l16 68q-21 4 -32 20t-11 39q0 27 18 44.5t46 17.5z" />
    <glyph glyph-name="Ncaron" unicode="&#x147;" horiz-adv-x="657" 
d="M491 600h116v-600h-108l-331 406v-406h-118v600h108l333 -408v408zM193 777l55 58l108 -89l108 89l54 -58l-139 -139h-47z" />
    <glyph glyph-name="ncaron" unicode="&#x148;" horiz-adv-x="575" 
d="M408 500h117v-500h-107l-250 302v-302h-118v500h107l251 -301v301zM138 666l55 60l97 -80l95 80l58 -60l-130 -130h-47z" />
    <glyph glyph-name="napostrophe" unicode="&#x149;" horiz-adv-x="658" 
d="M490 500h117v-500h-107l-250 302v-302h-118v500h107l251 -301v301zM62 627q31 0 48 -17t17 -45q0 -13 -5 -30l-46 -110l-51 13l16 68q-21 4 -32 20t-11 39q0 27 18 44.5t46 17.5z" />
    <glyph glyph-name="Omacron" unicode="&#x14c;" horiz-adv-x="693" 
d="M346 611q135 0 225 -88q92 -90 92 -223q0 -130 -86 -218q-90 -93 -231 -93q-145 0 -234 97q-39 40 -61 97t-22 117q0 125 84 214q91 97 233 97zM148 300q0 -81 54 -140q59 -62 144 -62q88 0 143 61q53 58 53 141q0 89 -52 146q-55 57 -144 57t-144 -60q-54 -57 -54 -143z
M180 740h332v-90h-332v90z" />
    <glyph glyph-name="omacron" unicode="&#x14d;" 
d="M296 509q116 0 192 -78q73 -73 73 -181q0 -114 -78 -187q-75 -72 -187 -72q-117 0 -191 74q-76 76 -76 185q0 111 82 188q76 71 185 71zM150 250q0 -69 42 -108q41 -44 104 -44q60 0 101 41q43 38 43 111q0 71 -43 112q-43 40 -101 40q-64 0 -105 -44q-41 -39 -41 -108z
M152 639h287v-84h-287v84z" />
    <glyph glyph-name="Obreve" unicode="&#x14e;" horiz-adv-x="693" 
d="M346 611q135 0 225 -88q92 -90 92 -223q0 -130 -86 -218q-90 -93 -231 -93q-145 0 -234 97q-39 40 -61 97t-22 117q0 125 84 214q91 97 233 97zM148 300q0 -81 54 -140q59 -62 144 -62q88 0 143 61q53 58 53 141q0 89 -52 146q-55 57 -144 57t-144 -60q-54 -57 -54 -143z
M419 785l81 -42q-15 -38 -58 -70q-42 -31 -98 -31q-54 0 -94 31q-44 30 -59 70l81 42q12 -20 25 -32q19 -19 48 -19q27 0 47 16q16 12 27 35z" />
    <glyph glyph-name="obreve" unicode="&#x14f;" 
d="M296 509q116 0 192 -78q73 -73 73 -181q0 -114 -78 -187q-75 -72 -187 -72q-117 0 -191 74q-76 76 -76 185q0 111 82 188q76 71 185 71zM150 250q0 -69 42 -108q41 -44 104 -44q60 0 101 41q43 38 43 111q0 71 -43 112q-43 40 -101 40q-64 0 -105 -44q-41 -39 -41 -108z
M293 542q-55 0 -94 28q-41 29 -59 71l85 42q9 -16 20 -28q19 -19 50 -19q30 0 49 19q11 11 21 28l84 -42q-16 -41 -56 -69q-43 -30 -100 -30z" />
    <glyph glyph-name="Ohungarumlaut" unicode="&#x150;" horiz-adv-x="693" 
d="M346 611q135 0 225 -88q92 -90 92 -223q0 -130 -86 -218q-90 -93 -231 -93q-145 0 -234 97q-39 40 -61 97t-22 117q0 125 84 214q91 97 233 97zM148 300q0 -81 54 -140q59 -62 144 -62q88 0 143 61q53 58 53 141q0 89 -52 146q-55 57 -144 57t-144 -60q-54 -57 -54 -143z
M252 658l58 189l94 -39l-80 -178zM378 662l81 186l92 -46l-97 -177z" />
    <glyph glyph-name="ohungarumlaut" unicode="&#x151;" 
d="M296 509q116 0 192 -78q73 -73 73 -181q0 -114 -78 -187q-75 -72 -187 -72q-117 0 -191 74q-76 76 -76 185q0 111 82 188q76 71 185 71zM150 250q0 -69 42 -108q41 -44 104 -44q60 0 101 41q43 38 43 111q0 71 -43 112q-43 40 -101 40q-64 0 -105 -44q-41 -39 -41 -108z
M195 577l52 179l95 -40l-74 -168zM316 583l75 174l96 -46l-94 -167z" />
    <glyph glyph-name="OE" unicode="&#x152;" horiz-adv-x="1058" 
d="M347 611q115 0 197 -66v55h460v-109h-341v-124h304v-108h-304v-151h355v-108h-474v56q-43 -35 -88.5 -51t-109.5 -16q-146 0 -235 95q-82 85 -82 216q0 126 85 216q89 95 233 95zM147 300q0 -80 54 -141q59 -64 146 -64q90 0 145 61q53 58 53 144q0 87 -55 145
q-55 60 -143 60q-91 0 -146 -61q-54 -57 -54 -144z" />
    <glyph glyph-name="oe" unicode="&#x153;" horiz-adv-x="882" 
d="M296 509q86 0 144 -42v33h393v-108h-273v-86h243v-107h-243v-92h282v-107h-402v32q-51 -41 -144 -41q-119 0 -191 72q-75 75 -75 187q0 108 81 189q70 70 185 70zM150 250q0 -70 42 -109q40 -43 104 -43q60 0 101 41q43 41 43 111q0 71 -43 112q-43 40 -101 40
q-64 0 -105 -44q-41 -39 -41 -108z" />
    <glyph glyph-name="Racute" unicode="&#x154;" horiz-adv-x="605" 
d="M575 378q0 -66 -34 -119q-32 -50 -85 -75l113 -184h-138l-95 159h-166v-159h-121v600h286q109 0 174 -65q66 -66 66 -157zM170 490v-222h163q63 0 91 33q30 31 30 77q0 49 -28 77q-27 35 -94 35h-162zM239 677l87 198l94 -47l-102 -189z" />
    <glyph glyph-name="racute" unicode="&#x155;" horiz-adv-x="524" 
d="M494 314q0 -52 -24 -93q-23 -39 -68 -65l87 -156h-138l-65 127h-116v-127h-120v500h245q105 0 161 -72q38 -49 38 -114zM170 393v-159h115q48 0 70 28q18 22 18 52q0 32 -19 54q-25 25 -68 25h-116zM203 585l71 177l101 -51l-91 -164z" />
    <glyph glyph-name="Rcommaaccent" unicode="&#x156;" horiz-adv-x="605" 
d="M575 378q0 -66 -34 -119q-32 -50 -85 -75l113 -184h-138l-95 159h-166v-159h-121v600h286q109 0 174 -65q66 -66 66 -157zM170 490v-222h163q63 0 91 33q30 31 30 77q0 49 -28 77q-27 35 -94 35h-162zM279 34q31 0 48 -17t17 -45q0 -13 -5 -30l-46 -110l-51 13l16 68
q-21 4 -32 20t-11 39q0 27 18 44.5t46 17.5z" />
    <glyph glyph-name="rcommaaccent" unicode="&#x157;" horiz-adv-x="524" 
d="M494 314q0 -52 -24 -93q-23 -39 -68 -65l87 -156h-138l-65 127h-116v-127h-120v500h245q105 0 161 -72q38 -49 38 -114zM170 393v-159h115q48 0 70 28q18 22 18 52q0 32 -19 54q-25 25 -68 25h-116zM257 -11q31 0 48 -17t17 -45q0 -13 -5 -30l-46 -110l-51 13l16 68
q-21 4 -32 20t-11 39q0 27 18 44.5t46 17.5z" />
    <glyph glyph-name="Rcaron" unicode="&#x158;" horiz-adv-x="605" 
d="M575 378q0 -66 -34 -119q-32 -50 -85 -75l113 -184h-138l-95 159h-166v-159h-121v600h286q109 0 174 -65q66 -66 66 -157zM170 490v-222h163q63 0 91 33q30 31 30 77q0 49 -28 77q-27 35 -94 35h-162zM122 777l55 58l108 -89l108 89l54 -58l-139 -139h-47z" />
    <glyph glyph-name="rcaron" unicode="&#x159;" horiz-adv-x="524" 
d="M494 314q0 -52 -24 -93q-23 -39 -68 -65l87 -156h-138l-65 127h-116v-127h-120v500h245q105 0 161 -72q38 -49 38 -114zM170 393v-159h115q48 0 70 28q18 22 18 52q0 32 -19 54q-25 25 -68 25h-116zM111 666l55 60l97 -80l95 80l58 -60l-130 -130h-47z" />
    <glyph glyph-name="Sacute" unicode="&#x15a;" 
d="M210 270q-89 17 -130 58q-42 42 -42 107q0 80 63 127q66 49 190 49q69 0 124.5 -13.5t122.5 -50.5l-48 -94q-100 50 -191 50q-90 0 -121 -25q-19 -15 -19 -40q0 -23 18 -35q20 -13 59 -19l119 -21q115 -20 165 -72q42 -45 42 -111q0 -93 -71 -140q-78 -51 -214 -51
q-78 0 -129.5 12t-118.5 44l37 99q108 -45 209 -45q99 0 146 33q20 15 20 45q0 22 -20 42q-21 16 -82 29zM266 677l87 198l94 -47l-102 -189z" />
    <glyph glyph-name="sacute" unicode="&#x15b;" horiz-adv-x="520" 
d="M43 363q0 68 56 107q59 39 161 39q108 0 211 -50l-43 -96q-86 39 -165 39q-57 0 -80 -11q-18 -11 -18 -27q0 -14 10 -21q13 -12 44 -16l95 -16q101 -20 140 -58q36 -41 36 -96q0 -66 -44 -108q-62 -58 -199 -58q-64 0 -111 11.5t-102 41.5l46 97q86 -41 166 -41
q64 0 100 17q25 15 25 38q0 15 -17 24q-19 11 -58 18l-108 19q-74 13 -109 50q-36 38 -36 97zM230 585l71 177l101 -51l-91 -164z" />
    <glyph glyph-name="Scircumflex" unicode="&#x15c;" 
d="M210 270q-89 17 -130 58q-42 42 -42 107q0 80 63 127q66 49 190 49q69 0 124.5 -13.5t122.5 -50.5l-48 -94q-100 50 -191 50q-90 0 -121 -25q-19 -15 -19 -40q0 -23 18 -35q20 -13 59 -19l119 -21q115 -20 165 -72q42 -45 42 -111q0 -93 -71 -140q-78 -51 -214 -51
q-78 0 -129.5 12t-118.5 44l37 99q108 -45 209 -45q99 0 146 33q20 15 20 45q0 22 -20 42q-21 16 -82 29zM185 631l-54 58l139 138h47l139 -138l-54 -58l-108 89z" />
    <glyph glyph-name="scircumflex" unicode="&#x15d;" horiz-adv-x="520" 
d="M43 363q0 68 56 107q59 39 161 39q108 0 211 -50l-43 -96q-86 39 -165 39q-57 0 -80 -11q-18 -11 -18 -27q0 -14 10 -21q13 -12 44 -16l95 -16q101 -20 140 -58q36 -41 36 -96q0 -66 -44 -108q-62 -58 -199 -58q-64 0 -111 11.5t-102 41.5l46 97q86 -41 166 -41
q64 0 100 17q25 15 25 38q0 15 -17 24q-19 11 -58 18l-108 19q-74 13 -109 50q-36 38 -36 97zM418 597l-55 -61l-97 81l-96 -81l-57 61l130 129h46z" />
    <glyph glyph-name="Scedilla" unicode="&#x15e;" 
d="M210 270q-89 17 -130 58q-42 42 -42 107q0 80 63 127q66 49 190 49q69 0 124.5 -13.5t122.5 -50.5l-48 -94q-100 50 -191 50q-90 0 -121 -25q-19 -15 -19 -40q0 -23 18 -35q20 -13 59 -19l119 -21q115 -20 165 -72q42 -45 42 -111q0 -93 -71 -140q-65 -44 -186 -50
l-1 -25q31 0 49 -18q22 -24 22 -56q0 -37 -27 -71q-39 -47 -124 -68l-22 54q51 27 64 40q16 20 16 41q0 10 -8 18q-8 6 -21 6h-32v80q-87 6 -192 54l37 99q108 -45 209 -45q99 0 146 33q20 15 20 45q0 22 -20 42q-21 16 -82 29z" />
    <glyph glyph-name="scedilla" unicode="&#x15f;" horiz-adv-x="520" 
d="M43 365q0 57 47 99q51 45 170 45q102 0 211 -49l-43 -95q-85 37 -165 37q-61 0 -83 -13q-15 -9 -15 -25q0 -14 10 -21q13 -12 44 -16l95 -16q101 -20 140 -58q36 -41 36 -96q0 -71 -41 -110q-54 -50 -166 -55l-1 -22q34 0 53 -22q13 -16 13 -40q0 -45 -30 -77
q-35 -38 -100 -56l-22 52q37 15 49 32q10 14 10 30q0 10 -8 16q-7 6 -19 6h-25v81q-82 7 -169 52l42 100q84 -44 170 -44q64 0 100 17q25 15 25 38q0 15 -17 24q-19 11 -58 18l-108 19q-76 13 -114 58q-31 35 -31 91z" />
    <glyph glyph-name="Scaron" unicode="&#x160;" 
d="M210 270q-89 17 -130 58q-42 42 -42 107q0 80 63 127q66 49 190 49q69 0 124.5 -13.5t122.5 -50.5l-48 -94q-100 50 -191 50q-90 0 -121 -25q-19 -15 -19 -40q0 -23 18 -35q20 -13 59 -19l119 -21q115 -20 165 -72q42 -45 42 -111q0 -93 -71 -140q-78 -51 -214 -51
q-78 0 -129.5 12t-118.5 44l37 99q108 -45 209 -45q99 0 146 33q20 15 20 45q0 22 -20 42q-21 16 -82 29zM134 777l55 58l108 -89l108 89l54 -58l-139 -139h-47z" />
    <glyph glyph-name="scaron" unicode="&#x161;" horiz-adv-x="520" 
d="M43 363q0 68 56 107q59 39 161 39q108 0 211 -50l-43 -96q-86 39 -165 39q-57 0 -80 -11q-18 -11 -18 -27q0 -14 10 -21q13 -12 44 -16l95 -16q101 -20 140 -58q36 -41 36 -96q0 -66 -44 -108q-62 -58 -199 -58q-64 0 -111 11.5t-102 41.5l46 97q86 -41 166 -41
q64 0 100 17q25 15 25 38q0 15 -17 24q-19 11 -58 18l-108 19q-74 13 -109 50q-36 38 -36 97zM107 666l55 60l97 -80l95 80l58 -60l-130 -130h-47z" />
    <glyph glyph-name="Tcommaaccent" unicode="&#x162;" horiz-adv-x="598" 
d="M24 492v108h549v-108h-216v-492h-117v492h-216zM299 -54q31 0 48 -17t17 -45q0 -13 -5 -30l-46 -110l-51 13l16 68q-21 4 -32 20t-11 39q0 27 18 44.5t46 17.5z" />
    <glyph glyph-name="tcommaaccent" unicode="&#x163;" horiz-adv-x="513" 
d="M25 393v107h463v-107h-172v-393h-120v393h-171zM256 -21q31 0 48 -17t17 -45q0 -13 -5 -30l-46 -110l-51 13l16 68q-21 4 -32 20t-11 39q0 27 18 44.5t46 17.5z" />
    <glyph glyph-name="Tcaron" unicode="&#x164;" horiz-adv-x="598" 
d="M24 492v108h549v-108h-216v-492h-117v492h-216zM136 777l55 58l108 -89l108 89l54 -58l-139 -139h-47z" />
    <glyph glyph-name="tcaron" unicode="&#x165;" horiz-adv-x="513" 
d="M25 393v107h463v-107h-172v-393h-120v393h-171zM104 666l55 60l97 -80l95 80l58 -60l-130 -130h-47z" />
    <glyph glyph-name="Tbar" unicode="&#x166;" horiz-adv-x="598" 
d="M102 279v93h139v122h-216v106h548v-106h-216v-122h139v-93h-139v-279h-116v279h-139z" />
    <glyph glyph-name="tbar" unicode="&#x167;" horiz-adv-x="513" 
d="M95 214v91h101v88h-171v107h463v-107h-172v-88h102v-91h-102v-214h-120v214h-101z" />
    <glyph glyph-name="Utilde" unicode="&#x168;" horiz-adv-x="628" 
d="M578 263q0 -124 -81 -202q-74 -71 -183 -71q-115 0 -189 74q-76 78 -76 199v337h121v-343q0 -74 42 -114q40 -43 102 -43q59 0 103 44q40 38 40 113v343h121v-337zM385 644q-37 0 -69 13q-37 15 -73 15q-38 0 -68 -24l-49 61q53 58 116 58q35 0 69 -14q41 -16 73 -16
q34 0 68 24l48 -62q-51 -55 -115 -55z" />
    <glyph glyph-name="utilde" unicode="&#x169;" horiz-adv-x="547" 
d="M497 216q0 -102 -68 -165q-62 -59 -154 -59q-99 0 -161 64q-64 66 -64 160v284h120v-289q0 -51 29 -80q28 -31 76 -31q45 0 74 30q28 31 28 81v289h120v-284zM344 557q-32 0 -68 12q-37 15 -71 15q-40 0 -66 -21l-48 58q48 54 112 54q34 0 68 -14q34 -15 71 -15
q39 0 67 23l46 -60q-46 -52 -111 -52z" />
    <glyph glyph-name="Umacron" unicode="&#x16a;" horiz-adv-x="628" 
d="M578 263q0 -124 -81 -202q-74 -71 -183 -71q-115 0 -189 74q-76 78 -76 199v337h121v-343q0 -74 42 -114q40 -43 102 -43q59 0 103 44q40 38 40 113v343h121v-337zM147 740h332v-90h-332v90z" />
    <glyph glyph-name="umacron" unicode="&#x16b;" horiz-adv-x="547" 
d="M497 216q0 -102 -68 -165q-62 -59 -154 -59q-99 0 -161 64q-64 66 -64 160v284h120v-289q0 -51 29 -80q28 -31 76 -31q45 0 74 30q28 31 28 81v289h120v-284zM130 639h287v-84h-287v84z" />
    <glyph glyph-name="Ubreve" unicode="&#x16c;" horiz-adv-x="628" 
d="M578 263q0 -124 -81 -202q-74 -71 -183 -71q-115 0 -189 74q-76 78 -76 199v337h121v-343q0 -74 42 -114q40 -43 102 -43q59 0 103 44q40 38 40 113v343h121v-337zM387 785l81 -42q-15 -38 -58 -70q-42 -31 -98 -31q-54 0 -94 31q-44 30 -59 70l81 42q12 -20 25 -32
q19 -19 48 -19q27 0 47 16q16 12 27 35z" />
    <glyph glyph-name="ubreve" unicode="&#x16d;" horiz-adv-x="547" 
d="M497 216q0 -102 -68 -165q-62 -59 -154 -59q-99 0 -161 64q-64 66 -64 160v284h120v-289q0 -51 29 -80q28 -31 76 -31q45 0 74 30q28 31 28 81v289h120v-284zM271 542q-55 0 -94 28q-41 29 -59 71l85 42q9 -16 20 -28q19 -19 50 -19q30 0 49 19q11 11 21 28l84 -42
q-16 -41 -56 -69q-43 -30 -100 -30z" />
    <glyph glyph-name="Uring" unicode="&#x16e;" horiz-adv-x="628" 
d="M578 263q0 -124 -81 -202q-74 -71 -183 -71q-115 0 -189 74q-76 78 -76 199v337h121v-343q0 -74 42 -114q40 -43 102 -43q59 0 103 44q40 38 40 113v343h121v-337zM313 618q-44 0 -77 31q-34 34 -34 80q0 43 30 76q32 35 81 35q52 0 85 -38q27 -32 27 -73q0 -45 -35 -80
q-33 -31 -77 -31zM313 679q20 0 36 14q15 15 15 36q0 19 -15 34q-13 16 -36 16q-24 0 -37 -16q-14 -12 -14 -34q0 -19 15 -36q16 -14 36 -14z" />
    <glyph glyph-name="uring" unicode="&#x16f;" horiz-adv-x="547" 
d="M497 216q0 -102 -68 -165q-62 -59 -154 -59q-99 0 -161 64q-64 66 -64 160v284h120v-289q0 -51 29 -80q28 -31 76 -31q45 0 74 30q28 31 28 81v289h120v-284zM275 532q-44 0 -73 29q-31 28 -31 74q0 42 31 73t73 31q43 0 75 -35q27 -28 27 -69q0 -46 -32 -75
q-28 -28 -70 -28zM275 602q12 0 23 10q10 10 10 23q0 14 -10 24q-10 8 -23 8q-14 0 -23 -9q-10 -9 -10 -23q0 -12 11 -23q10 -10 22 -10z" />
    <glyph glyph-name="Uhungarumlaut" unicode="&#x170;" horiz-adv-x="628" 
d="M578 263q0 -124 -81 -202q-74 -71 -183 -71q-115 0 -189 74q-76 78 -76 199v337h121v-343q0 -74 42 -114q40 -43 102 -43q59 0 103 44q40 38 40 113v343h121v-337zM207 658l58 189l94 -39l-80 -178zM333 662l81 186l92 -46l-97 -177z" />
    <glyph glyph-name="uhungarumlaut" unicode="&#x171;" horiz-adv-x="547" 
d="M497 216q0 -102 -68 -165q-62 -59 -154 -59q-99 0 -161 64q-64 66 -64 160v284h120v-289q0 -51 29 -80q28 -31 76 -31q45 0 74 30q28 31 28 81v289h120v-284zM171 577l52 179l95 -40l-74 -168zM292 583l75 174l96 -46l-94 -167z" />
    <glyph glyph-name="Uogonek" unicode="&#x172;" horiz-adv-x="628" 
d="M578 263q0 -124 -81 -202q-41 -41 -98 -60q-20 -5 -35 -24q-11 -18 -11 -33q0 -31 18 -55q19 -22 50 -39l-33 -48q-63 20 -91 49q-34 36 -34 81q0 37 24 59q-98 10 -161 73q-77 77 -77 199v337h121v-343q0 -74 42 -114q40 -43 102 -43q59 0 103 44q40 38 40 113v343h121
v-337z" />
    <glyph glyph-name="uogonek" unicode="&#x173;" horiz-adv-x="547" 
d="M497 216q0 -102 -68 -165q-44 -43 -104 -53q-25 -15 -25 -42q0 -26 13 -42q17 -18 48 -33l-27 -50q-56 11 -85 39q-29 29 -29 68q0 36 27 57q-84 11 -134 61q-63 66 -63 160v284h120v-289q0 -51 29 -80q28 -31 76 -31q45 0 74 30q28 31 28 81v289h120v-284z" />
    <glyph glyph-name="Wcircumflex" unicode="&#x174;" horiz-adv-x="952" 
d="M363 0h-162l-176 600h129l127 -480h4l108 480h162l116 -480h4l123 480h128l-177 -600h-163l-114 454h-4zM366 631l-54 58l139 138h47l139 -138l-54 -58l-108 89z" />
    <glyph glyph-name="wcircumflex" unicode="&#x175;" horiz-adv-x="850" 
d="M326 0h-140l-156 500h129l98 -361h4l99 361h130l101 -362h5l96 362h128l-155 -500h-142l-98 326h-4zM578 597l-55 -61l-97 81l-96 -81l-57 61l130 129h46z" />
    <glyph glyph-name="Ycircumflex" unicode="&#x176;" horiz-adv-x="679" 
d="M399 0h-118v145l-259 455h138l175 -329h10l178 329h131l-255 -456v-144zM230 631l-54 58l139 138h47l139 -138l-54 -58l-108 89z" />
    <glyph glyph-name="ycircumflex" unicode="&#x177;" horiz-adv-x="592" 
d="M356 0h-120v121l-211 379h136l135 -260h6l131 260h134l-211 -380v-120zM448 597l-55 -61l-97 81l-96 -81l-57 61l130 129h46z" />
    <glyph glyph-name="Ydieresis" unicode="&#x178;" horiz-adv-x="679" 
d="M399 0h-118v145l-259 455h138l175 -329h10l178 329h131l-255 -456v-144zM371 714q0 30 19.5 50t49.5 20t51 -20.5t21 -49.5t-21 -50t-51 -21t-49.5 20.5t-19.5 50.5zM164 714q0 29 21 49.5t50 20.5t50 -20.5t21 -49.5t-21 -50t-50 -21t-50 21t-21 50z" />
    <glyph glyph-name="Zacute" unicode="&#x179;" horiz-adv-x="593" 
d="M553 111v-111h-514v94l341 400l-108 -2h-223v108h500v-84l-346 -408l100 3h250zM236 677l87 198l94 -47l-102 -189z" />
    <glyph glyph-name="zacute" unicode="&#x17a;" horiz-adv-x="514" 
d="M474 107v-107h-434v89l257 310l-64 -4h-189v105h419v-84l-260 -312l56 3h215zM206 585l71 177l101 -51l-91 -164z" />
    <glyph glyph-name="Zdotaccent" unicode="&#x17b;" horiz-adv-x="593" 
d="M553 111v-111h-514v94l341 400l-108 -2h-223v108h500v-84l-346 -408l100 3h250zM225 715q0 32 22 53t53 21q30 0 51 -20.5t21 -53.5q0 -32 -20.5 -51.5t-51.5 -19.5q-32 0 -53.5 19.5t-21.5 51.5z" />
    <glyph glyph-name="zdotaccent" unicode="&#x17c;" horiz-adv-x="514" 
d="M474 107v-107h-434v89l257 310l-64 -4h-189v105h419v-84l-260 -312l56 3h215zM189 610q0 29 20 49t48 20q29 0 49 -20t20 -49q0 -28 -20 -48t-49 -20q-28 0 -48 20t-20 48z" />
    <glyph glyph-name="Zcaron" unicode="&#x17d;" horiz-adv-x="593" 
d="M553 111v-111h-514v94l341 400l-108 -2h-223v108h500v-84l-346 -408l100 3h250zM143 777l55 58l108 -89l108 89l54 -58l-139 -139h-47z" />
    <glyph glyph-name="zcaron" unicode="&#x17e;" horiz-adv-x="514" 
d="M474 107v-107h-434v89l257 310l-64 -4h-189v105h419v-84l-260 -312l56 3h215zM100 666l55 60l97 -80l95 80l58 -60l-130 -130h-47z" />
    <glyph glyph-name="florin" unicode="&#x192;" horiz-adv-x="390" 
d="M36 -163l-45 91q39 13 59 31q25 25 25 63v373h-66v105h66v4q0 75 57 121q53 44 131 44q90 0 173 -78l-66 -73q-33 27 -56 37.5t-51 10.5q-37 0 -55 -23q-16 -20 -16 -38v-5h178v-105h-178v-376q0 -63 -30 -105q-40 -52 -126 -77z" />
    <glyph glyph-name="AEacute" unicode="&#x1fc;" horiz-adv-x="992" 
d="M478 0v135h-232l-84 -135h-137l385 600h528v-109h-343v-122h305v-107h-305v-154h357v-108h-474zM468 490l-153 -246h163v246h-10zM507 677l87 198l94 -47l-102 -189z" />
    <glyph glyph-name="aeacute" unicode="&#x1fd;" horiz-adv-x="860" 
d="M418 0v89h-199l-52 -89h-142l302 500h483v-108h-272v-76h241v-108h-241v-101h282v-107h-402zM389 393l-108 -197h137v197h-29zM407 585l71 177l101 -51l-91 -164z" />
    <glyph glyph-name="Oslashacute" unicode="&#x1fe;" horiz-adv-x="693" 
d="M346 611q73 0 130 -25l30 42l87 -60l-28 -40q50 -50 74 -107q24 -62 24 -121q0 -130 -86 -218q-90 -93 -231 -93q-71 0 -135 27l-31 -44l-88 62l29 42q-34 33 -61 88q-31 70 -31 136q0 125 84 214q91 97 233 97zM542 300q0 36 -11 74q-10 31 -31 60l-224 -323
q37 -13 70 -13q88 0 143 61q53 58 53 141zM148 300q0 -72 42 -126l222 319q-29 10 -66 10q-89 0 -144 -60q-54 -57 -54 -143zM316 677l87 198l94 -47l-102 -189z" />
    <glyph glyph-name="oslashacute" unicode="&#x1ff;" 
d="M296 509q76 0 134 -34l30 35l69 -56l-30 -35q36 -41 52 -91q10 -34 10 -78q0 -114 -78 -187q-75 -72 -187 -72q-73 0 -132 32l-29 -35l-70 58l26 32q-29 35 -44 76q-17 48 -17 96q0 113 81 189q75 70 185 70zM150 250q0 -24 5 -43q6 -27 12 -38l190 220q-31 13 -61 13
q-64 0 -105 -44q-41 -39 -41 -108zM437 288q-4 22 -12 40l-189 -218q33 -12 60 -12q60 0 101 41q43 38 43 111q0 25 -3 38zM266 585l71 177l101 -51l-91 -164z" />
    <glyph glyph-name="Scommaaccent" unicode="&#x218;" 
d="M210 270q-89 17 -130 58q-42 42 -42 107q0 80 63 127q66 49 190 49q69 0 124.5 -13.5t122.5 -50.5l-48 -94q-100 50 -191 50q-90 0 -121 -25q-19 -15 -19 -40q0 -23 18 -35q20 -13 59 -19l119 -21q115 -20 165 -72q42 -45 42 -111q0 -93 -71 -140q-78 -51 -214 -51
q-78 0 -129.5 12t-118.5 44l37 99q108 -45 209 -45q99 0 146 33q20 15 20 45q0 22 -20 42q-21 16 -82 29zM285 -52q31 0 49 -18t18 -45q0 -13 -8 -37l-35 -108l-49 6l4 78q-43 13 -43 61q0 27 17 45t47 18z" />
    <glyph glyph-name="scommaaccent" unicode="&#x219;" horiz-adv-x="520" 
d="M43 363q0 68 56 107q59 39 161 39q108 0 211 -50l-43 -96q-86 39 -165 39q-57 0 -80 -11q-18 -11 -18 -27q0 -14 10 -21q13 -12 44 -16l95 -16q101 -20 140 -58q36 -41 36 -96q0 -66 -44 -108q-62 -58 -199 -58q-64 0 -111 11.5t-102 41.5l46 97q86 -41 166 -41
q64 0 100 17q25 15 25 38q0 15 -17 24q-19 11 -58 18l-108 19q-74 13 -109 50q-36 38 -36 97zM250 -31q31 0 48 -17t17 -45q0 -13 -5 -30l-46 -110l-51 13l16 68q-21 4 -32 20t-11 39q0 27 18 44.5t46 17.5z" />
    <glyph glyph-name="uni021A" unicode="&#x21a;" horiz-adv-x="598" 
d="M25 494v106h548v-106h-216v-494h-27q36 -31 36 -73q0 -44 -32 -79q-34 -35 -86 -50l-30 48q26 17 45 43q18 25 18 50q0 43 -40 61v494h-216z" />
    <glyph glyph-name="uni021B" unicode="&#x21b;" horiz-adv-x="513" 
d="M25 393v107h463v-107h-172v-393h-36q35 -21 35 -60q0 -40 -29 -69q-27 -29 -86 -42l-26 50q32 15 47 37q14 17 14 39q0 32 -39 45v393h-171z" />
    <glyph glyph-name="circumflex" unicode="&#x2c6;" horiz-adv-x="405" 
d="M355 597l-55 -61l-97 81l-96 -81l-57 61l130 129h46z" />
    <glyph glyph-name="caron" unicode="&#x2c7;" horiz-adv-x="406" 
d="M50 666l55 60l97 -80l95 80l58 -60l-130 -130h-47z" />
    <glyph glyph-name="uni02C9" unicode="&#x2c9;" horiz-adv-x="327" 
d="M0 632h327v-90h-327v90z" />
    <glyph glyph-name="breve" unicode="&#x2d8;" horiz-adv-x="409" 
d="M203 542q-55 0 -94 28q-41 29 -59 71l85 42q9 -16 20 -28q19 -19 50 -19q30 0 49 19q11 11 21 28l84 -42q-16 -41 -56 -69q-43 -30 -100 -30z" />
    <glyph glyph-name="dotaccent" unicode="&#x2d9;" horiz-adv-x="237" 
d="M50 62q0 29 20 49t48 20q29 0 49 -20t20 -49q0 -28 -20 -48t-49 -20q-28 0 -48 20t-20 48z" />
    <glyph glyph-name="ring" unicode="&#x2da;" horiz-adv-x="306" 
d="M154 532q-44 0 -73 29q-31 28 -31 74q0 42 31 73t73 31q43 0 75 -35q27 -28 27 -69q0 -46 -32 -75q-28 -28 -70 -28zM154 602q12 0 23 10q10 10 10 23q0 14 -10 24q-10 8 -23 8q-14 0 -23 -9q-10 -9 -10 -23q0 -12 11 -23q10 -10 22 -10z" />
    <glyph glyph-name="ogonek" unicode="&#x2db;" horiz-adv-x="241" 
d="M111 20l54 -18q-18 -6 -27 -17q-8 -11 -8 -29q0 -22 13 -38q17 -22 48 -37l-27 -50q-57 11 -85 41q-29 29 -29 70q0 32 19 51q15 15 42 27z" />
    <glyph glyph-name="tilde" unicode="&#x2dc;" horiz-adv-x="464" 
d="M303 557q-32 0 -68 12q-37 15 -71 15q-40 0 -66 -21l-48 58q48 54 112 54q34 0 68 -14q34 -15 71 -15q39 0 67 23l46 -60q-46 -52 -111 -52z" />
    <glyph glyph-name="hungarumlaut" unicode="&#x2dd;" horiz-adv-x="392" 
d="M50 577l52 179l95 -40l-74 -168zM171 583l75 174l96 -46l-94 -167z" />
    <glyph glyph-name="afii10023" unicode="&#x401;" horiz-adv-x="559" 
d="M50 0v600h470v-110h-349v-122h312v-109h-312v-150h363v-109h-484zM311 714q0 30 19.5 50t49.5 20t51 -20.5t21 -49.5t-21 -50t-51 -21t-49.5 20.5t-19.5 50.5zM104 714q0 29 21 49.5t50 20.5t50 -20.5t21 -49.5t-21 -50t-50 -21t-50 21t-21 50z" />
    <glyph glyph-name="afii10051" unicode="&#x402;" horiz-adv-x="747" 
d="M20 493v107h505v-107h-198v-101q65 34 138 34q116 0 176 -72q54 -63 54 -167v-102q0 -71 -24.5 -125t-85.5 -109l-72 65q37 41 52 79.5t15 88.5v103q0 65 -30 102q-30 32 -85 32q-78 0 -138 -39v-282h-120v493h-187z" />
    <glyph glyph-name="afii10052" unicode="&#x403;" horiz-adv-x="531" 
d="M169 492v-492h-120v600h457v-108h-337zM235 677l87 198l94 -47l-102 -189z" />
    <glyph glyph-name="afii10053" unicode="&#x404;" horiz-adv-x="623" 
d="M467 367v-110h-310q9 -54 44 -95q57 -64 147 -64q94 0 173 75l74 -77q-101 -107 -247 -107q-151 0 -240 97q-78 86 -78 216q1 135 88 222t229 87q140 0 247 -107l-77 -77q-42 42 -79.5 58.5t-90.5 16.5q-81 0 -130 -42q-42 -36 -57 -93h307z" />
    <glyph glyph-name="afii10054" unicode="&#x405;" 
d="M210 270q-89 17 -130 58q-42 42 -42 107q0 80 63 127q66 49 190 49q69 0 124.5 -13.5t122.5 -50.5l-48 -94q-100 50 -191 50q-90 0 -121 -25q-19 -15 -19 -40q0 -23 18 -35q20 -13 59 -19l119 -21q115 -20 165 -72q42 -45 42 -111q0 -93 -71 -140q-78 -51 -214 -51
q-78 0 -129.5 12t-118.5 44l37 99q108 -45 209 -45q99 0 146 33q20 15 20 45q0 22 -20 42q-21 16 -82 29z" />
    <glyph glyph-name="afii10055" unicode="&#x406;" horiz-adv-x="217" 
d="M167 600v-600h-117v600h117z" />
    <glyph glyph-name="afii10056" unicode="&#x407;" horiz-adv-x="217" 
d="M167 600v-600h-117v600h117zM142 714q0 30 19.5 50t49.5 20t51 -20.5t21 -49.5t-21 -50t-51 -21t-49.5 20.5t-19.5 50.5zM-65 714q0 29 21 49.5t50 20.5t50 -20.5t21 -49.5t-21 -50t-50 -21t-50 21t-21 50z" />
    <glyph glyph-name="afii10057" unicode="&#x408;" horiz-adv-x="541" 
d="M376 600h120v-340q0 -130 -71 -200q-73 -71 -194 -71q-129 0 -216 93l71 82q62 -62 140 -62q74 0 111 37q39 39 39 110v351z" />
    <glyph glyph-name="afii10058" unicode="&#x409;" horiz-adv-x="1033" 
d="M214 600h411v-157h139q109 0 178 -71q58 -61 58 -149q0 -95 -62 -157q-66 -66 -174 -66h-259v492h-183l-49 -357q-11 -69 -49 -104t-110 -35q-51 0 -99 18l23 100q31 -8 60 -8q24 0 37 13q15 17 21 45zM881 223q0 45 -30 74q-31 38 -92 38h-134v-227h140q52 0 85 31
q31 28 31 84z" />
    <glyph glyph-name="afii10059" unicode="&#x40a;" horiz-adv-x="971" 
d="M443 600h120v-157h139q109 0 178 -71q59 -62 59 -149q0 -94 -64 -158q-65 -65 -173 -65h-259v264h-276v-264h-117v600h117v-228h276v228zM819 223q0 37 -25 72q-33 40 -97 40h-134v-227h140q52 0 85 31q31 28 31 84z" />
    <glyph glyph-name="afii10060" unicode="&#x40b;" horiz-adv-x="747" 
d="M20 493v107h505v-107h-198v-101q65 34 138 34q116 0 176 -72q54 -63 54 -167v-187h-115v187q0 65 -30 102q-30 32 -85 32q-78 0 -138 -39v-282h-120v493h-187z" />
    <glyph glyph-name="afii10061" unicode="&#x40c;" horiz-adv-x="615" 
d="M49 600h118v-227h77q23 0 38 9q13 9 19 20l68 119q25 45 63 66q37 21 84 21q32 0 67 -9l-12 -101h-32q-27 0 -44 -9q-13 -7 -25 -25l-66 -111q-9 -16 -26 -33l209 -320h-142l-164 268q-15 -4 -34 -4h-80v-264h-118v600zM242 677l87 198l94 -47l-102 -189z" />
    <glyph glyph-name="afii10062" unicode="&#x40e;" horiz-adv-x="681" 
d="M522 600h135l-262 -492q-28 -53 -63 -83q-34 -31 -91 -31q-39 0 -74 8l9 99h44q27 0 41 9q14 8 21 23l5 11l-265 456h140l184 -340h6zM426 785l81 -42q-15 -38 -58 -70q-42 -31 -98 -31q-54 0 -94 31q-44 30 -59 70l81 42q12 -20 25 -32q19 -19 48 -19q27 0 47 16
q16 12 27 35z" />
    <glyph glyph-name="afii10145" unicode="&#x40f;" horiz-adv-x="628" 
d="M169 108h289v492h120v-600h-207l-5 -115h-106l-5 115h-206v600h120v-492z" />
    <glyph glyph-name="afii10017" unicode="&#x410;" horiz-adv-x="704" 
d="M291 600h122l266 -600h-129l-49 107h-301l-48 -107h-127zM344 477l-98 -261h210l-103 261h-9z" />
    <glyph glyph-name="afii10018" unicode="&#x411;" horiz-adv-x="604" 
d="M169 406h186q98 0 157 -57q57 -55 57 -146q0 -85 -56 -141q-59 -62 -158 -62h-306v600h462v-108h-342v-86zM450 203q0 45 -28 70q-25 25 -72 25h-181v-190h186q44 0 72 31q23 24 23 64z" />
    <glyph glyph-name="afii10019" unicode="&#x412;" horiz-adv-x="614" 
d="M347 0h-297v600h290q104 0 156 -47q44 -41 44 -110q0 -31 -13 -58q-13 -29 -40 -48v-6q42 -20 63 -55q24 -39 24 -89q0 -79 -56 -132q-58 -55 -171 -55zM457 188q0 33 -17 53q-26 28 -76 28h-196v-164h185q53 0 79 22q25 19 25 61zM423 434q0 29 -18 44q-17 17 -61 17
h-176v-122h190q28 0 48 17q17 15 17 44z" />
    <glyph glyph-name="afii10020" unicode="&#x413;" horiz-adv-x="531" 
d="M169 492v-492h-120v600h457v-108h-337z" />
    <glyph glyph-name="afii10021" unicode="&#x414;" horiz-adv-x="706" 
d="M192 600h430v-492h58v-222h-103l-12 114h-428l-11 -114h-101v222q57 0 84 31q22 28 30 82zM504 492h-208l-43 -295q-8 -56 -28 -89h279v384z" />
    <glyph glyph-name="afii10022" unicode="&#x415;" horiz-adv-x="574" 
d="M50 0v600h470v-110h-349v-122h312v-109h-312v-150h363v-109h-484z" />
    <glyph glyph-name="afii10024" unicode="&#x416;" horiz-adv-x="951" 
d="M365 373h51v227h118v-227h51q26 0 40 8q9 6 15 19l58 120q22 46 59 66q35 20 85 20q35 0 73 -7l-11 -101h-37q-28 0 -42 -8q-14 -7 -22 -22l-57 -114q-14 -24 -22 -33l201 -321h-142l-159 268q-13 -4 -33 -4h-57v-264h-118v264h-57q-20 0 -33 4l-159 -268h-142l201 321
q-8 9 -22 33l-57 114q-8 15 -22 22q-14 8 -42 8h-37l-11 101q38 7 73 7q50 0 85 -20q37 -20 59 -66l58 -120q6 -13 15 -19q14 -8 40 -8z" />
    <glyph glyph-name="afii10025" unicode="&#x417;" horiz-adv-x="609" 
d="M294 100q86 0 127 32q32 24 32 68q0 32 -23 52q-22 18 -64 18h-217v107h200q35 0 52 18q15 15 15 43q0 25 -22 44q-30 23 -109 23q-88 0 -173 -51l-52 88q104 69 231 69q104 0 162 -31q83 -46 83 -138q0 -31 -12 -58q-14 -27 -36 -43v-4q42 -19 64 -57q22 -37 22 -80
q0 -96 -73 -153q-73 -58 -207 -58q-154 0 -259 76l57 96q58 -35 100 -48t102 -13z" />
    <glyph glyph-name="afii10026" unicode="&#x418;" horiz-adv-x="646" 
d="M165 600v-413l323 413h108v-600h-115v414l-325 -414h-107v600h116z" />
    <glyph glyph-name="afii10027" unicode="&#x419;" horiz-adv-x="639" 
d="M165 600v-413l323 413h108v-600h-115v414l-325 -414h-107v600h116zM408 785l81 -42q-15 -38 -58 -70q-42 -31 -98 -31q-54 0 -94 31q-44 30 -59 70l81 42q12 -20 25 -32q19 -19 48 -19q27 0 47 16q16 12 27 35z" />
    <glyph glyph-name="afii10028" unicode="&#x41a;" horiz-adv-x="615" 
d="M49 600h118v-227h77q23 0 38 9q13 9 19 20l68 119q25 45 63 66q37 21 84 21q32 0 67 -9l-12 -101h-32q-27 0 -44 -9q-13 -7 -25 -25l-66 -111q-9 -16 -26 -33l209 -320h-142l-164 268q-15 -4 -34 -4h-80v-264h-118v600z" />
    <glyph glyph-name="afii10029" unicode="&#x41b;" horiz-adv-x="699" 
d="M218 600h429v-600h-117v492h-210l-49 -357q-9 -68 -47 -103q-40 -36 -108 -36q-54 0 -101 18l26 101q32 -9 57 -9q29 0 43 14q13 12 17 44z" />
    <glyph glyph-name="afii10030" unicode="&#x41c;" horiz-adv-x="750" 
d="M50 600h125l203 -285l197 285h125v-600h-123v408h-4l-177 -255h-46l-178 256h-4v-409h-118v600z" />
    <glyph glyph-name="afii10031" unicode="&#x41d;" horiz-adv-x="631" 
d="M463 600h118v-600h-118v265h-293v-265h-120v600h120v-228h293v228z" />
    <glyph glyph-name="afii10032" unicode="&#x41e;" horiz-adv-x="693" 
d="M346 611q135 0 225 -88q92 -90 92 -223q0 -130 -86 -218q-90 -93 -231 -93q-145 0 -234 97q-39 40 -61 97t-22 117q0 125 84 214q91 97 233 97zM148 300q0 -81 54 -140q59 -62 144 -62q88 0 143 61q53 58 53 141q0 89 -52 146q-55 57 -144 57t-144 -60q-54 -57 -54 -143z
" />
    <glyph glyph-name="afii10033" unicode="&#x41f;" horiz-adv-x="622" 
d="M49 600h523v-600h-120v492h-283v-492h-120v600z" />
    <glyph glyph-name="afii10034" unicode="&#x420;" horiz-adv-x="599" 
d="M569 378q0 -90 -67 -155q-67 -64 -162 -64h-169v-159h-122v600h291q110 0 178 -81q51 -64 51 -141zM339 268q50 0 80 35q29 32 29 75q0 48 -26 79q-27 33 -91 33h-160v-222h168z" />
    <glyph glyph-name="afii10035" unicode="&#x421;" horiz-adv-x="622" 
d="M148 301q0 -89 54 -143q60 -60 143 -60q93 0 176 76l71 -79q-56 -57 -113 -81.5t-134 -24.5q-138 0 -226 86q-90 88 -90 226q0 130 88 220q90 90 228 90q77 0 133.5 -23.5t113.5 -78.5l-71 -81q-81 75 -176 75q-80 0 -138 -56q-59 -59 -59 -146z" />
    <glyph glyph-name="afii10036" unicode="&#x422;" horiz-adv-x="598" 
d="M24 492v108h549v-108h-216v-492h-117v492h-216z" />
    <glyph glyph-name="afii10037" unicode="&#x423;" horiz-adv-x="682" 
d="M522 600h135l-262 -492q-28 -53 -63 -83q-34 -31 -91 -31q-39 0 -74 8l9 99h44q27 0 41 9q14 8 21 23l5 11l-265 456h140l184 -340h6z" />
    <glyph glyph-name="afii10038" unicode="&#x424;" horiz-adv-x="809" 
d="M280 552h65v59h117v-59h65q115 0 185 -76q65 -68 65 -166q0 -103 -74 -174q-70 -67 -176 -67h-65v-69h-117v69h-65q-106 0 -176 67q-74 71 -74 174q0 98 65 166q70 76 185 76zM520 441h-58v-262h58q69 0 103 34q37 37 37 97q0 58 -37 95q-33 36 -103 36zM345 441h-58
q-70 0 -103 -36q-37 -37 -37 -95q0 -60 37 -97q34 -34 103 -34h58v262z" />
    <glyph glyph-name="afii10039" unicode="&#x425;" horiz-adv-x="667" 
d="M185 600l147 -211l139 211h141l-202 -289l227 -311h-151l-160 231l-159 -231h-140l221 310l-214 290h151z" />
    <glyph glyph-name="afii10040" unicode="&#x426;" horiz-adv-x="657" 
d="M169 108h289v492h120v-492h53v-223h-102l-11 115h-469v600h120v-492z" />
    <glyph glyph-name="afii10041" unicode="&#x427;" horiz-adv-x="636" 
d="M586 0h-120v168q-75 -32 -154 -32q-137 0 -205 74q-63 69 -63 197v193h118v-188q0 -81 40 -124q43 -43 117 -43q84 0 147 33v322h120v-600z" />
    <glyph glyph-name="afii10042" unicode="&#x428;" horiz-adv-x="882" 
d="M500 600v-492h211v492h120v-600h-781v600h119v-492h211v492h120z" />
    <glyph glyph-name="afii10043" unicode="&#x429;" horiz-adv-x="912" 
d="M500 600v-492h211v492h120v-492h54v-223h-103l-11 115h-721v600h119v-492h211v492h120z" />
    <glyph glyph-name="afii10044" unicode="&#x42a;" horiz-adv-x="690" 
d="M658 223q0 -94 -62 -158q-63 -65 -174 -65h-276v492l-126 7v101h246v-157h156q110 0 179 -71q57 -64 57 -149zM540 223q0 46 -29 78q-31 34 -94 34h-151v-227h157q55 0 85 30q32 32 32 85z" />
    <glyph glyph-name="afii10045" unicode="&#x42b;" horiz-adv-x="791" 
d="M563 223q0 -93 -64 -159q-64 -64 -172 -64h-278v600h120v-157h158q108 0 177 -71q59 -62 59 -149zM443 223q0 48 -27 78q-31 34 -94 34h-153v-227h159q56 0 87 33q28 31 28 82zM740 600v-600h-119v600h119z" />
    <glyph glyph-name="afii10046" unicode="&#x42c;" horiz-adv-x="593" 
d="M563 223q0 -93 -64 -159q-64 -64 -174 -64h-276v600h120v-157h156q118 0 182 -69q56 -62 56 -151zM443 223q0 51 -25 77q-33 35 -98 35h-151v-227h157q53 0 85 32q32 29 32 83z" />
    <glyph glyph-name="afii10047" unicode="&#x42d;" horiz-adv-x="623" 
d="M156 257v110h307q-12 55 -57 93q-50 42 -130 42q-55 0 -95.5 -16t-81.5 -56l-72 81q55 55 113 77.5t136 22.5q142 0 229 -87t88 -222q0 -130 -78 -216q-89 -97 -240 -97q-79 0 -137.5 23.5t-110.5 80.5l75 80q42 -41 81.5 -58t91.5 -17q85 0 138 52q46 44 53 107h-310z
" />
    <glyph glyph-name="afii10048" unicode="&#x42e;" horiz-adv-x="881" 
d="M545 611q132 0 221 -92q86 -91 86 -219q0 -138 -97 -230q-84 -81 -210 -81q-131 0 -221 93q-62 64 -81 172h-76v-254h-117v600h117v-238h77q18 88 81 157q84 92 220 92zM732 300q0 85 -53 145q-52 58 -134 58q-86 0 -138 -63q-47 -57 -47 -140q0 -79 49 -137
q54 -66 136 -66q74 0 130 56q57 57 57 147z" />
    <glyph glyph-name="afii10049" unicode="&#x42f;" horiz-adv-x="606" 
d="M33 378q0 91 60 151q69 71 173 71h290v-600h-118v158h-172l-105 -158h-139l126 185q-45 26 -76 68q-39 54 -39 125zM154 378q0 -37 21 -67q31 -45 91 -45h172v226h-172q-55 0 -89 -45q-23 -29 -23 -69z" />
    <glyph glyph-name="afii10065" unicode="&#x430;" horiz-adv-x="611" 
d="M247 500h117l222 -500h-131l-37 86h-228l-37 -86h-128zM300 362l-64 -168h134l-63 168h-7z" />
    <glyph glyph-name="afii10066" unicode="&#x431;" horiz-adv-x="524" 
d="M171 338h132q83 0 138 -52q48 -45 48 -115q0 -72 -48 -120q-51 -51 -138 -51h-253v500h391v-105h-270v-57zM171 229v-122h128q43 0 62 27q10 16 10 37q0 23 -16 40q-20 18 -54 18h-130z" />
    <glyph glyph-name="afii10067" unicode="&#x432;" horiz-adv-x="533" 
d="M308 0h-258v500h249q88 0 133 -47q36 -36 36 -87q0 -28 -12 -51q-10 -22 -35 -36v-4q34 -15 53 -46t19 -69q0 -68 -43 -111q-49 -49 -142 -49zM374 157q0 21 -12 33q-13 16 -45 16h-147v-101h144q30 0 46 16q14 14 14 36zM348 353q0 17 -12 29t-38 12h-128v-82h128
q25 0 38 11q12 11 12 30z" />
    <glyph glyph-name="afii10068" unicode="&#x433;" horiz-adv-x="472" 
d="M170 393v-393h-120v500h387v-107h-267z" />
    <glyph glyph-name="afii10069" unicode="&#x434;" horiz-adv-x="615" 
d="M168 500h367v-393h50v-198h-107l-9 91h-329l-9 -91h-106v198h19q30 0 48 18q19 19 26 64zM415 394h-146l-35 -227q-6 -40 -24 -60h205v287z" />
    <glyph glyph-name="afii10070" unicode="&#x435;" horiz-adv-x="502" 
d="M50 0v500h403v-108h-283v-86h253v-107h-253v-92h292v-107h-412z" />
    <glyph glyph-name="afii10072" unicode="&#x436;" horiz-adv-x="820" 
d="M351 0v211h-38q-10 0 -24 2l-119 -213h-142l161 265q-13 13 -17 23l-45 90q-4 10 -13 15q-10 5 -29 5h-39l-10 100q27 7 68 7q44 0 75 -17q32 -18 51 -55l48 -99q5 -8 10 -12q4 -4 15 -4h48v182h118v-182h48q11 0 15 4q5 4 10 12l48 99q19 37 51 55q31 17 75 17
q41 0 68 -7l-10 -100h-39q-19 0 -29 -5q-9 -5 -13 -15l-45 -90q-4 -10 -17 -23l161 -265h-142l-119 213q-14 -2 -24 -2h-38v-211h-118z" />
    <glyph glyph-name="afii10073" unicode="&#x437;" horiz-adv-x="524" 
d="M250 98q67 0 96 22q21 16 21 45q0 25 -13 34q-19 12 -42 12h-186v104h169q19 0 29 9q14 11 14 31q0 25 -20 36q-22 14 -76 14q-69 0 -154 -36l-40 86q90 54 199 54q112 0 168 -53q43 -41 43 -99q0 -21 -11 -46q-11 -19 -27 -32v-4q38 -19 54 -51q15 -36 15 -60
q0 -68 -46 -114q-62 -59 -193 -59q-111 0 -220 57l42 93q60 -26 92 -34.5t86 -8.5z" />
    <glyph glyph-name="afii10074" unicode="&#x438;" horiz-adv-x="561" 
d="M167 500v-306l238 306h106v-500h-116v307l-239 -307h-106v500h117z" />
    <glyph glyph-name="afii10075" unicode="&#x439;" horiz-adv-x="552" 
d="M167 500v-306l238 306h106v-500h-116v307l-239 -307h-106v500h117zM274 542q-55 0 -94 28q-41 29 -59 71l85 42q9 -16 20 -28q19 -19 50 -19q30 0 49 19q11 11 21 28l84 -42q-16 -41 -56 -69q-43 -30 -100 -30z" />
    <glyph glyph-name="afii10076" unicode="&#x43a;" horiz-adv-x="542" 
d="M50 500h119v-182h55q16 0 26 7q9 6 15 18l45 90q16 34 46 52q33 21 81 21q45 0 71 -8l-16 -101h-38q-18 0 -28 -7q-9 -5 -16 -20l-42 -82q-5 -12 -17 -22l161 -266h-139l-120 214q-10 -3 -23 -3h-61v-211h-119v500z" />
    <glyph glyph-name="afii10077" unicode="&#x43b;" horiz-adv-x="615" 
d="M190 500h375v-500h-120v392h-151l-40 -276q-8 -53 -45 -86q-39 -34 -96 -34q-54 0 -98 19l33 98q26 -9 50 -9q19 0 29 10t12 28z" />
    <glyph glyph-name="afii10078" unicode="&#x43c;" horiz-adv-x="645" 
d="M50 500h118l155 -230l154 230h118v-500h-120v301h-4l-124 -189h-50l-126 189h-4v-301h-117v500z" />
    <glyph glyph-name="afii10079" unicode="&#x43d;" horiz-adv-x="554" 
d="M382 500h120v-500h-120v211h-212v-211h-120v500h120v-181h212v181z" />
    <glyph glyph-name="afii10080" unicode="&#x43e;" 
d="M296 509q116 0 192 -78q73 -73 73 -181q0 -114 -78 -187q-75 -72 -187 -72q-117 0 -191 74q-76 76 -76 185q0 111 82 188q76 71 185 71zM150 250q0 -69 42 -108q41 -44 104 -44q60 0 101 41q43 38 43 111q0 71 -43 112q-43 40 -101 40q-64 0 -105 -44q-41 -39 -41 -108z
" />
    <glyph glyph-name="afii10081" unicode="&#x43f;" horiz-adv-x="558" 
d="M170 392v-392h-120v500h458v-500h-122v392h-216z" />
    <glyph glyph-name="afii10082" unicode="&#x440;" horiz-adv-x="519" 
d="M489 313q0 -83 -56 -134q-55 -52 -143 -52h-120v-127h-120v500h240q92 0 151 -62q48 -53 48 -125zM290 234q38 0 60 25q19 22 19 54q0 31 -15 50q-21 30 -69 30h-115v-159h120z" />
    <glyph glyph-name="afii10083" unicode="&#x441;" horiz-adv-x="552" 
d="M156 251q0 -66 41 -107q42 -45 108 -45q72 0 140 62l74 -78q-51 -49 -100 -70.5t-114 -21.5q-136 0 -213 91q-58 71 -58 169q0 116 86 192q78 66 185 66q64 0 114 -21t100 -71l-76 -77q-34 35 -65.5 48t-72.5 13q-71 0 -109 -41q-40 -43 -40 -109z" />
    <glyph glyph-name="afii10084" unicode="&#x442;" horiz-adv-x="513" 
d="M25 393v107h463v-107h-172v-393h-120v393h-171z" />
    <glyph glyph-name="afii10085" unicode="&#x443;" horiz-adv-x="590" 
d="M432 500h133l-212 -409q-27 -51 -64 -75q-27 -20 -74 -20q-39 0 -71 8l7 95h45q14 0 24 5q10 4 15 16l2 4l-212 376h139l138 -263h4z" />
    <glyph glyph-name="afii10086" unicode="&#x444;" horiz-adv-x="685" 
d="M402 509v-50h48q98 0 159 -73q49 -55 49 -129q0 -82 -59 -141q-63 -60 -149 -60h-48v-56h-119v56h-48q-90 0 -149 62t-59 139q0 78 56 140q57 62 152 62h48v50h119zM170 192q25 -28 71 -28h42v188h-42q-45 0 -70 -28q-27 -26 -27 -67t26 -65zM445 352h-43v-188h43
q43 0 70 27q26 28 26 66q0 32 -24 63q-27 32 -72 32z" />
    <glyph glyph-name="afii10087" unicode="&#x445;" horiz-adv-x="575" 
d="M178 500l109 -169l106 169h141l-165 -240l181 -260h-147l-118 183l-122 -183h-138l177 256l-168 244h144z" />
    <glyph glyph-name="afii10088" unicode="&#x446;" horiz-adv-x="569" 
d="M170 108h206v392h121v-392h47v-200h-105l-9 92h-380v500h120v-392z" />
    <glyph glyph-name="afii10089" unicode="&#x447;" horiz-adv-x="551" 
d="M501 0h-121v128q-47 -19 -109 -19q-110 0 -172 65q-59 64 -59 165v161h121v-157q0 -65 28 -97q25 -30 84 -30q61 0 107 28v256h121v-500z" />
    <glyph glyph-name="afii10090" unicode="&#x448;" horiz-adv-x="759" 
d="M439 500v-393h150v393h120v-500h-659v500h120v-393h149v393h120z" />
    <glyph glyph-name="afii10091" unicode="&#x449;" horiz-adv-x="778" 
d="M710 500v-393h43v-198h-105l-10 91h-588v500h120v-393h150v393h120v-393h150v393h120z" />
    <glyph glyph-name="afii10092" unicode="&#x44a;" horiz-adv-x="587" 
d="M557 188q0 -80 -57 -135q-53 -53 -141 -53h-238v393l-101 6v101h221v-126h118q88 0 142 -54q56 -56 56 -132zM437 188q0 36 -19 54q-24 24 -63 24h-114v-158h119q35 0 57 22q20 20 20 58z" />
    <glyph glyph-name="afii10093" unicode="&#x44b;" horiz-adv-x="701" 
d="M486 188q0 -73 -45 -124q-57 -64 -152 -64h-239v500h120v-126h119q92 0 154 -69q43 -49 43 -117zM366 188q0 23 -14 49q-24 29 -66 29h-116v-158h123q36 0 54 23q19 18 19 57zM529 500h122v-500h-122v500z" />
    <glyph glyph-name="afii10094" unicode="&#x44c;" horiz-adv-x="516" 
d="M486 188q0 -83 -56 -136q-55 -52 -142 -52h-238v500h120v-126h119q91 0 147 -59q50 -52 50 -127zM366 188q0 33 -18 54q-21 24 -65 24h-113v-158h120q37 0 58 24q18 21 18 56z" />
    <glyph glyph-name="afii10095" unicode="&#x44d;" horiz-adv-x="553" 
d="M153 203v108h242q-6 39 -40 64q-40 28 -95 28q-82 0 -145 -62l-72 74q86 94 218 94q122 0 195 -76q67 -70 68 -183q0 -118 -78 -193q-69 -66 -186 -66q-127 0 -220 93l71 79q71 -65 149 -65q57 0 96 32q34 29 41 73h-244z" />
    <glyph glyph-name="afii10096" unicode="&#x44e;" horiz-adv-x="763" 
d="M475 509q116 0 189 -79q69 -75 69 -180q0 -108 -71 -182q-74 -77 -187 -77q-107 0 -179 69q-61 59 -76 142h-49v-202h-121v500h121v-190h51q19 84 79 136q71 63 174 63zM612 250q0 62 -33 105q-39 47 -104 47q-56 0 -91 -35q-47 -45 -47 -117q0 -68 37 -107
q38 -44 101 -44q61 0 100 45q37 40 37 106z" />
    <glyph glyph-name="afii10097" unicode="&#x44f;" horiz-adv-x="528" 
d="M36 313q0 67 38 117q57 70 167 70h237v-500h-120v126h-123l-70 -126h-138l96 156q-36 26 -62 67q-25 41 -25 90zM158 313q0 -31 18 -54q24 -26 66 -26h116v159h-118q-44 0 -65 -24q-17 -23 -17 -55z" />
    <glyph glyph-name="afii10071" unicode="&#x451;" horiz-adv-x="485" 
d="M50 0v500h403v-108h-283v-86h253v-107h-253v-92h292v-107h-412zM273 611q0 28 19 47.5t48 19.5q28 0 47.5 -19.5t19.5 -47.5t-19.5 -47.5t-47.5 -19.5q-29 0 -48 19.5t-19 47.5zM77 611q0 28 19.5 47.5t47.5 19.5t47.5 -19.5t19.5 -47.5t-19.5 -47.5t-47.5 -19.5
t-47.5 19.5t-19.5 47.5z" />
    <glyph glyph-name="afii10099" unicode="&#x452;" horiz-adv-x="699" 
d="M18 393v107h478v-107h-179v-56q43 21 99 21q89 0 148 -49q78 -61 78 -166v-65q0 -68 -25 -110q-25 -45 -94 -91l-66 68q37 35 50 63q14 30 14 74v58q0 60 -27 84q-28 27 -82 27q-53 0 -95 -23v-228h-120v393h-179z" />
    <glyph glyph-name="afii10100" unicode="&#x453;" horiz-adv-x="472" 
d="M170 393v-393h-120v500h387v-107h-267zM202 585l71 177l101 -51l-91 -164z" />
    <glyph glyph-name="afii10101" unicode="&#x454;" horiz-adv-x="553" 
d="M411 311v-108h-244q7 -44 41 -73q39 -32 96 -32q78 0 149 65l71 -79q-93 -93 -220 -93q-117 0 -186 66q-78 75 -78 193q1 113 68 183q73 76 195 76q132 0 218 -94l-72 -74q-63 62 -145 62q-55 0 -95 -28q-34 -25 -40 -64h242z" />
    <glyph glyph-name="afii10102" unicode="&#x455;" horiz-adv-x="520" 
d="M43 363q0 68 56 107q59 39 161 39q108 0 211 -50l-43 -96q-86 39 -165 39q-57 0 -80 -11q-18 -11 -18 -27q0 -14 10 -21q13 -12 44 -16l95 -16q101 -20 140 -58q36 -41 36 -96q0 -66 -44 -108q-62 -58 -199 -58q-64 0 -111 11.5t-102 41.5l46 97q86 -41 166 -41
q64 0 100 17q25 15 25 38q0 15 -17 24q-19 11 -58 18l-108 19q-74 13 -109 50q-36 38 -36 97z" />
    <glyph glyph-name="afii10103" unicode="&#x456;" horiz-adv-x="222" 
d="M50 500h122v-500h-122v500z" />
    <glyph glyph-name="afii10104" unicode="&#x457;" horiz-adv-x="222" 
d="M50 500h122v-500h-122v500zM144 611q0 28 19 47.5t48 19.5q28 0 47.5 -19.5t19.5 -47.5t-19.5 -47.5t-47.5 -19.5q-29 0 -48 19.5t-19 47.5zM-52 611q0 28 19.5 47.5t47.5 19.5t47.5 -19.5t19.5 -47.5t-19.5 -47.5t-47.5 -19.5t-47.5 19.5t-19.5 47.5z" />
    <glyph glyph-name="afii10105" unicode="&#x458;" horiz-adv-x="473" 
d="M307 500h121v-281q0 -112 -63 -172q-61 -56 -162 -56q-118 0 -188 87l74 75q49 -52 115 -52q48 0 77 33q26 31 26 79v287z" />
    <glyph glyph-name="afii10106" unicode="&#x459;" horiz-adv-x="912" 
d="M192 500h370v-126h122q91 0 148 -60q50 -53 50 -126q0 -76 -52 -130q-55 -58 -146 -58h-243v392h-142l-40 -276q-11 -66 -51 -95q-38 -25 -98 -25q-53 0 -95 19l25 98q32 -9 55 -9t36 12q11 11 12 26zM762 188q0 32 -18 52q-24 26 -63 26h-119v-158h126q34 0 56 25
q18 25 18 55z" />
    <glyph glyph-name="afii10107" unicode="&#x45a;" horiz-adv-x="857" 
d="M386 500h121v-126h121q44 0 85 -18t68 -47q46 -51 46 -121q0 -72 -50 -128q-57 -60 -149 -60h-242v211h-216v-211h-120v500h120v-181h216v181zM707 188q0 28 -17 51q-20 27 -64 27h-119v-158h126q37 0 55 23q19 20 19 57z" />
    <glyph glyph-name="afii10108" unicode="&#x45b;" horiz-adv-x="692" 
d="M18 393v107h478v-107h-179v-56q43 21 99 21q89 0 148 -49q78 -61 78 -166v-143h-121v140q0 60 -27 84q-28 27 -82 27q-53 0 -95 -23v-228h-120v393h-179z" />
    <glyph glyph-name="afii10109" unicode="&#x45c;" horiz-adv-x="542" 
d="M50 500h119v-182h55q16 0 26 7q9 6 15 18l45 90q16 34 46 52q33 21 81 21q45 0 71 -8l-16 -101h-38q-18 0 -28 -7q-9 -5 -16 -20l-42 -82q-5 -12 -17 -22l161 -266h-139l-120 214q-10 -3 -23 -3h-61v-211h-119v500zM222 585l71 177l101 -51l-91 -164z" />
    <glyph glyph-name="afii10110" unicode="&#x45e;" horiz-adv-x="590" 
d="M432 500h133l-212 -409q-27 -51 -64 -75q-27 -20 -74 -20q-39 0 -71 8l7 95h45q14 0 24 5q10 4 15 16l2 4l-212 376h139l138 -263h4zM302 542q-55 0 -94 28q-41 29 -59 71l85 42q9 -16 20 -28q19 -19 50 -19q30 0 49 19q11 11 21 28l84 -42q-16 -41 -56 -69
q-43 -30 -100 -30z" />
    <glyph glyph-name="afii10193" unicode="&#x45f;" horiz-adv-x="555" 
d="M170 108h214v392h121v-500h-170l-6 -92h-104l-6 92h-169v500h120v-392z" />
    <glyph glyph-name="afii10146" unicode="&#x462;" horiz-adv-x="589" 
d="M-1 457v99h46v44h120v-44h148v-99h-148v-27h156q125 0 190 -78q48 -54 48 -136q0 -100 -70 -162q-60 -54 -168 -54h-276v457h-46zM439 216q0 38 -19 67q-31 38 -102 38h-153v-213h157q66 0 97 38q20 29 20 70z" />
    <glyph glyph-name="afii10194" unicode="&#x463;" horiz-adv-x="516" 
d="M5 402v98h45v89h120v-89h122v-98h-122v-28h118q44 0 84.5 -18t67.5 -48q46 -49 46 -120q0 -75 -50 -128q-57 -60 -148 -60h-238v402h-45zM366 188q0 26 -15 51q-23 27 -66 27h-115v-158h122q37 0 55 23q19 19 19 57z" />
    <glyph glyph-name="afii10147" unicode="&#x472;" horiz-adv-x="693" 
d="M346 611q139 0 226 -87q89 -92 89 -224q0 -128 -83 -216q-90 -95 -232 -95q-133 0 -224 86q-93 88 -93 225q0 123 80 211q92 100 237 100zM457 218q-70 0 -128 38q-46 27 -99 27q-41 0 -80 -17q9 -61 50 -105q56 -64 146 -64q89 0 145 64q33 36 46 82q-38 -25 -80 -25z
M346 503q-72 0 -128 -43q-43 -34 -62 -87q39 17 84 17q60 0 113 -30q52 -32 109 -32q51 0 76 14q-10 53 -47 98q-60 63 -145 63z" />
    <glyph glyph-name="afii10195" unicode="&#x473;" 
d="M296 509q116 0 192 -78q73 -73 73 -181q0 -114 -78 -187q-75 -72 -187 -72q-116 0 -191 75t-75 184q0 113 81 189q75 70 185 70zM364 178q-47 0 -88 28q-32 21 -73 21q-21 0 -49 -15q7 -40 38 -71q40 -43 104 -43q55 0 96 32q33 28 43 64q-46 -16 -71 -16zM296 402
q-52 0 -88 -24q-36 -27 -50 -62q30 13 62 13q55 0 102 -28q31 -19 72 -19q23 0 42 10q-15 50 -39 70q-43 40 -101 40z" />
    <glyph glyph-name="afii10148" unicode="&#x474;" horiz-adv-x="691" 
d="M408 0h-129l-251 600h127l181 -466h8l37 125q29 99 81 182q61 99 155 187l74 -71q-78 -83 -131 -173q-37 -66 -73 -164z" />
    <glyph glyph-name="afii10196" unicode="&#x475;" horiz-adv-x="593" 
d="M371 0h-135l-211 500h130l149 -375h6l22 95q19 82 66 156q50 81 122 151l83 -71q-69 -68 -111 -147q-28 -49 -56 -127z" />
    <glyph glyph-name="afii10050" unicode="&#x490;" horiz-adv-x="544" 
d="M169 492v-492h-120v600h358l10 93l102 -4v-197h-350z" />
    <glyph glyph-name="afii10098" unicode="&#x491;" horiz-adv-x="472" 
d="M170 393v-393h-120v500h273l8 79h106v-186h-267z" />
    <glyph glyph-name="uni04D8" unicode="&#x4d8;" horiz-adv-x="682" 
d="M163 435l-74 80q55 51 113 73.5t137 22.5q140 0 231 -93q82 -82 82 -218q0 -131 -83 -220q-88 -91 -228 -91q-153 0 -241 107q-70 88 -70 204q0 42 6 72h486q-16 58 -57 91q-49 41 -126 41q-107 0 -176 -69zM341 96q84 0 135 51q45 46 56 119h-379q12 -77 47 -112
q58 -58 141 -58z" />
    <glyph glyph-name="afii10846" unicode="&#x4d9;" horiz-adv-x="583" 
d="M135 347l-69 78q92 84 220 84q111 0 184 -64q83 -76 83 -196q0 -112 -76 -186q-75 -72 -186 -72q-113 0 -188 75q-73 71 -73 183q0 33 6 68h383q-12 39 -44 60q-37 25 -89 25q-50 0 -82 -12t-69 -43zM391 139q30 30 39 71h-277q7 -43 35 -69q40 -43 103 -43q59 0 100 41z
" />
    <glyph glyph-name="Wgrave" unicode="&#x1e80;" horiz-adv-x="952" 
d="M363 0h-162l-176 600h129l127 -480h4l108 480h162l116 -480h4l123 480h128l-177 -600h-163l-114 454h-4zM450 875l87 -198l-79 -38l-102 189z" />
    <glyph glyph-name="wgrave" unicode="&#x1e81;" horiz-adv-x="850" 
d="M326 0h-140l-156 500h129l98 -361h4l99 361h130l101 -362h5l96 362h128l-155 -500h-142l-98 326h-4zM406 762l71 -177l-81 -38l-91 164z" />
    <glyph glyph-name="Wacute" unicode="&#x1e82;" horiz-adv-x="952" 
d="M363 0h-162l-176 600h129l127 -480h4l108 480h162l116 -480h4l123 480h128l-177 -600h-163l-114 454h-4zM432 677l87 198l94 -47l-102 -189z" />
    <glyph glyph-name="wacute" unicode="&#x1e83;" horiz-adv-x="850" 
d="M326 0h-140l-156 500h129l98 -361h4l99 361h130l101 -362h5l96 362h128l-155 -500h-142l-98 326h-4zM391 585l71 177l101 -51l-91 -164z" />
    <glyph glyph-name="Wdieresis" unicode="&#x1e84;" horiz-adv-x="952" 
d="M363 0h-162l-176 600h129l127 -480h4l108 480h162l116 -480h4l123 480h128l-177 -600h-163l-114 454h-4zM508 714q0 30 19.5 50t49.5 20t51 -20.5t21 -49.5t-21 -50t-51 -21t-49.5 20.5t-19.5 50.5zM301 714q0 29 21 49.5t50 20.5t50 -20.5t21 -49.5t-21 -50t-50 -21
t-50 21t-21 50z" />
    <glyph glyph-name="wdieresis" unicode="&#x1e85;" horiz-adv-x="850" 
d="M326 0h-140l-156 500h129l98 -361h4l99 361h130l101 -362h5l96 362h128l-155 -500h-142l-98 326h-4zM457 611q0 28 19 47.5t48 19.5q28 0 47.5 -19.5t19.5 -47.5t-19.5 -47.5t-47.5 -19.5q-29 0 -48 19.5t-19 47.5zM261 611q0 28 19.5 47.5t47.5 19.5t47.5 -19.5
t19.5 -47.5t-19.5 -47.5t-47.5 -19.5t-47.5 19.5t-19.5 47.5z" />
    <glyph glyph-name="Ygrave" unicode="&#x1ef2;" horiz-adv-x="679" 
d="M399 0h-118v145l-259 455h138l175 -329h10l178 329h131l-255 -456v-144zM331 875l87 -198l-79 -38l-102 189z" />
    <glyph glyph-name="ygrave" unicode="&#x1ef3;" horiz-adv-x="592" 
d="M356 0h-120v121l-211 379h136l135 -260h6l131 260h134l-211 -380v-120zM268 762l71 -177l-81 -38l-91 164z" />
    <glyph glyph-name="endash" unicode="&#x2013;" horiz-adv-x="449" 
d="M33 310h382v-96h-382v96z" />
    <glyph glyph-name="emdash" unicode="&#x2014;" horiz-adv-x="527" 
d="M33 310h460v-96h-460v96z" />
    <glyph glyph-name="quoteleft" unicode="&#x2018;" horiz-adv-x="178" 
d="M89 486q-28 0 -44.5 16t-16.5 41q0 12 6 28l40 103l58 -16l-11 -62q28 -15 28 -53q0 -25 -16 -41t-44 -16z" />
    <glyph glyph-name="quoteright" unicode="&#x2019;" horiz-adv-x="178" 
d="M88 621q28 0 44.5 -16t16.5 -41q0 -12 -6 -28l-40 -103l-58 16l11 62q-28 15 -28 53q0 25 16 41t44 16z" />
    <glyph glyph-name="quotesinglbase" unicode="&#x201a;" horiz-adv-x="178" 
d="M88 109q28 0 44.5 -16t16.5 -41q0 -12 -6 -28l-40 -103l-58 16l11 62q-28 15 -28 53q0 25 16 41t44 16z" />
    <glyph glyph-name="quotedblleft" unicode="&#x201c;" horiz-adv-x="321" 
d="M232 486q-28 0 -44.5 16t-16.5 41q0 12 6 28l40 103l58 -16l-11 -62q28 -15 28 -53q0 -25 -16 -41t-44 -16zM89 486q-28 0 -44.5 16t-16.5 41q0 12 6 28l40 103l58 -16l-11 -62q28 -15 28 -53q0 -25 -16 -41t-44 -16z" />
    <glyph glyph-name="quotedblright" unicode="&#x201d;" horiz-adv-x="321" 
d="M230 621q28 0 44.5 -16t16.5 -41q0 -12 -6 -28l-40 -103l-58 16l11 62q-28 15 -28 53q0 25 16 41t44 16zM88 621q28 0 44.5 -16t16.5 -41q0 -12 -6 -28l-40 -103l-58 16l11 62q-28 15 -28 53q0 25 16 41t44 16z" />
    <glyph glyph-name="quotedblbase" unicode="&#x201e;" horiz-adv-x="321" 
d="M88 109q28 0 44.5 -16t16.5 -41q0 -12 -6 -28l-40 -103l-58 16l11 62q-28 15 -28 53q0 25 16 41t44 16zM230 109q28 0 44.5 -16t16.5 -41q0 -12 -6 -28l-40 -103l-58 16l11 62q-28 15 -28 53q0 25 16 41t44 16z" />
    <glyph glyph-name="dagger" unicode="&#x2020;" horiz-adv-x="321" 
d="M127 116l-6 95v60l4 57l-39 -5h-35l-29 28v18l29 28h35l38 -3l-3 34v44l28 28h22l29 -28v-44l-5 -36l37 5h38l30 -28v-18l-30 -28h-38l-37 5l5 -57v-60l-7 -95l-21 -151h-24z" />
    <glyph glyph-name="daggerdbl" unicode="&#x2021;" horiz-adv-x="321" 
d="M196 204l4 -32l-29 -207h-22l-28 207l3 32l-38 -4h-35l-29 29v17l29 29h35l38 -4l-3 28l3 27l-38 -3h-35l-29 28v18l29 28h35l38 -3l-3 34v44l28 28h22l29 -28v-44l-5 -36l37 5h38l30 -28v-18l-30 -28h-38l-36 3l4 -27l-4 -28l36 4h38l30 -29v-17l-30 -29h-38z" />
    <glyph glyph-name="bullet" unicode="&#x2022;" horiz-adv-x="220" 
d="M33 323q0 34 22.5 56.5t54.5 22.5q33 0 55 -22.5t22 -56.5q0 -32 -22 -54.5t-55 -22.5q-32 0 -54.5 22.5t-22.5 54.5z" />
    <glyph glyph-name="onedotenleader" unicode="&#x2024;" horiz-adv-x="219" 
d="M35 67q0 32 20 52t54 20q35 0 55 -19.5t20 -52.5q0 -31 -20 -51.5t-55 -20.5q-33 0 -53.5 20.5t-20.5 51.5z" />
    <glyph glyph-name="twodotenleader" unicode="&#x2025;" horiz-adv-x="415" 
d="M35 67q0 32 20 52t54 20q35 0 55 -19.5t20 -52.5q0 -31 -20 -51.5t-55 -20.5q-33 0 -53.5 20.5t-20.5 51.5zM230 67q0 32 20 52t54 20q35 0 55 -19.5t20 -52.5q0 -31 -20.5 -51.5t-54.5 -20.5q-33 0 -53.5 20.5t-20.5 51.5z" />
    <glyph glyph-name="ellipsis" unicode="&#x2026;" horiz-adv-x="611" 
d="M35 67q0 32 20 52t54 20q35 0 55 -19.5t20 -52.5q0 -31 -20 -51.5t-55 -20.5q-33 0 -53.5 20.5t-20.5 51.5zM230 67q0 32 20 52t54 20q35 0 55 -19.5t20 -52.5q0 -31 -20.5 -51.5t-54.5 -20.5q-33 0 -53.5 20.5t-20.5 51.5zM426 67q0 32 20 52t54 20q35 0 55 -19.5
t20 -52.5q0 -31 -20.5 -51.5t-54.5 -20.5q-33 0 -53.5 20.5t-20.5 51.5z" />
    <glyph glyph-name="perthousand" unicode="&#x2030;" horiz-adv-x="1014" 
d="M142 28l333 488l74 -48l-338 -486zM524 -9q-62 0 -104 42t-42 104q0 63 43 106q43 40 103 40q73 0 115 -51q32 -40 32 -95q0 -56 -35 -97q-43 -49 -112 -49zM585 139q0 26 -17 43q-18 18 -44 18t-43 -17q-19 -16 -19 -44q0 -29 18 -46q18 -18 44 -18q28 0 46 20
q15 17 15 44zM166 217q-62 0 -104 42t-42 104q0 63 43 106q43 40 103 40q73 0 115 -51q32 -40 32 -95q0 -56 -35 -97q-43 -49 -112 -49zM227 365q0 27 -17 44q-15 17 -44 17q-26 0 -43 -17q-19 -16 -19 -44q0 -29 18 -46q18 -18 44 -18q28 0 46 20q15 16 15 44zM847 -9
q-62 0 -104 42t-42 104q0 63 43 106q43 40 103 40q73 0 115 -51q32 -40 32 -95q0 -56 -35 -97q-43 -49 -112 -49zM908 139q0 26 -17 43q-18 18 -44 18t-43 -17q-19 -16 -19 -44q0 -29 18 -46q18 -18 44 -18q28 0 46 20q15 17 15 44z" />
    <glyph glyph-name="guilsinglleft" unicode="&#x2039;" horiz-adv-x="301" 
d="M227 421l44 -64l-129 -105l129 -107l-44 -64l-207 144v52z" />
    <glyph glyph-name="guilsinglright" unicode="&#x203a;" horiz-adv-x="301" 
d="M61 81l-44 64l128 105l-128 107l44 64l206 -144v-52z" />
    <glyph glyph-name="exclamdbl" unicode="&#x203c;" horiz-adv-x="394" 
d="M50 634h106v-152l-3 -313h-98l-5 313v152zM34 65q0 31 19 50.5t50 19.5q32 0 51.5 -19.5t19.5 -50.5q0 -32 -19.5 -51.5t-51.5 -19.5q-31 0 -50 19.5t-19 51.5zM236 634h106v-152l-3 -313h-98l-5 313v152zM220 65q0 31 19 50.5t50 19.5q32 0 51.5 -19.5t19.5 -50.5
q0 -32 -19.5 -51.5t-51.5 -19.5q-31 0 -50 19.5t-19 51.5z" />
    <glyph glyph-name="fraction" unicode="&#x2044;" horiz-adv-x="198" 
d="M-62 -7l276 535l46 -22l-277 -536z" />
    <glyph glyph-name="zerosuperior" unicode="&#x2070;" horiz-adv-x="343" 
d="M320 465q0 -63 -42 -105q-43 -43 -108 -43t-108 43q-42 42 -42 105t42 105q43 43 108 43t108 -43q42 -42 42 -105zM92 465q0 -37 23 -62q21 -22 55 -22t55 22q23 25 23 62t-23 62q-21 22 -55 22t-55 -22q-23 -25 -23 -62z" />
    <glyph glyph-name="foursuperior" unicode="&#x2074;" horiz-adv-x="320" 
d="M33 360v60l169 180h52v-177h31v-57l-31 -6v-41h-68v41h-153zM186 423v79l-73 -79h73z" />
    <glyph glyph-name="fivesuperior" unicode="&#x2075;" horiz-adv-x="297" 
d="M139 373q34 0 51 17q9 10 9 26t-10 23q-14 11 -43 11q-40 0 -68 -13l-40 7v156h210v-64h-145v-34q16 7 50 7q59 0 88 -32q26 -28 26 -61q0 -42 -28 -70q-35 -35 -100 -35q-70 0 -114 44l42 45q31 -27 72 -27z" />
    <glyph glyph-name="sixsuperior" unicode="&#x2076;" horiz-adv-x="308" 
d="M234 541q-33 16 -73 16q-32 0 -45 -13q-12 -9 -17 -32q32 15 62 15q57 0 89 -32q28 -30 28 -70q0 -43 -29 -72q-35 -35 -91 -35q-67 0 -100 46q-28 38 -28 102q0 67 33 108q33 43 96 43q56 0 100 -28zM112 399q19 -21 48 -21q24 0 38 14q12 14 12 33q0 20 -13 30
q-16 13 -41 13q-32 0 -58 -15q0 -35 14 -54z" />
    <glyph glyph-name="sevensuperior" unicode="&#x2077;" horiz-adv-x="276" 
d="M25 538v62h226v-44l-108 -234h-76l103 216h-145z" />
    <glyph glyph-name="eightsuperior" unicode="&#x2078;" horiz-adv-x="320" 
d="M160 319q-66 0 -100 31q-30 27 -30 70q0 19 11 36q12 15 30 25q-19 19 -19 50q0 41 29 63q28 24 81 24t81 -27q24 -21 24 -58q0 -31 -17 -43q18 -10 29 -27t11 -41q0 -45 -33 -73q-37 -30 -97 -30zM160 559q-23 0 -33 -6q-10 -7 -10 -19q0 -13 8 -16q16 -7 35 -7
q22 0 31 -1q9 9 9 24q0 12 -10 18q-12 7 -30 7zM160 452q-31 0 -49 5q-13 -16 -13 -35q0 -16 12 -27q14 -14 50 -14q35 0 48 10q14 9 14 30q0 14 -11 23q-14 8 -51 8z" />
    <glyph glyph-name="ninesuperior" unicode="&#x2079;" horiz-adv-x="308" 
d="M66 396q39 -16 81 -16q23 0 41 13q13 11 17 28q-22 -13 -53 -13q-56 0 -90 30q-31 28 -31 74q0 44 34 76q34 30 85 30q58 0 95 -40q34 -38 34 -103q0 -66 -26 -104q-33 -53 -106 -53q-56 0 -104 28zM195 537q-17 21 -47 21q-22 0 -36 -11q-14 -12 -14 -34q0 -21 14 -32
q12 -9 39 -11q35 0 59 13q0 37 -15 54z" />
    <glyph glyph-name="parenleftsuperior" unicode="&#x207d;" horiz-adv-x="154" 
d="M95 461q0 -90 39 -154l-52 -26q-52 83 -52 180t52 182l52 -28q-39 -62 -39 -154z" />
    <glyph glyph-name="parenrightsuperior" unicode="&#x207e;" horiz-adv-x="154" 
d="M59 462q0 90 -39 155l52 26q52 -82 52 -181q0 -101 -52 -181l-52 27q39 62 39 154z" />
    <glyph glyph-name="zeroinferior" unicode="&#x2080;" horiz-adv-x="343" 
d="M320 88q0 -63 -42 -105q-43 -43 -108 -43t-108 43q-42 42 -42 105t42 105q43 43 108 43t108 -43q42 -42 42 -105zM92 88q0 -37 23 -62q21 -22 55 -22t55 22q23 25 23 62t-23 62q-21 22 -55 22t-55 -22q-23 -25 -23 -62z" />
    <glyph glyph-name="oneinferior" unicode="&#x2081;" horiz-adv-x="178" 
d="M36 131l-21 47l83 43h40v-278h-66v200z" />
    <glyph glyph-name="twoinferior" unicode="&#x2082;" horiz-adv-x="292" 
d="M40 -54v59l119 79q16 10 26 26q8 13 8 28t-12 24q-17 11 -38 11q-42 0 -76 -36l-44 37q47 62 120 62q54 0 89 -32q29 -27 29 -68q0 -29 -16 -54q-16 -24 -46 -45l-47 -30h107v-61h-219z" />
    <glyph glyph-name="threeinferior" unicode="&#x2083;" horiz-adv-x="311" 
d="M150 5q41 0 53 14q10 10 10 24q0 11 -7 18q-10 10 -33 10h-80v57h79q9 0 17 5q7 7 7 17q0 14 -9 21q-10 10 -38 10q-40 0 -77 -28l-34 44q46 46 113 46q57 0 84 -26q27 -25 27 -62q0 -28 -21 -44q40 -24 40 -68q0 -39 -26 -67q-35 -36 -105 -36q-69 0 -125 52l43 47
q38 -34 82 -34z" />
    <glyph glyph-name="fourinferior" unicode="&#x2084;" horiz-adv-x="300" 
d="M33 -19v60l169 180h52v-177h31v-57l-31 -6v-41h-68v41h-153zM186 44v79l-73 -79h73z" />
    <glyph glyph-name="fiveinferior" unicode="&#x2085;" horiz-adv-x="297" 
d="M139 -6q34 0 51 17q9 11 9 26q0 16 -10 23q-14 11 -43 11q-40 0 -68 -13l-40 7v156h210v-64h-145v-34q16 7 50 7q59 0 88 -32q26 -28 26 -61q0 -42 -28 -70q-35 -35 -100 -35q-70 0 -114 44l42 45q31 -27 72 -27z" />
    <glyph glyph-name="sixinferior" unicode="&#x2086;" horiz-adv-x="308" 
d="M234 164q-33 16 -73 16q-32 0 -45 -13q-12 -9 -17 -32q32 15 62 15q57 0 89 -32q28 -30 28 -70q0 -43 -29 -72q-35 -35 -91 -35q-67 0 -100 46q-28 38 -28 102q0 67 33 108q33 43 96 43q56 0 100 -28zM112 22q19 -21 48 -21q24 0 38 14q12 13 12 33t-13 30q-16 13 -41 13
q-32 0 -58 -15q0 -35 14 -54z" />
    <glyph glyph-name="seveninferior" unicode="&#x2087;" horiz-adv-x="276" 
d="M25 159v62h226v-44l-108 -234h-76l103 216h-145z" />
    <glyph glyph-name="eightinferior" unicode="&#x2088;" horiz-adv-x="320" 
d="M160 -58q-66 0 -100 31q-30 27 -30 70q0 19 11 36q12 15 30 25q-19 19 -19 50q0 41 29 63q28 24 81 24t81 -27q24 -21 24 -58q0 -31 -17 -43q18 -10 29 -27t11 -41q0 -45 -33 -73q-37 -30 -97 -30zM160 182q-23 0 -33 -6q-10 -7 -10 -19q0 -13 8 -16q16 -7 35 -7
q22 0 31 -1q9 9 9 24q0 12 -10 18q-12 7 -30 7zM160 75q-31 0 -49 5q-13 -16 -13 -35q0 -17 12 -27q14 -14 50 -14q35 0 48 10q14 9 14 30q0 14 -11 23q-14 8 -51 8z" />
    <glyph glyph-name="nineinferior" unicode="&#x2089;" horiz-adv-x="308" 
d="M66 19q39 -16 81 -16q23 0 41 13q13 11 17 28q-22 -13 -53 -13q-56 0 -90 30q-31 28 -31 74q0 44 34 76q34 30 85 30q58 0 95 -40q34 -38 34 -103q0 -66 -26 -104q-33 -53 -106 -53q-56 0 -104 28zM195 160q-17 21 -47 21q-22 0 -36 -11q-14 -12 -14 -34q0 -21 14 -32
q12 -9 39 -11q35 0 59 13q0 37 -15 54z" />
    <glyph glyph-name="parenleftinferior" unicode="&#x208d;" horiz-adv-x="154" 
d="M95 82q0 -90 39 -154l-52 -26q-52 83 -52 180q0 98 52 182l52 -28q-39 -62 -39 -154z" />
    <glyph glyph-name="parenrightinferior" unicode="&#x208e;" horiz-adv-x="154" 
d="M59 83q0 90 -39 155l52 26q52 -82 52 -181q0 -101 -52 -181l-52 27q39 62 39 154z" />
    <glyph glyph-name="Euro" unicode="&#x20ac;" horiz-adv-x="546" 
d="M11 238h362l-18 -78h-177q13 -25 44 -43q38 -18 77 -18q72 0 139 61l72 -77q-92 -92 -211 -92q-103 0 -180 60q-54 44 -71 109h-37v78zM378 265h-367v78h38q29 77 81 116q68 50 169 50q64 0 112.5 -19t97.5 -66l-72 -75q-34 30 -63 41t-75 11q-45 0 -74 -14
q-28 -13 -45 -44h215z" />
    <glyph glyph-name="afii61352" unicode="&#x2116;" horiz-adv-x="830" 
d="M587 158h196v-69h-196v69zM408 500h117v-500h-107l-250 302v-302h-118v500h107l251 -301v301zM799 293q0 -47 -32 -79q-33 -33 -82 -33t-82 33q-32 32 -32 79t32 79q33 33 82 33t82 -33q32 -32 32 -79zM728 293q0 18 -11 29q-13 13 -32 13q-21 0 -31 -12q-12 -12 -12 -30
t12 -30q10 -12 31 -12q19 0 32 13q11 11 11 29z" />
    <glyph glyph-name="trademark" unicode="&#x2122;" horiz-adv-x="660" 
d="M191 524v-192h-78v192h-88v76h255v-76h-89zM389 476v-144h-77v268h74l81 -99l80 99h73v-268h-78v144l-63 -74h-30z" />
    <glyph glyph-name="minus" unicode="&#x2212;" horiz-adv-x="354" 
d="M33 319h287v-96h-287v96z" />
    <glyph glyph-name="approxequal" unicode="&#x2248;" horiz-adv-x="392" 
d="M193 166q-39 14 -70 14q-38 0 -63 -21l-40 51q51 54 112 54q38 0 70 -14q30 -13 69 -13q34 0 64 24l37 -55q-46 -52 -110 -52q-33 0 -69 12zM193 296q-39 14 -70 14q-37 0 -63 -22l-40 51q52 55 112 55q38 0 70 -14t69 -14q33 0 64 24l37 -55q-46 -52 -110 -52
q-34 0 -69 13z" />
    <glyph glyph-name="notequal" unicode="&#x2260;" horiz-adv-x="368" 
d="M33 228h97l15 56h-112v91h136l17 62l80 -21l-11 -41h80v-91h-105l-15 -56h120v-91h-145l-16 -61l-79 22l11 39h-73v91z" />
    <glyph glyph-name="lessequal" unicode="&#x2264;" horiz-adv-x="314" 
d="M284 186l-44 -64l-220 147v49l220 144l44 -64l-143 -106zM20 220l19 11l192 -127l-44 -63l-167 103v76z" />
    <glyph glyph-name="greaterequal" unicode="&#x2265;" horiz-adv-x="314" 
d="M74 122l-44 64l143 106l-143 106l44 64l220 -144v-49zM275 231l19 -11v-76l-167 -103l-44 63z" />
    <glyph glyph-name="NULL" horiz-adv-x="0" 
 />
    <glyph glyph-name="CR" horiz-adv-x="300" 
 />
    <glyph glyph-name="percent" horiz-adv-x="691" 
d="M142 28l333 488l74 -48l-338 -486zM524 -9q-62 0 -104 42t-42 104q0 63 43 106q43 40 103 40q73 0 115 -51q32 -40 32 -95q0 -56 -35 -97q-43 -49 -112 -49zM585 139q0 26 -17 43q-18 18 -44 18t-43 -17q-19 -16 -19 -44q0 -29 18 -46q18 -18 44 -18q28 0 46 20
q15 17 15 44zM166 217q-62 0 -104 42t-42 104q0 63 43 106q43 40 103 40q73 0 115 -51q32 -40 32 -95q0 -56 -35 -97q-43 -49 -112 -49zM227 365q0 27 -17 44q-15 17 -44 17q-26 0 -43 -17q-19 -16 -19 -44q0 -29 18 -46q18 -18 44 -18q28 0 46 20q15 16 15 44z" />
    <glyph glyph-name="Breve" horiz-adv-x="409" 
d="M278 785l81 -42q-15 -38 -58 -70q-42 -31 -98 -31q-54 0 -94 31q-44 30 -59 70l81 42q12 -20 25 -32q19 -19 48 -19q27 0 47 16q16 12 27 35z" />
    <glyph glyph-name="Dieresis" horiz-adv-x="448" 
d="M257 714q0 30 19.5 50t49.5 20t51 -20.5t21 -49.5t-21 -50t-51 -21t-49.5 20.5t-19.5 50.5zM50 714q0 29 21 49.5t50 20.5t50 -20.5t21 -49.5t-21 -50t-50 -21t-50 21t-21 50z" />
    <glyph glyph-name="commaaccent" horiz-adv-x="229" 
d="M114 117q31 0 48 -17t17 -45q0 -13 -5 -30l-46 -110l-51 13l16 68q-21 4 -32 20t-11 39q0 27 18 44.5t46 17.5z" />
    <glyph glyph-name="dblgrave" horiz-adv-x="392" 
d="M291 756l51 -179l-72 -29l-74 168zM146 757l76 -174l-77 -39l-95 167z" />
    <glyph glyph-name="Acute" horiz-adv-x="281" 
d="M50 677l87 198l94 -47l-102 -189z" />
    <glyph glyph-name="Grave" horiz-adv-x="281" 
d="M144 875l87 -198l-79 -38l-102 189z" />
    <glyph glyph-name="Caron" horiz-adv-x="425" 
d="M50 777l55 58l108 -89l108 89l54 -58l-139 -139h-47z" />
    <glyph glyph-name="Circumflex" horiz-adv-x="425" 
d="M104 631l-54 58l139 138h47l139 -138l-54 -58l-108 89z" />
    <glyph glyph-name="commaaccent.cap" horiz-adv-x="231" 
d="M114 119q31 0 49 -18t18 -45q0 -13 -8 -37l-35 -108l-49 6l4 78q-43 13 -43 61q0 27 17 45t47 18z" />
    <glyph glyph-name="Dotaccent" horiz-adv-x="247" 
d="M50 65q0 32 22 53t53 21t51.5 -20.5t20.5 -53.5q0 -32 -20.5 -51.5t-51.5 -19.5q-32 0 -53.5 19.5t-21.5 51.5z" />
    <glyph glyph-name="Hungarumlaut" horiz-adv-x="399" 
d="M50 658l58 189l94 -39l-80 -178zM176 662l81 186l92 -46l-97 -177z" />
    <glyph glyph-name="dblGrave" horiz-adv-x="399" 
d="M291 847l58 -189l-71 -28l-81 178zM143 848l80 -186l-76 -37l-97 177z" />
    <glyph glyph-name="Macron" horiz-adv-x="432" 
d="M50 740h332v-90h-332v90z" />
    <glyph glyph-name="Ring" horiz-adv-x="322" 
d="M161 618q-44 0 -77 31q-34 34 -34 80q0 43 30 76q32 35 81 35q52 0 85 -38q27 -32 27 -73q0 -45 -35 -80q-33 -31 -77 -31zM161 679q20 0 36 14q15 15 15 36q0 19 -15 34q-13 16 -36 16q-24 0 -37 -16q-14 -12 -14 -34q0 -19 15 -36q16 -14 36 -14z" />
    <glyph glyph-name="Tilde" horiz-adv-x="474" 
d="M309 644q-37 0 -69 13q-37 15 -73 15q-38 0 -68 -24l-49 61q53 58 116 58q35 0 69 -14q41 -16 73 -16q34 0 68 24l48 -62q-51 -55 -115 -55z" />
    <glyph glyph-name="zero.fitted" horiz-adv-x="620" 
d="M617 300q0 -145 -92 -231q-83 -80 -214 -80t-214 80q-92 86 -92 231t92 231q83 80 214 80t214 -80q92 -86 92 -231zM121 300q0 -94 48 -149q52 -61 142 -61t142 61q48 55 48 149t-48 149q-52 61 -142 61t-142 -61q-48 -55 -48 -149z" />
    <glyph glyph-name="one.fitted" horiz-adv-x="620" 
d="M190 437l-40 85l167 78h66v-600h-111v469z" />
    <glyph glyph-name="two.fitted" horiz-adv-x="620" 
d="M82 0v94l252 197q43 33 66 69q21 31 21 62q0 30 -19 56q-34 33 -104 33q-96 0 -161 -85l-75 68q89 117 236 117q115 0 180 -59q56 -50 56 -134q0 -65 -42 -119q-41 -52 -96 -95l-131 -104h265v-100h-448z" />
    <glyph glyph-name="three.fitted" horiz-adv-x="620" 
d="M306 89q73 0 117 39q25 26 25 67t-24 59q-25 20 -73 20h-173v99h159q41 0 61 24q14 17 14 45q0 34 -25 52q-27 19 -91 19q-83 0 -148 -62l-66 68q91 92 224 92q105 0 164 -53q48 -44 49 -116q0 -32 -14 -58q-8 -18 -32 -37v-8q43 -22 64 -60q22 -37 22 -84
q0 -90 -62 -145q-73 -61 -191 -61q-78 0 -136.5 25t-108.5 81l66 70q81 -76 179 -76z" />
    <glyph glyph-name="four.fitted" horiz-adv-x="620" 
d="M48 86v79l372 435h91v-413h61v-95l-61 -5v-87h-113v86h-350zM398 187v227l-195 -227h195z" />
    <glyph glyph-name="five.fitted" horiz-adv-x="620" 
d="M302 89q70 0 111 38q33 31 33 79q0 45 -29 74q-38 38 -101 38q-81 0 -141 -32h-73v314h410v-101h-304v-105q47 22 109 22q112 0 175 -59q64 -57 64 -151q0 -98 -61 -153q-70 -64 -193 -64q-155 0 -238 104l68 76q41 -43 79.5 -61.5t90.5 -18.5z" />
    <glyph glyph-name="six.fitted" horiz-adv-x="620" 
d="M316 413q124 0 191 -70q54 -54 54 -137q0 -90 -61 -151q-66 -66 -185 -66q-130 0 -199 95q-57 82 -57 208q0 154 83 243q70 76 181 76q119 0 209 -74l-61 -76q-39 29 -69 38.5t-78 9.5q-66 0 -104 -44q-25 -27 -38 -76q59 24 134 24zM315 89q62 0 97 29q38 30 38 88
q0 50 -31 75q-35 32 -103 32q-85 0 -144 -29v-5q0 -84 35 -136q39 -54 108 -54z" />
    <glyph glyph-name="seven.fitted" horiz-adv-x="620" 
d="M80 500v100h463v-75l-269 -525h-126l259 500h-327z" />
    <glyph glyph-name="eight.fitted" horiz-adv-x="620" 
d="M309 -11q-133 0 -202 59q-58 51 -58 138q0 49 27 91q22 33 66 58q-21 17 -32 40q-15 30 -15 69q0 80 64 126q57 41 153 41q100 0 158 -52q52 -45 52 -112q0 -32 -11 -56t-34 -44q43 -22 68 -62q27 -43 27 -94q0 -90 -66 -146q-71 -56 -197 -56zM309 512q-62 0 -83 -21
q-20 -18 -20 -48q0 -35 24 -46q23 -14 79 -14q45 0 70 -4q15 12 23 27q7 13 7 38q0 30 -20 47q-24 21 -80 21zM309 281q-53 0 -88 7q-26 -11 -41 -33q-18 -22 -18 -64q0 -51 44 -77q43 -25 103 -25q77 0 119 38q30 26 30 64q0 41 -27 62q-38 28 -122 28z" />
    <glyph glyph-name="nine.fitted" horiz-adv-x="620" 
d="M303 187q-123 0 -191 69q-53 58 -53 138q0 91 60 151q66 66 185 66q131 0 200 -95q57 -82 57 -208q0 -150 -67 -233q-71 -86 -195 -86q-64 0 -113 14t-98 51l54 81q57 -44 156 -44q64 0 102 39q32 32 38 81q-59 -24 -135 -24zM304 511q-61 0 -96 -29q-38 -29 -38 -88
q0 -50 31 -75q35 -32 102 -32q86 0 145 29v5q0 84 -35 136q-39 54 -109 54z" />
    <glyph glyph-name="zerooldstyle" horiz-adv-x="576" 
d="M545 250q0 -110 -70 -185q-71 -74 -187 -74t-187 74q-70 75 -70 185t70 185q71 74 187 74t187 -74q70 -75 70 -185zM149 250q0 -72 41 -116q41 -39 98 -39t98 39q41 44 41 116t-41 116q-41 39 -98 39t-98 -39q-41 -44 -41 -116z" />
    <glyph glyph-name="oneoldstyle" horiz-adv-x="271" 
d="M40 342l-38 85l148 73h71v-500h-119v362z" />
    <glyph glyph-name="twooldstyle" horiz-adv-x="482" 
d="M36 0v90l243 173q31 23 40 40q10 16 10 41q0 18 -14 37q-21 24 -84 24q-70 0 -130 -64l-74 69q80 99 204 99q113 0 167 -54q46 -46 46 -115q0 -49 -22 -86q-25 -42 -87 -83l-102 -67h209v-104h-406z" />
    <glyph glyph-name="threeoldstyle" horiz-adv-x="503" 
d="M246 95q69 0 95 28q15 18 15 40q0 23 -20 38q-20 11 -50 11h-162v108h161q21 0 32 11q10 7 10 27q0 23 -14 30q-22 17 -72 17q-41 0 -72 -10.5t-70 -39.5l-58 82q49 39 96 55.5t108 16.5q91 0 148 -46q50 -39 50 -105q0 -28 -12 -50q-10 -20 -29 -28v-6q35 -17 55 -49
q16 -28 16 -62q0 -76 -65 -128q-57 -44 -163 -44q-72 0 -120.5 21t-99.5 70l69 78q67 -65 152 -65z" />
    <glyph glyph-name="fouroldstyle" horiz-adv-x="497" 
d="M25 76v88l303 336h97v-319h52v-99l-52 -4v-78h-118v76h-282zM307 181v140l-126 -140h126z" />
    <glyph glyph-name="fiveoldstyle" horiz-adv-x="481" 
d="M216 94q53 0 85 29q21 21 21 50q0 32 -18 50q-25 25 -81 25q-68 0 -112 -31l-67 18v265h358v-105h-247v-58q34 11 80 11q92 0 147 -45q58 -50 59 -131q0 -78 -61 -130q-58 -51 -164 -51q-69 0 -114 19.5t-87 63.5l69 80q31 -33 60.5 -46.5t71.5 -13.5z" />
    <glyph glyph-name="sixoldstyle" horiz-adv-x="503" 
d="M259 345q110 0 165 -55q49 -48 49 -118q0 -71 -47 -121q-55 -60 -172 -60q-107 0 -169 75q-55 66 -55 183q0 113 58 184q63 76 176 76q51 0 92.5 -13.5t93.5 -50.5l-57 -79q-61 41 -129 41q-47 0 -81 -29q-21 -18 -28 -48q44 15 104 15zM254 94q47 0 79 23q26 23 26 56
q0 28 -21 46q-25 23 -79 23q-72 0 -113 -17v-9q0 -48 25 -83q27 -39 83 -39z" />
    <glyph glyph-name="sevenoldstyle" horiz-adv-x="453" 
d="M20 396v104h413v-74l-227 -426h-128l213 396h-271z" />
    <glyph glyph-name="eightoldstyle" horiz-adv-x="528" 
d="M264 509q93 0 144 -40q49 -38 50 -105q0 -49 -38 -71v-8q28 -10 47 -36q31 -37 31 -86q0 -80 -57 -124q-62 -48 -177 -48t-175 47q-59 46 -59 125q0 32 19 67q16 26 54 48v6q-33 29 -33 80q0 67 50 104q52 41 144 41zM264 222q-44 0 -80 6q-20 -12 -29 -27q-8 -18 -8 -39
q0 -33 33 -52q33 -17 85 -17q67 0 97 26q19 16 19 45t-22 44q-25 14 -95 14zM185 361q0 -38 79 -38q44 0 65 -4q16 16 16 44q0 27 -19 37q-18 11 -61 11q-50 0 -69 -19q-11 -9 -11 -31z" />
    <glyph glyph-name="nineoldstyle" horiz-adv-x="503" 
d="M243 158q-111 0 -164 52q-49 49 -49 113q0 70 46 119q59 67 171 67q105 0 168 -69q58 -68 58 -189q0 -131 -79 -203q-60 -57 -154 -57q-63 0 -105 12t-89 50l53 85q60 -45 140 -45q46 0 78 23q30 22 36 65q-54 -23 -110 -23zM247 406q-59 0 -88 -35q-16 -21 -16 -45
q0 -26 19 -45q28 -23 81 -23q66 0 115 20v5q0 39 -27 83q-28 40 -84 40z" />
    <glyph glyph-name="one.taboldstyle" horiz-adv-x="560" 
d="M166 342l-38 85l148 73h71v-500h-119v362z" />
    <glyph glyph-name="two.taboldstyle" horiz-adv-x="560" 
d="M68 0v90l243 173q31 23 40 40q10 16 10 41q0 18 -14 37q-21 24 -84 24q-70 0 -130 -64l-74 69q80 99 204 99q113 0 167 -54q46 -46 46 -115q0 -49 -22 -86q-25 -42 -87 -83l-102 -67h209v-104h-406z" />
    <glyph glyph-name="zero.taboldstyle" horiz-adv-x="560" 
d="M542 250q0 -110 -70 -185q-71 -74 -187 -74t-187 74q-70 75 -70 185t70 185q71 74 187 74t187 -74q70 -75 70 -185zM146 250q0 -72 41 -116q41 -39 98 -39t98 39q41 44 41 116t-41 116q-41 39 -98 39t-98 -39q-41 -44 -41 -116z" />
    <glyph glyph-name="three.taboldstyle" horiz-adv-x="560" 
d="M287 95q69 0 95 28q15 18 15 40q0 23 -20 38q-20 11 -50 11h-162v108h161q21 0 32 11q10 7 10 27q0 23 -14 30q-22 17 -72 17q-41 0 -72 -10.5t-70 -39.5l-58 82q49 39 96 55.5t108 16.5q90 0 148 -46q50 -39 50 -105q0 -28 -12 -50q-10 -20 -29 -28v-6q35 -17 55 -49
q16 -28 16 -62q0 -76 -65 -128q-57 -44 -163 -44q-72 0 -120.5 21t-99.5 70l69 78q67 -65 152 -65z" />
    <glyph glyph-name="four.taboldstyle" horiz-adv-x="560" 
d="M57 76v88l303 336h97v-319h52v-99l-52 -4v-78h-118v76h-282zM339 181v140l-126 -140h126z" />
    <glyph glyph-name="five.taboldstyle" horiz-adv-x="560" 
d="M275 94q53 0 85 29q21 21 21 50q0 32 -18 50q-25 25 -81 25q-68 0 -112 -31l-67 18v265h358v-105h-247v-58q34 11 80 11q92 0 147 -45q58 -50 59 -131q0 -78 -61 -130q-58 -51 -164 -51q-69 0 -114 19.5t-87 63.5l69 80q31 -33 60.5 -46.5t71.5 -13.5z" />
    <glyph glyph-name="six.taboldstyle" horiz-adv-x="560" 
d="M293 345q110 0 165 -55q49 -48 49 -118q0 -71 -47 -121q-55 -60 -172 -60q-107 0 -169 75q-55 66 -55 183q0 113 58 184q63 76 176 76q51 0 92.5 -13.5t93.5 -50.5l-57 -79q-61 41 -129 41q-47 0 -81 -29q-21 -18 -28 -48q44 15 104 15zM288 94q47 0 79 23q26 23 26 56
q0 28 -21 46q-25 23 -79 23q-72 0 -113 -17v-9q0 -48 25 -83q27 -39 83 -39z" />
    <glyph glyph-name="seven.taboldstyle" horiz-adv-x="560" 
d="M82 396v104h413v-74l-227 -426h-128l213 396h-271z" />
    <glyph glyph-name="eight.taboldstyle" horiz-adv-x="560" 
d="M287 509q93 0 144 -40q49 -38 50 -105q0 -49 -38 -71v-8q28 -10 47 -36q31 -37 31 -86q0 -80 -57 -124q-62 -48 -177 -48t-175 47q-59 46 -59 125q0 32 19 67q16 26 54 48v6q-33 29 -33 80q0 67 50 104q52 41 144 41zM287 222q-44 0 -80 6q-20 -12 -29 -27q-8 -18 -8 -39
q0 -33 33 -52q33 -17 85 -17q67 0 97 26q19 16 19 45t-22 44q-25 14 -95 14zM208 361q0 -38 79 -38q44 0 65 -4q16 16 16 44q0 27 -19 37q-18 11 -61 11q-50 0 -69 -19q-11 -9 -11 -31z" />
    <glyph glyph-name="nine.taboldstyle" horiz-adv-x="560" 
d="M277 158q-111 0 -164 52q-49 49 -49 113q0 70 46 119q59 67 171 67q105 0 168 -69q58 -68 58 -189q0 -131 -79 -203q-60 -57 -154 -57q-63 0 -105 12t-89 50l53 85q60 -45 140 -45q46 0 78 23q30 22 36 65q-54 -23 -110 -23zM281 406q-59 0 -88 -35q-16 -21 -16 -45
q0 -26 19 -45q28 -23 81 -23q66 0 115 20v5q0 39 -27 83q-28 40 -84 40z" />
    <glyph glyph-name="currency.taboldstyle" horiz-adv-x="560" 
d="M278 86q-49 0 -78 16l-43 -42l-73 78l38 39q-17 36 -17 73q0 40 15 73l-36 42l73 72l42 -37q38 15 79 15q42 0 79 -15l41 37l78 -72l-42 -42q18 -38 18 -73q0 -40 -18 -74l39 -41l-75 -75l-42 42q-33 -16 -78 -16zM366 250q0 35 -24 59q-24 25 -64 25q-42 0 -63 -27
q-23 -21 -23 -57q0 -34 24 -62q23 -23 62 -23q34 0 64 24q24 24 24 61z" />
    <glyph glyph-name="centoldstyle" horiz-adv-x="552" 
d="M362 566v-62q84 -13 155 -87l-75 -78q-62 62 -139 62q-61 0 -104 -40q-43 -43 -43 -110t41 -108q41 -44 106 -44q74 0 139 62l75 -78q-37 -38 -72 -57.5t-83 -28.5v-63h-116v63q-85 18 -133 66q-78 78 -78 188q0 107 76 183q49 52 135 69v63h116z" />
    <glyph glyph-name="dollaroldstyle" horiz-adv-x="520" 
d="M43 363q0 53 44 95q37 36 111 48v60h116v-61q73 -7 157 -47l-47 -94q-84 38 -161 38q-56 0 -84 -16q-14 -9 -14 -21q0 -15 10 -22q10 -10 44 -16l95 -16q91 -15 138 -59q38 -36 38 -97q0 -62 -43 -105q-44 -42 -133 -55v-61h-116v59q-81 7 -164 51l47 97q85 -41 165 -41
q64 0 100 17q24 15 24 34t-16 28q-19 11 -58 18l-108 19q-71 12 -109 53q-36 37 -36 94z" />
    <glyph glyph-name="cent.taboldstyle" horiz-adv-x="560" 
d="M378 566v-62q84 -13 155 -87l-75 -78q-62 62 -139 62q-61 0 -104 -40q-43 -43 -43 -110t41 -108q41 -44 106 -44q74 0 139 62l75 -78q-37 -38 -72 -57.5t-83 -28.5v-63h-116v63q-85 18 -133 66q-78 78 -78 188q0 107 76 183q49 52 135 69v63h116z" />
    <glyph glyph-name="dollar.taboldstyle" horiz-adv-x="560" 
d="M61 363q0 53 44 95q37 36 111 48v60h116v-61q73 -7 157 -47l-47 -94q-84 38 -161 38q-56 0 -84 -16q-14 -9 -14 -21q0 -15 10 -22q10 -10 44 -16l95 -16q91 -15 138 -59q38 -36 38 -97q0 -62 -43 -105q-44 -42 -133 -55v-61h-116v59q-81 7 -164 51l47 97q85 -41 165 -41
q64 0 100 17q24 15 24 34t-16 28q-19 11 -58 18l-108 19q-71 12 -109 53q-36 37 -36 94z" />
    <glyph glyph-name="Euro.taboldstyle" horiz-adv-x="560" 
d="M21 238h362l-18 -78h-177q13 -25 44 -43q38 -18 77 -18q72 0 139 61l72 -77q-92 -92 -211 -92q-103 0 -180 60q-54 44 -71 109h-37v78zM388 265h-367v78h38q29 77 81 116q68 50 169 50q64 0 112.5 -19t97.5 -66l-72 -75q-34 30 -63 41t-75 11q-45 0 -74 -14
q-28 -13 -45 -44h215z" />
    <glyph glyph-name="yen.taboldstyle" horiz-adv-x="560" 
d="M439 161h-343v75h51l-153 264h136l134 -252h4l139 252h132l-154 -264h54v-75zM96 142h343v-74h-112v-68h-121v68h-110v74z" />
    <glyph glyph-name="numbersign.taboldstyle" horiz-adv-x="570" 
d="M168 75l6 89h-84v76h89l6 62h-95v77h98l8 92l75 -3l-7 -89h68l7 92l77 -3l-8 -89h90v-77h-94l-6 -62h100v-76h-104l-7 -92l-75 3l6 89h-67l-8 -92zM260 302l-6 -62h68l6 62h-68z" />
    <glyph glyph-name="zero.denominator" horiz-adv-x="343" 
d="M320 138q0 -63 -42 -105q-43 -43 -108 -43t-108 43q-42 42 -42 105t42 105q43 43 108 43t108 -43q42 -42 42 -105zM92 138q0 -37 23 -62q21 -22 55 -22t55 22q23 25 23 62t-23 62q-21 22 -55 22t-55 -22q-23 -25 -23 -62z" />
    <glyph glyph-name="one.denominator" horiz-adv-x="178" 
d="M36 181l-21 47l83 43h40v-278h-66v200z" />
    <glyph glyph-name="three.denominator" horiz-adv-x="311" 
d="M150 55q41 0 53 14q10 10 10 24q0 11 -7 18q-10 10 -33 10h-80v57h79q9 0 17 5q7 7 7 17q0 14 -9 21q-10 10 -38 10q-40 0 -77 -28l-34 44q46 46 113 46q57 0 84 -26q27 -25 27 -62q0 -28 -21 -44q40 -24 40 -68q0 -39 -26 -67q-35 -36 -105 -36q-69 0 -125 52l43 47
q38 -34 82 -34z" />
    <glyph glyph-name="four.denominator" horiz-adv-x="300" 
d="M33 31v60l169 180h52v-177h31v-57l-31 -6v-41h-68v41h-153zM186 94v79l-73 -79h73z" />
    <glyph glyph-name="five.denominator" horiz-adv-x="297" 
d="M139 44q34 0 51 17q9 10 9 26t-10 23q-14 11 -43 11q-40 0 -68 -13l-40 7v156h210v-64h-145v-34q16 7 50 7q59 0 88 -32q26 -28 26 -61q0 -42 -28 -70q-35 -35 -100 -35q-70 0 -114 44l42 45q31 -27 72 -27z" />
    <glyph glyph-name="six.denominator" horiz-adv-x="308" 
d="M234 214q-33 16 -73 16q-32 0 -45 -13q-12 -9 -17 -32q32 15 62 15q57 0 89 -32q28 -30 28 -70q0 -43 -29 -72q-35 -35 -91 -35q-67 0 -100 46q-28 38 -28 102q0 67 33 108q33 43 96 43q56 0 100 -28zM112 72q19 -21 48 -21q24 0 38 14q12 13 12 33t-13 30q-16 13 -41 13
q-32 0 -58 -15q0 -35 14 -54z" />
    <glyph glyph-name="seven.denominator" horiz-adv-x="276" 
d="M25 209v62h226v-44l-108 -234h-76l103 216h-145z" />
    <glyph glyph-name="eight.denominator" horiz-adv-x="320" 
d="M160 -8q-66 0 -100 31q-30 27 -30 70q0 19 11 36q12 15 30 25q-19 19 -19 50q0 41 29 63q28 24 81 24t81 -27q24 -21 24 -58q0 -31 -17 -43q18 -10 29 -27t11 -41q0 -45 -33 -73q-37 -30 -97 -30zM160 232q-23 0 -33 -6q-10 -7 -10 -19q0 -13 8 -16q16 -7 35 -7
q22 0 31 -1q9 9 9 24q0 12 -10 18q-12 7 -30 7zM160 125q-31 0 -49 5q-13 -16 -13 -35q0 -17 12 -27q14 -14 50 -14q35 0 48 10q14 9 14 30q0 14 -11 23q-14 8 -51 8z" />
    <glyph glyph-name="nine.denominator" horiz-adv-x="308" 
d="M66 69q39 -16 81 -16q23 0 41 13q13 11 17 28q-22 -13 -53 -13q-56 0 -90 30q-31 28 -31 74q0 44 34 76q34 30 85 30q58 0 95 -40q34 -38 34 -103q0 -66 -26 -104q-33 -53 -106 -53q-56 0 -104 28zM195 210q-17 21 -47 21q-22 0 -36 -11q-14 -12 -14 -34q0 -21 14 -32
q12 -9 39 -11q35 0 59 13q0 37 -15 54z" />
    <glyph glyph-name="period.denominator" horiz-adv-x="124" 
d="M15 35q0 20 13 34t33 14t34 -14t14 -34t-14 -33t-34 -13t-33 13t-13 33z" />
    <glyph glyph-name="comma.denominator" horiz-adv-x="124" 
d="M15 35q0 20 13.5 34t33.5 14t33.5 -14t13.5 -34q0 -12 -3 -21l-29 -79l-38 7l6 51q-30 11 -30 42z" />
    <glyph glyph-name="dollar.denominator" horiz-adv-x="302" 
d="M114 302h68v-27q42 -3 87 -28l-26 -54q-45 22 -89 22q-33 0 -44 -5t-11 -16q0 -2 0.5 -4.5t2 -4t2.5 -3t3 -2.5t3.5 -2t4.5 -1.5t4 -1t4 -1.5t4 -1l52 -9q53 -10 75 -32q23 -20 23 -55q0 -38 -23 -59q-23 -23 -72 -30v-30h-68v28q-49 6 -89 31l27 54q54 -25 96 -25
q36 0 50 9q11 6 11 21q0 11 -8.5 16t-30.5 8l-58 9q-39 5 -60 26q-21 26 -21 55q0 34 25 59q22 19 58 25v28z" />
    <glyph glyph-name="cent.denominator" horiz-adv-x="316" 
d="M139 -40v30q-53 11 -84 48q-32 38 -32 92t32 92q31 37 84 49v30h65v-28q52 -11 89 -52l-44 -42q-30 32 -77 32q-36 0 -61 -25q-18 -22 -18 -56q0 -30 20 -53q26 -26 59 -26q48 0 76 32l43 -42q-38 -41 -87 -52v-29h-65z" />
    <glyph glyph-name="parenleft.denominator" horiz-adv-x="154" 
d="M95 132q0 -90 39 -154l-52 -26q-52 83 -52 180q0 98 52 182l52 -28q-39 -62 -39 -154z" />
    <glyph glyph-name="parenright.denominator" horiz-adv-x="154" 
d="M59 133q0 90 -39 155l52 26q52 -82 52 -181q0 -101 -52 -181l-52 27q39 62 39 154z" />
    <glyph glyph-name="hyphen.denominator" horiz-adv-x="184" 
d="M15 186h154v-61h-154v61z" />
    <glyph glyph-name="Cedilla" horiz-adv-x="270" 
d="M67 3h85l-2 -54q31 0 49 -18q22 -24 22 -56q0 -37 -27 -71q-39 -47 -124 -68l-22 54q51 27 64 40q16 20 16 41q0 10 -8 18q-8 6 -21 6h-32v108z" />
    <glyph glyph-name="Ogonek" horiz-adv-x="247" 
d="M112 17l56 -17q-15 -13 -23 -24q-10 -16 -10 -37q0 -25 18 -50q17 -26 44 -43l-29 -48q-52 15 -86 50q-32 35 -32 79q0 36 19 58q20 23 43 32z" />
    <glyph glyph-name="rupiah" horiz-adv-x="519" 
d="M7 106h43v394h239q103 0 158 -65q42 -49 42 -123q0 -72 -51 -128q-57 -59 -149 -59h-119v-19h114v-78h-114v-28h-120v28h-43v78zM291 232q40 0 58 24q20 23 20 56q0 37 -20 57q-22 24 -65 24h-114v-161h121z" />
    <glyph glyph-name="zero.slash" horiz-adv-x="664" 
d="M332 -11q-124 0 -207 80q-45 42 -70 103.5t-25 127.5q2 148 91 232q86 79 211 79q142 0 231 -103q71 -87 71 -208q0 -66 -25 -127.5t-70 -103.5q-83 -80 -207 -80zM332 92q86 0 139 71q47 59 47 137q0 64 -21 101l-258 -275q40 -34 93 -34zM146 300q0 -51 19 -93l256 273
q-41 29 -90 29q-85 0 -133 -54q-52 -56 -52 -155z" />
    <glyph glyph-name="zero.slash.fitted" horiz-adv-x="620" 
d="M311 -11q-124 0 -207 80q-45 42 -70 103.5t-25 127.5q2 148 91 232q86 79 211 79q142 0 231 -103q71 -87 71 -208q0 -66 -25 -127.5t-70 -103.5q-83 -80 -207 -80zM311 92q86 0 139 71q47 59 47 137q0 64 -21 101l-258 -275q40 -34 93 -34zM125 300q0 -51 19 -93l256 273
q-41 29 -90 29q-85 0 -133 -54q-52 -56 -52 -155z" />
    <glyph glyph-name="zerooldstyle.slash" horiz-adv-x="576" 
d="M545 250q0 -115 -72 -187t-185 -72q-114 0 -189 75q-68 71 -68 184q0 110 70 185q71 74 187 74q119 0 190 -77q67 -73 67 -182zM149 250q0 -38 9 -69l186 216q-27 8 -56 8q-57 0 -98 -39q-41 -41 -41 -116zM427 250q0 42 -9 68l-184 -215q29 -8 54 -8q71 0 105 45
q34 40 34 110z" />
    <glyph glyph-name="zerooldstyle.slash.fitted" horiz-adv-x="560" 
d="M556 250q0 -115 -72 -187t-185 -72q-114 0 -189 75q-68 71 -68 184q0 110 70 185q71 74 187 74q119 0 190 -77q67 -73 67 -182zM160 250q0 -38 9 -69l186 216q-27 8 -56 8q-57 0 -98 -39q-41 -41 -41 -116zM438 250q0 42 -9 68l-184 -215q29 -8 54 -8q71 0 105 45
q34 40 34 110z" />
    <glyph glyph-name="two.denominator" horiz-adv-x="292" 
d="M40 -4v59l119 79q16 10 26 26q8 13 8 28t-12 24q-17 11 -38 11q-42 0 -76 -36l-44 37q47 62 120 62q54 0 89 -32q29 -27 29 -68q0 -29 -16 -54q-16 -24 -46 -45l-47 -30h107v-61h-219z" />
    <glyph glyph-name="zero.numerator" horiz-adv-x="343" 
d="M320 366q0 -63 -42 -105q-43 -43 -108 -43t-108 43q-42 42 -42 105t42 105q43 43 108 43t108 -43q42 -42 42 -105zM92 366q0 -37 23 -62q21 -22 55 -22t55 22q23 25 23 62t-23 62q-21 22 -55 22t-55 -22q-23 -25 -23 -62z" />
    <glyph glyph-name="one.numerator" horiz-adv-x="178" 
d="M36 411l-21 47l83 43h40v-278h-66v200z" />
    <glyph glyph-name="two.numerator" horiz-adv-x="292" 
d="M40 224v59l119 79q16 10 26 26q8 13 8 28t-12 24q-17 11 -38 11q-42 0 -76 -36l-44 37q46 62 120 62q54 0 89 -32q29 -27 29 -68q0 -29 -16 -54q-16 -24 -46 -45l-47 -30h107v-61h-219z" />
    <glyph glyph-name="three.numerator" horiz-adv-x="311" 
d="M150 283q41 0 53 14q10 10 10 24q0 11 -7 18q-10 10 -33 10h-80v57h79q9 0 17 5q7 7 7 17q0 14 -9 21q-10 10 -38 10q-40 0 -77 -28l-34 44q46 46 113 46q57 0 84 -26q27 -25 27 -62q0 -28 -21 -44q40 -24 40 -68q0 -39 -26 -67q-35 -36 -105 -36q-69 0 -125 52l43 47
q38 -34 82 -34z" />
    <glyph glyph-name="four.numerator" horiz-adv-x="300" 
d="M33 261v60l169 180h52v-177h31v-57l-31 -6v-41h-68v41h-153zM186 324v79l-73 -79h73z" />
    <glyph glyph-name="five.numerator" horiz-adv-x="297" 
d="M139 274q34 0 51 17q9 11 9 26q0 16 -10 23q-14 11 -43 11q-40 0 -68 -13l-40 7v156h210v-64h-145v-34q16 7 50 7q59 0 88 -32q26 -28 26 -61q0 -42 -28 -70q-35 -35 -100 -35q-70 0 -114 44l42 45q31 -27 72 -27z" />
    <glyph glyph-name="six.numerator" horiz-adv-x="308" 
d="M234 442q-33 16 -73 16q-32 0 -45 -13q-12 -9 -17 -32q32 15 62 15q57 0 89 -32q28 -30 28 -70q0 -43 -29 -72q-35 -35 -91 -35q-67 0 -100 46q-28 38 -28 102q0 67 33 108q33 43 96 43q56 0 100 -28zM112 300q19 -21 48 -21q24 0 38 14q12 13 12 33t-13 30
q-16 13 -41 13q-32 0 -58 -15q0 -35 14 -54z" />
    <glyph glyph-name="seven.numerator" horiz-adv-x="276" 
d="M25 439v62h226v-44l-108 -234h-76l103 216h-145z" />
    <glyph glyph-name="eight.numerator" horiz-adv-x="320" 
d="M160 220q-66 0 -100 31q-30 27 -30 70q0 19 11 36q12 15 30 25q-19 19 -19 50q0 41 29 63q28 24 81 24t81 -27q24 -21 24 -58q0 -31 -17 -43q18 -10 29 -27t11 -41q0 -45 -33 -73q-37 -30 -97 -30zM160 460q-23 0 -33 -6q-10 -7 -10 -19q0 -13 8 -16q16 -7 35 -7
q22 0 31 -1q9 9 9 24q0 12 -10 18q-12 7 -30 7zM160 353q-31 0 -49 5q-13 -16 -13 -35q0 -17 12 -27q14 -14 50 -14q35 0 48 10q14 9 14 30q0 14 -11 23q-14 8 -51 8z" />
    <glyph glyph-name="nine.numerator" horiz-adv-x="308" 
d="M66 297q39 -16 81 -16q23 0 41 13q13 11 17 28q-22 -13 -53 -13q-56 0 -90 30q-31 28 -31 74q0 44 34 76q34 30 85 30q58 0 95 -40q34 -38 34 -103q0 -66 -26 -104q-33 -53 -106 -53q-56 0 -104 28zM195 438q-17 21 -47 21q-22 0 -36 -11q-14 -12 -14 -34q0 -21 14 -32
q12 -9 39 -11q35 0 59 13q0 37 -15 54z" />
    <glyph glyph-name="parenleft.numerator" horiz-adv-x="154" 
d="M95 362q0 -90 39 -154l-52 -26q-52 83 -52 180q0 98 52 182l52 -28q-39 -62 -39 -154z" />
    <glyph glyph-name="parenright.numerator" horiz-adv-x="154" 
d="M59 363q0 90 -39 155l52 26q52 -82 52 -181q0 -101 -52 -181l-52 27q39 62 39 154z" />
    <glyph glyph-name="cent.numerator" horiz-adv-x="316" 
d="M139 191v30q-53 11 -84 48q-32 38 -32 92t32 92q31 37 84 49v30h65v-28q52 -11 89 -52l-44 -42q-30 32 -77 32q-36 0 -61 -25q-18 -23 -18 -56q0 -30 20 -53q26 -26 59 -26q48 0 76 32l43 -42q-38 -41 -87 -52v-29h-65z" />
    <glyph glyph-name="dollar.numerator" horiz-adv-x="302" 
d="M114 533h68v-27q42 -3 87 -28l-26 -54q-45 22 -89 22q-33 0 -44 -5t-11 -16q0 -2 0.5 -4.5t2 -4t2.5 -3t3 -2.5t3.5 -2t4.5 -1.5t4 -1t4 -1.5t4 -1l52 -9q53 -10 75 -32q23 -20 23 -55q0 -38 -23 -59q-23 -23 -72 -30v-30h-68v28q-49 6 -89 31l27 54q54 -25 96 -25
q36 0 50 9q11 6 11 21q0 11 -8.5 16t-30.5 8l-58 9q-39 5 -60 26q-21 26 -21 55q0 34 25 59q22 19 58 25v28z" />
    <glyph glyph-name="hyphen.numerator" horiz-adv-x="184" 
d="M15 410h154v-61h-154v61z" />
    <glyph glyph-name="comma.numerator" horiz-adv-x="124" 
d="M15 256q0 20 13.5 34t33.5 14t33.5 -14t13.5 -34q0 -12 -3 -21l-29 -79l-38 7l6 51q-30 10 -30 42z" />
    <glyph glyph-name="period.numerator" horiz-adv-x="124" 
d="M15 256q0 20 13 34t33 14t34 -14t14 -34t-14 -33t-34 -13t-33 13t-13 33z" />
    <glyph glyph-name="centsuperior" horiz-adv-x="316" 
d="M139 290v30q-53 11 -84 48q-32 38 -32 92t32 92q31 37 84 49v30h65v-28q52 -11 89 -52l-44 -42q-30 32 -77 32q-36 0 -61 -25q-18 -22 -18 -56q0 -30 20 -53q26 -26 59 -26q48 0 76 32l43 -42q-38 -41 -87 -52v-29h-65z" />
    <glyph glyph-name="hyphensuperior" horiz-adv-x="184" 
d="M15 509h154v-61h-154v61z" />
    <glyph glyph-name="commasuperior" horiz-adv-x="124" 
d="M15 355q0 20 13.5 34t33.5 14t33.5 -14t13.5 -34q0 -12 -3 -21l-29 -79l-38 7l6 51q-30 11 -30 42z" />
    <glyph glyph-name="periodsuperior" horiz-adv-x="124" 
d="M15 355q0 20 13 34t33 14t34 -14t14 -34t-14 -33t-34 -13t-33 13t-13 33z" />
    <glyph glyph-name="dollarsuperior" horiz-adv-x="302" 
d="M114 632h68v-27q42 -3 87 -28l-26 -54q-45 22 -89 22q-33 0 -44 -5t-11 -16q0 -2 0.5 -4.5t2 -4t2.5 -3t3 -2.5t3.5 -2t4.5 -1.5t4 -1t4 -1.5t4 -1l52 -9q53 -10 75 -32q23 -20 23 -55q0 -38 -23 -59q-23 -23 -72 -30v-30h-68v28q-49 6 -89 31l27 54q54 -25 96 -25
q36 0 50 9q11 6 11 21q0 11 -8.5 16t-30.5 8l-58 9q-39 5 -60 26q-21 26 -21 55q0 34 25 59q22 19 58 25v28z" />
    <glyph glyph-name="hypheninferior" horiz-adv-x="184" 
d="M15 136h154v-61h-154v61z" />
    <glyph glyph-name="commainferior" horiz-adv-x="124" 
d="M15 -15q0 20 13.5 34t33.5 14t33.5 -14t13.5 -34q0 -12 -3 -21l-29 -79l-38 7l6 51q-30 11 -30 42z" />
    <glyph glyph-name="periodinferior" horiz-adv-x="124" 
d="M15 -15q0 20 13 34t33 14t34 -14t14 -34t-14 -33t-34 -13t-33 13t-13 33z" />
    <glyph glyph-name="centinferior" horiz-adv-x="316" 
d="M139 -90v30q-53 11 -84 48q-32 38 -32 92t32 92q31 37 84 49v30h65v-28q52 -11 89 -52l-44 -42q-30 32 -77 32q-36 0 -61 -25q-18 -22 -18 -56q0 -30 20 -53q26 -26 59 -26q48 0 76 32l43 -42q-38 -41 -87 -52v-29h-65z" />
    <glyph glyph-name="dollarinferior" horiz-adv-x="302" 
d="M114 252h68v-27q42 -3 87 -28l-26 -54q-45 22 -89 22q-33 0 -44 -5t-11 -16q0 -2 0.5 -4.5t2 -4t2.5 -3t3 -2.5t3.5 -2t4.5 -1.5t4 -1t4 -1.5t4 -1l52 -9q53 -10 75 -32q23 -20 23 -55q0 -38 -23 -59q-23 -23 -72 -30v-30h-68v28q-49 6 -89 31l27 54q54 -25 96 -25
q36 0 50 9q11 6 11 21q0 11 -8.5 16t-30.5 8l-58 9q-39 5 -60 26q-21 26 -21 55q0 34 25 59q22 19 58 25v28z" />
    <glyph glyph-name="ampersandsmall" horiz-adv-x="515" 
d="M441 397l-95 -46q-12 24 -25 36q-23 18 -57 18q-18 0 -33 -12q-12 -9 -12 -26q0 -16 14 -30l142 -141q4 12 6 31l104 -19q-7 -63 -28 -97l43 -44l-83 -75l-37 34q-56 -35 -128 -35q-99 0 -160 50q-57 46 -57 132q0 46 21 82q15 29 53 60q-10 21 -10 51q0 72 61 113
q46 30 104 30q63 0 106 -25q45 -26 71 -87zM255 98q14 0 48 9l-133 130q-6 -11 -11 -24q-4 -11 -4 -27q0 -37 19 -59q26 -29 81 -29z" />
    <glyph glyph-name="Imacron" horiz-adv-x="217" 
d="M167 600v-600h-117v600h117zM-56 740h332v-90h-332v90z" />
    <glyph glyph-name="ibreve" horiz-adv-x="222" 
d="M50 500h122v-500h-122v500zM111 542q-55 0 -94 28q-41 29 -59 71l85 42q9 -16 20 -28q19 -19 50 -19q30 0 49 19q11 11 21 28l84 -42q-16 -41 -56 -69q-43 -30 -100 -30z" />
    <glyph glyph-name="afii10024.alt" horiz-adv-x="924" 
d="M399 374v226h120v-226h88l140 226h144l-178 -275l191 -325h-143l-152 265h-90v-265h-120v265h-86l-153 -265h-141l189 325l-177 275h143l141 -226h84z" />
    <glyph glyph-name="afii10028.alt" horiz-adv-x="608" 
d="M50 600h120v-226h110l155 226h140l-192 -275l205 -325h-138l-168 267h-112v-267h-120v600z" />
    <glyph glyph-name="afii10037.alt" horiz-adv-x="682" 
d="M519 600h138l-316 -600h-127l70 144l-262 456h143l181 -340h6z" />
    <glyph glyph-name="afii10061.alt" horiz-adv-x="608" 
d="M50 600h120v-226h110l155 226h140l-192 -275l205 -325h-138l-168 267h-112v-267h-120v600zM243 677l87 198l94 -47l-102 -189z" />
    <glyph glyph-name="afii10062.alt" horiz-adv-x="682" 
d="M519 600h138l-316 -600h-127l70 144l-262 456h143l181 -340h6zM425 785l81 -42q-15 -38 -58 -70q-42 -31 -98 -31q-54 0 -94 31q-44 30 -59 70l81 42q12 -20 25 -32q19 -19 48 -19q27 0 47 16q16 12 27 35z" />
    <glyph glyph-name="afii10072.alt" horiz-adv-x="825" 
d="M352 317v183h121v-183h62l119 183h141l-160 -235l170 -265h-144l-123 208h-65v-208h-121v208h-65l-123 -208h-144l170 265l-160 235h141l119 -183h62z" />
    <glyph glyph-name="afii10076.alt" horiz-adv-x="547" 
d="M50 500h120v-185h73l130 185h143l-170 -235l179 -265h-146l-132 206h-77v-206h-120v500z" />
    <glyph glyph-name="afii10085.alt" horiz-adv-x="590" 
d="M432 500h133l-262 -500h-126l60 117l-212 383h139l135 -267h4z" />
    <glyph glyph-name="afii10109.alt" horiz-adv-x="547" 
d="M50 500h120v-185h73l130 185h143l-170 -235l179 -265h-146l-132 206h-77v-206h-120v500zM211 585l71 177l101 -51l-91 -164z" />
    <glyph glyph-name="afii10110.alt" horiz-adv-x="590" 
d="M432 500h133l-262 -500h-126l60 117l-212 383h139l135 -267h4zM299 542q-55 0 -94 28q-41 29 -59 71l85 42q9 -16 20 -28q19 -19 50 -19q30 0 49 19q11 11 21 28l84 -42q-16 -41 -56 -69q-43 -30 -100 -30z" />
    </font>
</defs>
</svg>
